<svg viewBox="0 0 380 123.12" xmlns="http://www.w3.org/2000/svg" xmlns:xlink="http://www.w3.org/1999/xlink" id="Layer_1" overflow="hidden"><defs><linearGradient x1="3.73" y1="58.24" x2="380" y2="58.24" gradientUnits="userSpaceOnUse" id="linear-gradient"><stop offset="0" stop-color="#FFD776"/><stop offset="0.03" stop-color="#FCC077"/><stop offset="0.12" stop-color="#F68B7B"/><stop offset="0.21" stop-color="#F2617E"/><stop offset="0.29" stop-color="#EE4380"/><stop offset="0.35" stop-color="#EC3181"/><stop offset="0.4" stop-color="#EC2B82"/><stop offset="0.68" stop-color="#9F4395"/><stop offset="0.89" stop-color="#6A55A2"/><stop offset="1" stop-color="#565CA8"/></linearGradient></defs><rect x="0" y="6.65" rx="54.66" ry="54.66" width="376.27" height="116.47" fill="#231F20" opacity="0.56"/><rect x="3.73" y="0" rx="54.66" ry="54.66" width="376.27" height="116.47" fill="url(#linear-gradient)"/><path d="M267.06 3.71C213.41 6.71 82.35 12.35 54.11 41.82 35.98 60.75 32.63 83.1 38.05 108.53 18.29 100.06 12.01 83.58 9.46 76.06 6.49 67.3 1.64 30.48 28.35 13.06 42.84 3.61 53.06 4.24 53.06 4.24 53.06 4.24 222.41 3.71 267.06 3.71Z" fill="#FFF9FB" opacity="0.33"/><g><path d="M69.09 35.03C77.73 35.03 78.75 35.06 82.17 35.22 85.33 35.36 87.04 35.89 88.18 36.33 89.69 36.92 90.77 37.62 91.9 38.75 93.03 39.88 93.73 40.96 94.32 42.47 94.76 43.61 95.29 45.32 95.43 48.48 95.59 51.89 95.62 52.92 95.62 61.56 95.62 70.2 95.59 71.22 95.43 74.64 95.29 77.8 94.76 79.51 94.32 80.65 93.73 82.16 93.03 83.24 91.9 84.37 90.77 85.5 89.69 86.2 88.18 86.79 87.04 87.23 85.33 87.76 82.17 87.9 78.76 88.06 77.73 88.09 69.09 88.09 60.45 88.09 59.43 88.06 56.01 87.9 52.85 87.76 51.14 87.23 50 86.79 48.49 86.2 47.41 85.5 46.28 84.37 45.15 83.24 44.45 82.16 43.86 80.65 43.42 79.51 42.89 77.8 42.75 74.64 42.59 71.23 42.56 70.2 42.56 61.56 42.56 52.92 42.59 51.9 42.75 48.48 42.89 45.32 43.42 43.61 43.86 42.47 44.45 40.96 45.15 39.88 46.28 38.75 47.41 37.62 48.49 36.92 50 36.33 51.14 35.89 52.85 35.36 56.01 35.22 59.42 35.06 60.45 35.03 69.09 35.03M69.09 29.2C60.3 29.2 59.2 29.24 55.75 29.39 52.31 29.55 49.95 30.09 47.89 30.89 45.76 31.72 43.96 32.82 42.16 34.62 40.36 36.42 39.25 38.22 38.43 40.35 37.63 42.41 37.08 44.76 36.93 48.21 36.77 51.66 36.74 52.76 36.74 61.55 36.74 70.34 36.78 71.44 36.93 74.89 37.09 78.33 37.63 80.69 38.43 82.75 39.26 84.88 40.36 86.68 42.16 88.48 43.96 90.28 45.76 91.39 47.89 92.21 49.95 93.01 52.3 93.56 55.75 93.71 59.2 93.87 60.3 93.9 69.09 93.9 77.88 93.9 78.98 93.86 82.43 93.71 85.87 93.55 88.23 93.01 90.29 92.21 92.42 91.38 94.22 90.28 96.02 88.48 97.82 86.68 98.93 84.88 99.75 82.75 100.55 80.69 101.1 78.34 101.25 74.89 101.41 71.44 101.44 70.34 101.44 61.55 101.44 52.76 101.4 51.66 101.25 48.21 101.09 44.77 100.55 42.41 99.75 40.35 98.92 38.22 97.82 36.42 96.02 34.62 94.22 32.82 92.42 31.71 90.29 30.89 88.23 30.09 85.88 29.54 82.43 29.39 78.98 29.23 77.88 29.2 69.09 29.2L69.09 29.2Z" fill="#FFFFFF"/><path d="M69.09 44.94C59.91 44.94 52.47 52.38 52.47 61.56 52.47 70.74 59.91 78.18 69.09 78.18 78.27 78.18 85.71 70.74 85.71 61.56 85.71 52.38 78.27 44.94 69.09 44.94ZM69.09 72.34C63.13 72.34 58.3 67.51 58.3 61.55 58.3 55.59 63.13 50.76 69.09 50.76 75.05 50.76 79.88 55.59 79.88 61.55 79.88 67.51 75.05 72.34 69.09 72.34Z" fill="#FFFFFF"/><circle cx="86.36" cy="44.28" r="3.88" fill="#FFFFFF"/></g><g><path d="M117.5 59.37 117.5 35.03 125.88 35.03C127.77 35.03 129.22 35.15 130.21 35.38 131.62 35.7 132.8 36.28 133.78 37.12 135.07 38.22 136.04 39.6 136.67 41.28 137.3 42.96 137.62 44.89 137.62 47.07 137.62 48.48 137.5 49.75 137.25 50.89 137 52.03 136.67 53.04 136.25 53.93 135.83 54.82 135.34 55.58 134.8 56.21 134.25 56.85 133.68 57.36 133.1 57.75 132.3 58.28 131.34 58.69 130.21 58.96 129.08 59.23 127.77 59.38 126.29 59.38L117.51 59.38ZM120.72 56.5 125.92 56.5C127.51 56.5 128.77 56.35 129.69 56.05 130.61 55.75 131.34 55.33 131.88 54.79 132.64 54.03 133.24 53 133.66 51.72 134.08 50.44 134.3 48.87 134.3 47.02 134.3 44.46 133.88 42.51 133.04 41.16 132.21 39.79 131.2 38.87 130 38.4 129.14 38.07 127.75 37.9 125.83 37.9L120.72 37.9 120.72 56.49Z" fill="#FFFFFF"/><path d="M141.06 59.37 141.06 35.03 158.66 35.03 158.66 37.9 144.28 37.9 144.28 45.35 157.74 45.35 157.74 48.21 144.28 48.21 144.28 56.49 159.22 56.49 159.22 59.36 141.06 59.36Z" fill="#FFFFFF"/><path d="M162.19 59.37 162.19 35.03 165.49 35.03 178.27 54.14 178.27 35.03 181.36 35.03 181.36 59.37 178.06 59.37 165.28 40.25 165.28 59.37 162.19 59.37Z" fill="#FFFFFF"/><path d="M191.64 59.37 191.64 37.9 183.62 37.9 183.62 35.03 202.91 35.03 202.91 37.9 194.86 37.9 194.86 59.37 191.64 59.37Z" fill="#FFFFFF"/><path d="M217.15 59.37 217.15 35.03 226.28 35.03C228.14 35.03 229.63 35.28 230.75 35.77 231.87 36.26 232.75 37.02 233.38 38.05 234.02 39.06 234.34 40.13 234.34 41.25 234.34 41.77 234.27 42.28 234.12 42.78 233.98 43.28 233.76 43.75 233.48 44.19 233.2 44.63 232.84 45.04 232.42 45.43 232 45.82 231.5 46.14 230.93 46.42 231.66 46.64 232.31 46.94 232.88 47.31 233.45 47.68 233.93 48.12 234.32 48.63 234.71 49.14 235.01 49.7 235.21 50.32 235.41 50.94 235.51 51.6 235.51 52.31 235.51 53.44 235.27 54.5 234.78 55.5 234.29 56.49 233.7 57.24 233 57.76 232.29 58.29 231.41 58.69 230.34 58.96 229.28 59.23 227.97 59.37 226.41 59.37L217.13 59.37ZM220.37 45.26 225.63 45.26C227.05 45.26 228.07 45.17 228.7 44.98 230.35 44.49 231.17 43.38 231.17 41.64 231.17 40.83 230.98 40.12 230.6 39.51 230.22 38.9 229.66 38.48 228.93 38.26 228.21 38.03 226.98 37.91 225.23 37.91L220.37 37.91 220.37 45.26ZM220.37 56.5 226.43 56.5C227.5 56.5 228.23 56.46 228.62 56.38 229.36 56.25 229.98 56.03 230.48 55.72 230.98 55.42 231.39 54.97 231.71 54.37 232.03 53.76 232.19 53.08 232.19 52.31 232.19 51.4 231.96 50.61 231.49 49.94 231.03 49.27 230.38 48.8 229.55 48.54 228.75 48.26 227.57 48.12 226 48.12L220.37 48.12 220.37 56.49Z" fill="#FFFFFF"/><path d="M254.45 35.03 257.67 35.03 257.67 49.09C257.67 51.51 257.39 53.46 256.84 54.92 256.3 56.34 255.3 57.51 253.84 58.44 252.39 59.34 250.5 59.78 248.16 59.78 245.82 59.78 243.99 59.39 242.56 58.61 241.13 57.83 240.09 56.69 239.46 55.2 238.84 53.7 238.53 51.66 238.53 49.09L238.53 35.03 241.75 35.03 241.75 49.07C241.75 51.16 241.94 52.72 242.33 53.75 242.73 54.74 243.4 55.5 244.36 56.06 245.31 56.6 246.48 56.87 247.88 56.87 250.25 56.87 251.94 56.33 252.94 55.26 253.94 54.19 254.45 52.12 254.45 49.07L254.45 35.03Z" fill="#FFFFFF"/><path d="M263.01 51.28C263.15 52.5 263.49 53.5 264.01 54.28 264.53 55.06 265.35 55.69 266.46 56.18 267.56 56.66 268.8 56.89 270.2 56.89 271.14 56.9 271.99 56.8 272.74 56.58 273.49 56.36 274.13 56.07 274.67 55.68 275.21 55.29 275.6 54.86 275.87 54.35 276.14 53.85 276.27 53.31 276.24 52.75 276.24 51.99 276.02 51.32 275.58 50.75 275.14 50.18 274.41 49.7 273.38 49.31 273.06 49.19 272.54 49.03 271.82 48.83 271.1 48.63 270.18 48.4 269.05 48.13 267.92 47.85 266.97 47.59 266.19 47.34 265.41 47.09 264.8 46.84 264.35 46.6 263.18 45.99 262.31 45.24 261.74 44.34 261.17 43.44 260.89 42.43 260.89 41.3 260.89 40.07 261.24 38.93 261.94 37.86 262.64 36.78 263.65 35.96 264.99 35.42 266.35 34.87 267.84 34.59 269.46 34.59 271.26 34.59 272.85 34.88 274.23 35.46 275.61 36.04 276.67 36.9 277.41 38.03 278.15 39.16 278.55 40.44 278.61 41.86L275.52 42.09C275.35 40.55 274.79 39.39 273.83 38.6 272.87 37.81 271.46 37.42 269.59 37.42 267.72 37.42 266.23 37.78 265.32 38.5 264.43 39.22 263.99 40.08 263.99 41.07 263.99 41.94 264.31 42.66 264.94 43.23 265.55 43.79 267.16 44.38 269.79 44.97 272.4 45.55 274.2 46.06 275.19 46.51 276.62 47.17 277.67 48 278.34 49 279.01 50 279.34 51.15 279.34 52.45 279.34 53.75 278.97 54.98 278.23 56.12 277.49 57.25 276.42 58.14 275.03 58.79 273.65 59.42 272.09 59.74 270.35 59.74 268.14 59.74 266.29 59.42 264.81 58.78 263.33 58.14 262.16 57.18 261.3 55.88 260.47 54.61 260.03 53.15 259.97 51.5L263.01 51.23Z" fill="#FFFFFF"/><path d="M288.49 59.37 288.49 37.9 280.47 37.9 280.47 35.03 299.76 35.03 299.76 37.9 291.71 37.9 291.71 59.37 288.49 59.37Z" fill="#FFFFFF"/><path d="M302.68 59.37 302.68 35.03 320.28 35.03 320.28 37.9 305.9 37.9 305.9 45.35 319.36 45.35 319.36 48.21 305.9 48.21 305.9 56.49 320.84 56.49 320.84 59.36 302.68 59.36Z" fill="#FFFFFF"/><path d="M323.9 59.37 323.9 35.03 334.69 35.03C336.87 35.03 338.52 35.25 339.64 35.69 340.77 36.12 341.67 36.89 342.35 38 343.02 39.11 343.36 40.33 343.36 41.67 343.36 43.4 342.8 44.85 341.68 46.04 340.55 47.24 338.82 47.99 336.5 48.3 337.36 48.72 338.01 49.12 338.44 49.51 338.92 49.94 339.37 50.43 339.82 50.96 340.26 51.5 340.69 52.09 341.11 52.75L345.34 59.37 341.29 59.37 338.07 54.31C337.36 53.19 336.75 52.29 336.24 51.6 335.73 50.91 335.27 50.37 334.87 49.97 334.47 49.57 334.09 49.28 333.74 49.1 333.39 48.92 333.02 48.78 332.64 48.68 332.3 48.6 331.7 48.56 330.85 48.56L327.11 48.56 327.11 59.37 323.89 59.37ZM327.12 45.77 334.04 45.77C334.77 45.77 335.42 45.73 335.99 45.66 336.56 45.59 337.06 45.47 337.49 45.31 337.92 45.15 338.29 44.95 338.59 44.71 338.89 44.47 339.16 44.19 339.38 43.86 339.81 43.19 340.03 42.45 340.03 41.67 340.03 40.52 339.61 39.57 338.77 38.83 337.95 38.09 336.63 37.72 334.82 37.72L327.12 37.72 327.12 45.77Z" fill="#FFFFFF"/><path d="M162.52 95.37 162.52 71.03 165.74 71.03 165.74 95.37 162.52 95.37Z" fill="#FFFFFF"/><path d="M169.28 95.37 169.28 77.74 171.97 77.74 171.97 80.25C173.26 78.31 175.14 77.34 177.58 77.34 178.63 77.34 179.61 77.53 180.5 77.92 181.38 78.3 182.05 78.79 182.51 79.41 182.73 79.72 182.92 80.06 183.07 80.43 183.22 80.8 183.35 81.2 183.44 81.62 183.49 81.9 183.54 82.28 183.56 82.76 183.58 83.24 183.6 83.83 183.6 84.53L183.6 95.37 180.61 95.37 180.61 84.65C180.61 83.43 180.49 82.53 180.26 81.93 180.03 81.32 179.61 80.84 179.01 80.49 178.42 80.12 177.73 79.94 176.93 79.94 175.65 79.94 174.54 80.34 173.63 81.15 172.71 81.97 172.25 83.5 172.25 85.75L172.25 95.38 169.26 95.38Z" fill="#FFFFFF"/><path d="M187.98 89.64C188.15 90.84 188.6 91.75 189.36 92.37 190.11 93 191.18 93.31 192.55 93.31 193.92 93.31 194.93 93.03 195.6 92.48 196.26 91.92 196.6 91.26 196.6 90.5 196.6 89.83 196.31 89.29 195.72 88.91 195.31 88.66 194.29 88.32 192.67 87.9 190.49 87.36 188.97 86.88 188.1 86.47 187.26 86.06 186.62 85.5 186.17 84.79 185.74 84.08 185.52 83.29 185.52 82.42 185.52 81.62 185.7 80.89 186.05 80.23 186.4 79.57 186.9 79.01 187.53 78.57 187.76 78.4 188.04 78.25 188.36 78.1 188.68 77.95 189.03 77.82 189.42 77.71 189.81 77.6 190.22 77.51 190.66 77.44 191.1 77.37 191.55 77.34 192.01 77.34 193.4 77.34 194.62 77.54 195.66 77.93 196.7 78.32 197.47 78.87 197.97 79.57 198.48 80.27 198.82 81.17 199 82.29L196.08 82.69C195.95 81.78 195.57 81.07 194.93 80.57 194.29 80.07 193.4 79.81 192.22 79.81 190.85 79.81 189.87 80.04 189.28 80.49 188.69 80.94 188.4 81.48 188.4 82.08 188.4 82.47 188.52 82.82 188.77 83.13 189.01 83.45 189.39 83.72 189.92 83.93 190.08 83.99 190.37 84.08 190.81 84.2 191.25 84.33 191.83 84.49 192.56 84.69 194.68 85.25 196.16 85.72 196.98 86.08 197.8 86.42 198.46 86.94 198.96 87.64 199.44 88.31 199.67 89.17 199.67 90.2 199.67 91.23 199.38 92.14 198.79 93.02 198.2 93.9 197.37 94.59 196.28 95.06 195.19 95.53 193.96 95.77 192.56 95.77 190.27 95.77 188.52 95.29 187.32 94.34 186.12 93.39 185.35 91.98 185.02 90.11L187.98 89.65Z" fill="#FFFFFF"/><path d="M208.68 95.33C207.86 95.51 207.11 95.6 206.42 95.6 205.34 95.6 204.49 95.43 203.9 95.09 203.31 94.75 202.88 94.3 202.64 93.75 202.4 93.2 202.27 92.02 202.27 90.21L202.27 80.07 200.08 80.07 200.08 77.75 202.27 77.75 202.27 73.38 205.24 71.59 205.24 77.75 208.24 77.75 208.24 80.07 205.24 80.07 205.24 90.38C205.24 91.23 205.29 91.78 205.39 92.02 205.5 92.26 205.67 92.46 205.9 92.6 206.14 92.74 206.49 92.82 206.93 92.82 207.1 92.82 207.29 92.82 207.5 92.79 207.71 92.76 207.96 92.74 208.24 92.7L208.67 95.34Z" fill="#FFFFFF"/><path d="M222.46 93.19C221.34 94.14 220.27 94.81 219.26 95.18 218.23 95.57 217.14 95.76 215.97 95.76 214.03 95.76 212.54 95.29 211.5 94.35 210.46 93.41 209.94 92.2 209.94 90.71 209.94 90.05 210.05 89.44 210.28 88.88 210.51 88.32 210.81 87.83 211.2 87.4 211.59 86.97 212.04 86.6 212.56 86.3 213.08 86 213.63 85.78 214.22 85.64 214.8 85.5 215.68 85.35 216.88 85.19 219.26 84.91 221.04 84.57 222.21 84.16 222.22 83.95 222.23 83.78 222.23 83.65L222.23 83.38C222.23 82.16 221.95 81.3 221.38 80.81 220.63 80.14 219.49 79.8 217.98 79.8 216.57 79.8 215.53 80.05 214.86 80.55 214.2 81.04 213.7 81.91 213.38 83.16L210.46 82.76C210.73 81.51 211.16 80.5 211.77 79.73 212.38 78.96 213.26 78.37 214.41 77.96 215.57 77.54 216.91 77.33 218.41 77.33 219.91 77.33 221.14 77.51 222.08 77.86 223.02 78.21 223.71 78.66 224.16 79.2 224.59 79.71 224.9 80.38 225.09 81.23 225.19 81.75 225.24 82.67 225.24 83.99L225.24 87.97C225.24 89.36 225.26 90.5 225.29 91.37 225.32 92.24 225.37 92.87 225.42 93.25 225.55 93.99 225.81 94.69 226.18 95.36L223.06 95.36C222.75 94.75 222.55 94.03 222.46 93.19ZM222.21 86.52C221.67 86.74 220.99 86.95 220.18 87.13 219.37 87.32 218.42 87.49 217.32 87.64 216.1 87.82 215.23 88.02 214.71 88.24 214.21 88.45 213.82 88.78 213.53 89.22 213.25 89.63 213.11 90.1 213.11 90.63 213.11 91.03 213.18 91.4 213.33 91.74 213.48 92.08 213.7 92.38 214 92.63 214.3 92.88 214.67 93.07 215.11 93.21 215.55 93.35 216.07 93.42 216.65 93.42 217.23 93.42 217.77 93.35 218.29 93.22 218.81 93.09 219.29 92.9 219.72 92.66 220.15 92.42 220.54 92.12 220.87 91.77 221.2 91.42 221.48 91.03 221.69 90.6 222.01 89.9 222.17 88.91 222.17 87.61L222.17 86.51Z" fill="#FFFFFF"/><path d="M230.99 97.26C231.1 98.14 231.44 98.8 232 99.22 232.75 99.77 233.77 100.05 235.04 100.05 236.42 100.05 237.49 99.77 238.24 99.22 238.99 98.67 239.5 97.89 239.77 96.9 239.85 96.59 239.91 96.12 239.94 95.48 239.98 94.84 239.99 94.04 239.98 93.06 238.67 94.6 237.05 95.37 235.1 95.37 232.68 95.37 230.8 94.5 229.47 92.75 228.14 91.01 227.48 88.92 227.48 86.46 227.48 84.76 227.78 83.21 228.39 81.81 229 80.39 229.88 79.29 231.03 78.51 232.18 77.74 233.54 77.35 235.11 77.35 237.19 77.35 238.91 78.19 240.26 79.87L240.26 77.75 243.02 77.75 243.02 92.99C243.02 95.73 242.74 97.68 242.17 98.82 241.63 99.96 240.74 100.87 239.51 101.54 238.29 102.2 236.8 102.54 235.04 102.54 232.95 102.54 231.25 102.06 229.94 101.11 228.65 100.16 228.02 98.74 228.06 96.84L230.97 97.27ZM230.56 86.24C230.56 88.54 231.02 90.23 231.94 91.3 232.85 92.36 234 92.89 235.39 92.89 236.78 92.89 237.91 92.36 238.84 91.31 239.77 90.25 240.23 88.59 240.23 86.33 240.23 84.07 239.75 82.54 238.79 81.45 237.84 80.35 236.69 79.81 235.34 79.81 233.99 79.81 232.88 80.35 231.95 81.44 231.02 82.53 230.56 84.12 230.56 86.24Z" fill="#FFFFFF"/><path d="M246.33 95.37 246.33 77.74 249.02 77.74 249.02 80.41C249.71 79.16 250.34 78.33 250.91 77.94 251.49 77.54 252.13 77.34 252.84 77.34 253.85 77.34 254.87 77.66 255.91 78.3L254.88 81.07C254.15 80.64 253.42 80.42 252.69 80.42 252.03 80.42 251.44 80.62 250.92 81.01 250.41 81.4 250.04 81.95 249.82 82.65 249.49 83.71 249.32 84.87 249.32 86.14L249.32 95.37 246.33 95.37Z" fill="#FFFFFF"/><path d="M270.18 93.19C269.06 94.14 267.99 94.81 266.98 95.18 265.95 95.57 264.86 95.76 263.69 95.76 261.75 95.76 260.26 95.29 259.22 94.35 258.18 93.41 257.66 92.2 257.66 90.71 257.66 90.05 257.77 89.44 258 88.88 258.23 88.33 258.53 87.83 258.92 87.4 259.31 86.97 259.76 86.6 260.28 86.3 260.8 86 261.35 85.78 261.94 85.64 262.52 85.5 263.4 85.35 264.6 85.19 266.98 84.91 268.76 84.57 269.93 84.16 269.94 83.95 269.95 83.78 269.95 83.65L269.95 83.38C269.95 82.16 269.67 81.3 269.1 80.81 268.35 80.14 267.21 79.8 265.7 79.8 264.29 79.8 263.25 80.05 262.58 80.55 261.92 81.04 261.42 81.91 261.1 83.16L258.18 82.76C258.45 81.51 258.88 80.5 259.49 79.73 260.1 78.96 260.98 78.37 262.13 77.96 263.29 77.54 264.63 77.33 266.13 77.33 267.63 77.33 268.86 77.51 269.8 77.86 270.74 78.21 271.43 78.66 271.88 79.2 272.31 79.71 272.62 80.38 272.81 81.23 272.91 81.75 272.96 82.67 272.96 83.99L272.96 87.97C272.96 89.36 272.98 90.5 273.01 91.37 273.04 92.24 273.09 92.87 273.14 93.25 273.27 93.99 273.53 94.69 273.9 95.36L270.78 95.36C270.47 94.75 270.27 94.03 270.18 93.19ZM269.93 86.52C269.39 86.74 268.71 86.95 267.9 87.13 267.09 87.31 266.14 87.49 265.04 87.64 263.82 87.82 262.95 88.02 262.43 88.24 261.93 88.45 261.54 88.78 261.25 89.22 260.97 89.63 260.83 90.1 260.83 90.63 260.83 91.03 260.91 91.4 261.05 91.74 261.19 92.08 261.42 92.38 261.72 92.63 262.02 92.88 262.39 93.07 262.83 93.21 263.27 93.35 263.79 93.42 264.37 93.42 264.95 93.42 265.49 93.35 266.01 93.22 266.53 93.09 267.01 92.9 267.44 92.66 267.87 92.42 268.26 92.12 268.59 91.77 268.93 91.42 269.2 91.03 269.41 90.6 269.73 89.9 269.89 88.91 269.89 87.61L269.89 86.51Z" fill="#FFFFFF"/><path d="M276.35 95.37 276.35 77.74 279.02 77.74 279.02 80.21C279.58 79.35 280.32 78.65 281.24 78.13 282.15 77.6 283.2 77.34 284.37 77.34 285.68 77.34 286.75 77.61 287.58 78.15 288.41 78.69 289 79.45 289.35 80.42 290.74 78.36 292.56 77.33 294.8 77.33 296.56 77.33 297.91 77.81 298.84 78.77 299.77 79.73 300.24 81.23 300.24 83.25L300.24 95.35 297.27 95.35 297.27 84.24C297.27 83.04 297.17 82.19 296.97 81.67 296.78 81.13 296.43 80.7 295.92 80.39 295.4 80.07 294.8 79.91 294.13 79.91 292.88 79.91 291.85 80.33 291.04 81.16 290.22 81.98 289.81 83.3 289.81 85.11L289.81 95.35 286.82 95.35 286.82 83.89C286.82 82.55 286.58 81.55 286.09 80.89 285.6 80.23 284.81 79.9 283.7 79.9 282.85 79.9 282.07 80.12 281.36 80.56 280.64 81.01 280.13 81.66 279.82 82.5 279.5 83.36 279.34 84.59 279.34 86.19L279.34 95.34 276.35 95.34Z" fill="#FFFFFF"/></g></svg>