<svg viewBox="0 0 388.15 124.12" xmlns="http://www.w3.org/2000/svg" xmlns:xlink="http://www.w3.org/1999/xlink" id="Layer_1" overflow="hidden"><defs><linearGradient x1="55.11" y1="-44.59" x2="216.96" y2="122.9" gradientUnits="userSpaceOnUse" id="linear-gradient"><stop offset="0" stop-color="#FFFFFF"/><stop offset="0.14" stop-color="#FAD8C0"/><stop offset="0.39" stop-color="#F2934F"/><stop offset="0.51" stop-color="#EF7823"/></linearGradient></defs><rect x="0" y="7.65" rx="54.66" ry="54.66" width="383.42" height="116.47" fill="#231F20" opacity="0.56"/><rect x="3.73" y="1" rx="54.66" ry="54.66" width="383.42" height="116.47" stroke="#9A2B20" stroke-width="2" stroke-miterlimit="10" fill="#EF7823"/><path d="M274.2 4.71C220.56 7.71 82.35 13.35 54.11 42.82 35.98 61.75 32.63 84.1 38.05 109.53 18.29 101.06 12.01 84.58 9.46 77.06 6.49 68.3 1.64 31.48 28.35 14.06 42.84 4.61 53.06 5.24 53.06 5.24 53.06 5.24 229.56 4.71 274.21 4.71Z" fill="url(#linear-gradient)" opacity="0.78"/><g><path d="M83.45 59.71C83.5 59.98 83.57 60.29 83.67 60.64 83.77 60.99 83.91 61.34 84.09 61.69 84.27 62.04 84.5 62.37 84.79 62.69 85.08 63.01 85.42 63.26 85.83 63.47 86.02 63.57 86.22 63.65 86.45 63.7 86.68 63.75 86.92 63.8 87.18 63.82L87.31 63.82C87.52 63.82 87.71 63.86 87.88 63.93 88.06 64 88.21 64.11 88.34 64.24 88.47 64.37 88.57 64.52 88.65 64.7 88.72 64.87 88.76 65.06 88.76 65.26 88.76 65.46 88.72 65.65 88.65 65.82 88.58 65.99 88.47 66.14 88.34 66.28 88.21 66.41 88.05 66.51 87.88 66.59 87.7 66.66 87.51 66.7 87.31 66.7L87.15 66.7C85.24 66.6 83.72 65.84 82.59 64.4 82.01 65.46 81.24 66.08 80.28 66.25 80.07 66.34 79.76 66.34 79.34 66.25 78.92 66.16 78.43 66.03 77.88 65.84 77.33 65.65 76.75 65.44 76.13 65.19 75.51 64.94 74.9 64.69 74.31 64.45 73.72 64.21 73.16 63.99 72.63 63.79 72.1 63.59 71.67 63.46 71.32 63.38 71.32 63.41 71.32 63.44 71.31 63.48 71.31 63.51 71.3 63.55 71.3 63.57L71.84 77.28 68.92 77.41 68.36 63.85C68.36 63.79 68.36 63.66 68.37 63.45 68.37 63.24 68.42 62.99 68.5 62.72 68.58 62.44 68.7 62.15 68.86 61.85 69.02 61.55 69.26 61.29 69.57 61.05 69.7 60.95 69.85 60.86 70.03 60.76 70.21 60.67 70.42 60.59 70.65 60.54 70.88 60.49 71.14 60.46 71.43 60.47 71.72 60.48 72.04 60.53 72.39 60.63 72.56 60.17 72.75 59.7 72.96 59.21 73.17 58.72 73.42 58.24 73.69 57.77 73.96 57.3 74.26 56.86 74.59 56.44 74.92 56.03 75.28 55.66 75.67 55.35 76.06 55.04 76.48 54.79 76.94 54.62 77.4 54.45 77.88 54.36 78.41 54.37 79.19 54.42 79.88 54.59 80.48 54.89 81.08 55.19 81.58 55.58 82 56.06 82.42 56.54 82.74 57.1 82.98 57.72 83.22 58.34 83.38 59.01 83.47 59.71ZM75.1 61.64C75.72 61.88 76.23 62.09 76.63 62.26 77.04 62.43 77.4 62.58 77.73 62.7 78.06 62.82 78.37 62.93 78.68 63.04 78.99 63.14 79.35 63.25 79.77 63.35 79.89 63.27 80 63.12 80.11 62.88 80.22 62.64 80.31 62.38 80.4 62.1 80.48 61.81 80.55 61.52 80.6 61.23 80.65 60.94 80.67 60.7 80.67 60.51 80.67 59.98 80.59 59.52 80.43 59.11 80.27 58.7 80.07 58.36 79.84 58.09 79.61 57.82 79.35 57.61 79.08 57.47 78.81 57.33 78.56 57.26 78.33 57.26 78.06 57.26 77.76 57.37 77.44 57.62 77.12 57.87 76.82 58.2 76.52 58.62 76.22 59.03 75.95 59.51 75.7 60.03 75.45 60.55 75.25 61.09 75.11 61.64Z" fill="#FFFFFF"/><path d="M85.87 65.24C85.87 64.84 86.01 64.5 86.28 64.22 86.55 63.94 86.9 63.8 87.31 63.8L87.56 63.8C89.2 63.8 90.39 63.5 91.13 62.91 91.87 62.32 92.24 61.44 92.24 60.28 92.24 60.01 92.24 59.73 92.21 59.45 92.19 59.17 92.16 58.88 92.11 58.58 92.07 58.28 92.01 57.97 91.93 57.64 91.86 57.31 91.77 56.96 91.66 56.59L94.41 55.81C94.51 56.15 94.59 56.48 94.66 56.8 94.73 57.12 94.79 57.45 94.84 57.8 94.89 58.15 94.94 58.53 94.98 58.94 95.02 59.35 95.06 59.81 95.1 60.33 95.13 60.69 95.18 61.07 95.25 61.47 95.32 61.87 95.44 62.24 95.62 62.58 95.8 62.92 96.04 63.2 96.35 63.43 96.66 63.66 97.06 63.77 97.56 63.77 97.76 63.77 97.94 63.81 98.12 63.88 98.3 63.95 98.45 64.06 98.58 64.19 98.71 64.32 98.82 64.48 98.89 64.65 98.96 64.82 99.01 65.01 99.01 65.21 99.01 65.42 98.97 65.6 98.89 65.77 98.81 65.94 98.71 66.09 98.58 66.23 98.45 66.36 98.3 66.46 98.13 66.54 97.96 66.61 97.78 66.65 97.58 66.65 97.09 66.65 96.64 66.61 96.24 66.52 95.84 66.43 95.47 66.31 95.14 66.15 94.81 65.99 94.52 65.8 94.26 65.57 94 65.34 93.77 65.1 93.56 64.84 92.94 65.45 92.15 65.9 91.16 66.2 90.17 66.5 88.97 66.65 87.55 66.65L87.3 66.65C86.89 66.65 86.55 66.51 86.27 66.24 85.99 65.97 85.86 65.62 85.86 65.21ZM95.26 49.84 92.87 52.23 90.47 49.83 92.86 47.44 95.26 49.84Z" fill="#FFFFFF"/><path d="M96.04 65.24C96.04 64.83 96.18 64.49 96.45 64.21 96.72 63.93 97.07 63.79 97.48 63.79L98.59 63.79C99.41 63.79 100.2 63.74 100.95 63.64 101.7 63.54 102.36 63.36 102.93 63.1 103.5 62.84 103.95 62.48 104.28 62.02 104.61 61.57 104.76 60.98 104.73 60.27 104.71 59.72 104.66 59.16 104.59 58.57 104.52 57.98 104.37 57.32 104.16 56.56L106.9 55.78C106.99 56.12 107.07 56.48 107.15 56.86 107.23 57.24 107.3 57.62 107.36 58.01 107.42 58.4 107.47 58.79 107.51 59.19 107.55 59.58 107.59 59.97 107.61 60.35 107.63 60.71 107.67 61.09 107.74 61.49 107.81 61.89 107.93 62.26 108.11 62.6 108.29 62.94 108.53 63.22 108.84 63.45 109.15 63.68 109.55 63.79 110.05 63.79 110.46 63.79 110.81 63.93 111.09 64.2 111.37 64.47 111.51 64.82 111.51 65.23 111.51 65.44 111.47 65.62 111.39 65.79 111.31 65.96 111.21 66.11 111.08 66.25 110.95 66.38 110.8 66.48 110.63 66.56 110.46 66.63 110.28 66.67 110.08 66.67 109.09 66.67 108.28 66.49 107.63 66.14 106.99 65.78 106.46 65.34 106.05 64.8 105.7 65.14 105.24 65.43 104.69 65.67 104.13 65.91 103.52 66.1 102.85 66.25 102.18 66.4 101.48 66.5 100.75 66.57 100.02 66.64 99.3 66.67 98.6 66.67L97.49 66.67C97.08 66.67 96.74 66.53 96.46 66.26 96.18 65.99 96.05 65.64 96.05 65.23ZM102.13 72.24 99.76 74.61 97.36 72.22 99.73 69.83 102.13 72.23ZM108.14 72.25 105.77 74.64 103.37 72.24 105.74 69.87 108.14 72.26Z" fill="#FFFFFF"/><path d="M108.79 65.24C108.79 64.84 108.93 64.5 109.2 64.22 109.47 63.94 109.82 63.8 110.23 63.8L110.48 63.8C112.12 63.8 113.31 63.5 114.05 62.91 114.79 62.32 115.16 61.44 115.16 60.28 115.16 60.01 115.16 59.73 115.13 59.45 115.11 59.17 115.08 58.88 115.03 58.58 114.99 58.28 114.93 57.97 114.85 57.64 114.78 57.31 114.69 56.96 114.58 56.59L117.33 55.81C117.43 56.15 117.51 56.48 117.58 56.8 117.65 57.12 117.71 57.45 117.76 57.8 117.81 58.15 117.86 58.53 117.9 58.94 117.94 59.35 117.98 59.81 118.02 60.33 118.05 60.69 118.1 61.07 118.17 61.47 118.24 61.87 118.36 62.24 118.54 62.58 118.72 62.92 118.96 63.2 119.27 63.43 119.58 63.66 119.98 63.77 120.48 63.77 120.68 63.77 120.86 63.81 121.04 63.88 121.22 63.95 121.37 64.06 121.5 64.19 121.63 64.32 121.74 64.48 121.81 64.65 121.88 64.82 121.93 65.01 121.93 65.21 121.93 65.42 121.89 65.6 121.81 65.77 121.73 65.94 121.63 66.09 121.5 66.23 121.37 66.36 121.22 66.46 121.05 66.54 120.88 66.61 120.7 66.65 120.5 66.65 120.01 66.65 119.56 66.61 119.16 66.52 118.76 66.43 118.39 66.31 118.06 66.15 117.73 65.99 117.44 65.8 117.18 65.57 116.92 65.34 116.69 65.1 116.48 64.84 115.86 65.45 115.07 65.9 114.08 66.2 113.09 66.5 111.89 66.65 110.47 66.65L110.22 66.65C109.81 66.65 109.47 66.51 109.19 66.24 108.91 65.97 108.78 65.62 108.78 65.21ZM118.25 71.96 115.86 74.35 113.46 71.95 115.85 69.56 118.25 71.96Z" fill="#FFFFFF"/><path d="M119.15 65.24C119.15 64.83 119.29 64.49 119.56 64.21 119.83 63.93 120.18 63.79 120.59 63.79L121.7 63.79C122.52 63.79 123.31 63.74 124.06 63.64 124.81 63.54 125.47 63.36 126.04 63.1 126.61 62.84 127.06 62.48 127.39 62.02 127.72 61.57 127.87 60.98 127.84 60.27 127.82 59.72 127.77 59.16 127.7 58.57 127.63 57.98 127.48 57.32 127.27 56.56L130.01 55.78C130.1 56.12 130.18 56.48 130.26 56.86 130.34 57.24 130.41 57.62 130.47 58.01 130.53 58.4 130.58 58.79 130.62 59.19 130.66 59.58 130.7 59.97 130.72 60.35 130.74 60.71 130.78 61.09 130.85 61.49 130.92 61.89 131.04 62.26 131.22 62.6 131.4 62.94 131.64 63.22 131.95 63.45 132.26 63.68 132.66 63.79 133.16 63.79 133.57 63.79 133.92 63.93 134.2 64.2 134.48 64.47 134.62 64.82 134.62 65.23 134.62 65.44 134.58 65.62 134.5 65.79 134.42 65.96 134.32 66.11 134.19 66.25 134.06 66.38 133.91 66.48 133.74 66.56 133.57 66.63 133.39 66.67 133.19 66.67 132.2 66.67 131.39 66.49 130.74 66.14 130.1 65.78 129.57 65.34 129.16 64.8 128.81 65.14 128.35 65.43 127.8 65.67 127.24 65.91 126.63 66.1 125.96 66.25 125.29 66.4 124.59 66.5 123.86 66.57 123.13 66.64 122.41 66.67 121.71 66.67L120.6 66.67C120.19 66.67 119.85 66.53 119.57 66.26 119.29 65.99 119.16 65.64 119.16 65.23ZM125.24 72.24 122.87 74.61 120.47 72.22 122.84 69.83 125.24 72.23ZM131.25 72.25 128.88 74.64 126.48 72.24 128.85 69.87 131.25 72.26Z" fill="#FFFFFF"/><path d="M131.87 65.24C131.87 64.84 132.01 64.5 132.28 64.24 132.55 63.97 132.89 63.83 133.29 63.81L133.3 63.81C134.12 63.81 134.81 63.68 135.38 63.41 135.95 63.14 136.44 62.79 136.86 62.34 137.28 61.89 137.65 61.39 137.96 60.82 138.27 60.25 138.58 59.66 138.88 59.05 139.13 58.52 139.39 58.02 139.64 57.54 139.89 57.06 140.19 56.62 140.52 56.22 141.4 55.15 142.46 54.61 143.71 54.61 145.18 54.61 146.41 55.2 147.39 56.38 148.17 57.32 148.64 58.49 148.8 59.91 148.9 60.58 148.91 61.24 148.84 61.89 148.77 62.54 148.63 63.14 148.42 63.72 148.14 64.42 147.76 65 147.29 65.46 146.82 65.92 146.28 66.22 145.66 66.39 144.57 66.68 143.33 66.55 141.95 65.99 141 65.62 140.01 65.05 138.98 64.29 138.91 64.36 138.86 64.4 138.83 64.42 137.37 65.92 135.53 66.68 133.29 66.68L133.28 66.68C132.88 66.68 132.54 66.54 132.27 66.26 132 65.98 131.86 65.64 131.86 65.24ZM140.67 61.91C141.56 62.56 142.37 63.04 143.1 63.33 143.83 63.62 144.44 63.7 144.93 63.56 145.1 63.52 145.26 63.41 145.41 63.22 145.56 63.03 145.7 62.8 145.81 62.5 145.92 62.2 146 61.87 146.04 61.49 146.08 61.11 146.08 60.7 146.02 60.26 146.02 60.19 145.99 60.07 145.95 59.91 145.91 59.75 145.85 59.56 145.78 59.35 145.71 59.14 145.61 58.93 145.49 58.71 145.37 58.49 145.23 58.29 145.07 58.11 144.9 57.93 144.71 57.78 144.48 57.66 144.25 57.54 144 57.48 143.7 57.48 143.5 57.48 143.32 57.54 143.15 57.65 142.98 57.76 142.81 57.94 142.64 58.17 142.47 58.4 142.29 58.7 142.1 59.05 141.91 59.4 141.69 59.82 141.45 60.3L140.66 61.9Z" fill="#FFFFFF"/><path d="M156.47 74.14C157.97 73.84 159.32 73.42 160.51 72.88 161.7 72.34 162.72 71.74 163.57 71.06 164.42 70.38 165.09 69.67 165.58 68.91 166.07 68.15 166.37 67.41 166.48 66.68 166.07 66.68 165.58 66.69 165.02 66.68 164.46 66.68 163.91 66.65 163.37 66.6 161.25 66.46 159.68 65.77 158.67 64.52 158.22 63.95 157.94 63.3 157.81 62.56 157.68 61.82 157.68 61.06 157.8 60.28 157.91 59.5 158.12 58.75 158.42 58.02 158.72 57.29 159.08 56.66 159.49 56.14 159.98 55.52 160.52 55.06 161.1 54.74 161.69 54.42 162.29 54.26 162.92 54.26 164.31 54.26 165.58 54.88 166.74 56.14 167.24 56.69 167.68 57.32 168.05 58.04 168.43 58.76 168.73 59.53 168.97 60.35 169.21 61.17 169.36 62.02 169.45 62.91 169.54 63.8 169.53 64.69 169.45 65.58 169.34 66.65 169.1 67.66 168.73 68.59 168.36 69.52 167.89 70.38 167.31 71.18 166.73 71.98 166.07 72.69 165.31 73.33 164.55 73.97 163.74 74.54 162.86 75.02 161.99 75.5 161.07 75.91 160.1 76.23 159.13 76.56 158.15 76.8 157.14 76.96L156.47 74.13ZM162.93 57.16C162.65 57.16 162.38 57.27 162.12 57.49 161.87 57.71 161.64 57.99 161.44 58.33 161.24 58.67 161.07 59.06 160.93 59.48 160.79 59.91 160.7 60.33 160.64 60.74 160.59 61.16 160.58 61.54 160.64 61.9 160.69 62.26 160.8 62.54 160.96 62.74 161.11 62.94 161.29 63.09 161.52 63.22 161.74 63.34 161.98 63.44 162.22 63.51 162.46 63.58 162.71 63.64 162.95 63.67 163.19 63.71 163.4 63.73 163.57 63.74 164.19 63.78 164.75 63.79 165.26 63.78 165.77 63.77 166.22 63.75 166.6 63.72 166.57 63.1 166.5 62.52 166.38 61.96 166.26 61.4 166.11 60.88 165.93 60.4 165.75 59.92 165.54 59.49 165.31 59.1 165.08 58.72 164.84 58.38 164.59 58.1 164.49 58 164.38 57.9 164.26 57.78 164.14 57.67 164.01 57.57 163.86 57.47 163.72 57.38 163.57 57.3 163.41 57.24 163.25 57.18 163.09 57.15 162.92 57.15Z" fill="#FFFFFF"/><path d="M176.87 57.16C177.14 58.07 177.4 58.97 177.65 59.86 177.75 60.24 177.85 60.64 177.96 61.05 178.07 61.46 178.17 61.87 178.26 62.28 178.35 62.69 178.43 63.09 178.5 63.47 178.57 63.86 178.62 64.22 178.66 64.55 178.66 64.66 178.68 64.78 178.69 64.92 178.7 65.06 178.7 65.21 178.7 65.37 178.7 66.22 178.58 67.04 178.33 67.85 178.08 68.66 177.73 69.42 177.29 70.16 176.85 70.9 176.32 71.6 175.71 72.28 175.1 72.96 174.44 73.59 173.72 74.18 173 74.77 172.25 75.32 171.45 75.83 170.65 76.34 169.85 76.79 169.03 77.19L167.76 74.61C168.79 74.1 169.78 73.51 170.75 72.85 171.72 72.18 172.58 71.45 173.34 70.66 174.1 69.87 174.7 69.03 175.16 68.14 175.62 67.25 175.85 66.33 175.85 65.39 175.85 65.34 175.85 65.26 175.84 65.15 175.84 65.04 175.82 64.93 175.81 64.82L175.81 64.82C175.78 64.53 175.73 64.2 175.66 63.85 175.59 63.49 175.51 63.13 175.43 62.75 175.34 62.37 175.25 62 175.15 61.62 175.05 61.24 174.95 60.88 174.86 60.53 174.63 59.71 174.38 58.89 174.11 58.07L176.89 57.19Z" fill="#FFFFFF"/><path d="M194.63 66.68C193.56 66.68 192.64 66.55 191.87 66.3 191.1 66.05 190.46 65.66 189.93 65.13 189.61 64.81 189.36 64.46 189.19 64.09 189.02 63.72 188.89 63.35 188.81 62.99 188.73 62.63 188.68 62.28 188.67 61.96 188.67 61.63 188.66 61.35 188.66 61.12L188.66 60.84C188.66 60.84 188.66 60.65 188.67 60.3 188.67 59.95 188.69 59.49 188.69 58.89 188.69 58.3 188.69 57.62 188.69 56.85 188.69 56.08 188.69 55.26 188.68 54.4 188.68 53.56 188.68 52.69 188.65 51.78 188.62 50.87 188.6 49.99 188.56 49.14 188.52 48.29 188.47 47.51 188.4 46.79 188.33 46.07 188.25 45.48 188.17 45.03L191.04 44.5C191.13 45 191.21 45.61 191.27 46.33 191.33 47.05 191.39 47.84 191.44 48.69 191.49 49.54 191.52 50.43 191.54 51.35 191.56 52.27 191.57 53.17 191.57 54.05 191.57 54.91 191.58 55.73 191.58 56.53L191.58 58.64C191.58 59.26 191.58 59.76 191.58 60.16 191.58 60.56 191.58 60.8 191.58 60.88L191.58 61.14C191.58 61.57 191.58 61.95 191.62 62.28 191.66 62.61 191.79 62.88 192.02 63.09 192.46 63.55 193.29 63.78 194.51 63.79L194.64 63.79C194.84 63.79 195.02 63.83 195.2 63.91 195.38 63.99 195.53 64.09 195.66 64.22 195.79 64.35 195.9 64.51 195.97 64.68 196.04 64.85 196.09 65.04 196.09 65.24 196.09 65.65 195.95 65.99 195.67 66.27 195.39 66.55 195.05 66.68 194.64 66.68Z" fill="#FFFFFF"/><path d="M193.07 65.23C193.07 65.03 193.11 64.85 193.19 64.68 193.27 64.51 193.38 64.36 193.51 64.22 193.65 64.09 193.81 63.99 193.99 63.91 194.17 63.84 194.36 63.8 194.57 63.8L194.7 63.8C195.29 63.8 195.8 63.8 196.25 63.79 196.7 63.78 197.1 63.77 197.46 63.75 197.82 63.73 198.15 63.71 198.45 63.68 198.75 63.65 199.04 63.62 199.32 63.58 198.59 62.79 198.04 62.01 197.67 61.24 197.3 60.47 197.12 59.73 197.12 59.02 197.12 58.53 197.19 58.02 197.32 57.48 197.45 56.94 197.66 56.42 197.94 55.91 198.22 55.41 198.57 54.94 198.99 54.5 199.41 54.07 199.91 53.71 200.5 53.42L199.34 52.97 200.73 50.33 205.83 52.42C206.74 52.82 207.61 53.22 208.46 53.62 209.31 54.02 210.09 54.42 210.8 54.82 211.51 55.22 212.15 55.63 212.7 56.04 213.25 56.45 213.67 56.86 213.97 57.27 214.87 58.51 215.32 59.78 215.32 61.08 215.32 62.04 215.07 62.93 214.56 63.77 214.05 64.6 213.29 65.3 212.26 65.84L212.27 65.84C212 65.99 211.67 66.13 211.3 66.24 210.93 66.35 210.54 66.44 210.14 66.51 209.74 66.58 209.33 66.63 208.92 66.66 208.51 66.69 208.13 66.71 207.79 66.71 206.93 66.71 206.1 66.65 205.29 66.52 204.48 66.39 203.67 66.16 202.84 65.83 202.32 65.99 201.74 66.12 201.09 66.23 200.44 66.34 199.76 66.42 199.05 66.49 198.34 66.55 197.61 66.6 196.87 66.63 196.13 66.66 195.41 66.67 194.72 66.67L194.59 66.67C194.38 66.67 194.19 66.63 194.01 66.56 193.83 66.49 193.67 66.38 193.53 66.25 193.39 66.12 193.29 65.96 193.21 65.79 193.13 65.62 193.09 65.42 193.09 65.22ZM205.59 58.2C205.59 57.91 205.57 57.6 205.52 57.27 205.48 56.94 205.38 56.63 205.24 56.33 205.1 56.03 204.9 55.77 204.64 55.54 204.38 55.31 204.04 55.15 203.62 55.06 203.08 54.95 202.59 55 202.14 55.21 201.69 55.42 201.3 55.71 200.98 56.1 200.66 56.49 200.4 56.91 200.21 57.39 200.02 57.87 199.93 58.33 199.93 58.77 199.93 59.18 200 59.57 200.15 59.94 200.3 60.31 200.49 60.66 200.74 60.99 200.99 61.32 201.28 61.62 201.61 61.91 201.94 62.2 202.29 62.46 202.66 62.71 203.16 62.49 203.59 62.2 203.96 61.86 204.33 61.52 204.63 61.15 204.87 60.74 205.11 60.34 205.29 59.91 205.4 59.47 205.51 59.03 205.58 58.61 205.58 58.2ZM208.59 58.32C208.59 58.73 208.53 59.17 208.41 59.65 208.29 60.13 208.13 60.61 207.92 61.09 207.71 61.57 207.45 62.05 207.15 62.52 206.85 62.99 206.51 63.42 206.14 63.81 206.45 63.86 206.71 63.89 206.92 63.9 207.13 63.91 207.32 63.91 207.49 63.91L208.19 63.91C208.93 63.91 209.58 63.83 210.13 63.67 210.68 63.51 211.14 63.29 211.49 63.02 211.84 62.75 212.11 62.43 212.29 62.06 212.47 61.69 212.55 61.31 212.55 60.91 212.55 60.57 212.46 60.2 212.29 59.8 212.12 59.4 211.85 59 211.51 58.59 211.16 58.18 210.73 57.79 210.21 57.4 209.69 57.01 209.09 56.65 208.39 56.33 208.5 56.7 208.56 57.05 208.57 57.38 208.58 57.71 208.58 58.02 208.58 58.32Z" fill="#FFFFFF"/><path d="M238.41 59.71C238.46 59.98 238.53 60.29 238.63 60.64 238.73 60.99 238.87 61.34 239.05 61.69 239.23 62.04 239.46 62.37 239.75 62.69 240.04 63.01 240.38 63.26 240.79 63.47 240.98 63.57 241.18 63.65 241.41 63.7 241.64 63.75 241.88 63.8 242.14 63.82L242.27 63.82C242.48 63.82 242.67 63.86 242.84 63.93 243.02 64 243.17 64.11 243.3 64.24 243.43 64.37 243.53 64.52 243.61 64.7 243.68 64.87 243.72 65.06 243.72 65.26 243.72 65.46 243.68 65.65 243.61 65.82 243.54 65.99 243.43 66.14 243.3 66.28 243.17 66.41 243.01 66.51 242.84 66.59 242.66 66.66 242.47 66.7 242.27 66.7L242.11 66.7C240.2 66.6 238.68 65.84 237.55 64.4 236.97 65.46 236.2 66.08 235.24 66.25 235.03 66.34 234.72 66.34 234.3 66.25 233.88 66.16 233.39 66.03 232.84 65.84 232.29 65.65 231.71 65.44 231.09 65.19 230.47 64.94 229.86 64.69 229.27 64.45 228.68 64.21 228.12 63.99 227.59 63.79 227.06 63.59 226.63 63.46 226.28 63.38 226.28 63.41 226.28 63.44 226.27 63.48 226.27 63.51 226.26 63.55 226.26 63.57L226.8 77.28 223.88 77.41 223.32 63.85C223.32 63.79 223.32 63.66 223.33 63.45 223.33 63.24 223.38 62.99 223.46 62.72 223.54 62.44 223.66 62.15 223.82 61.85 223.98 61.55 224.22 61.29 224.53 61.05 224.66 60.95 224.81 60.86 224.99 60.76 225.17 60.67 225.38 60.59 225.61 60.54 225.84 60.49 226.1 60.46 226.39 60.47 226.68 60.48 227 60.53 227.35 60.63 227.52 60.17 227.71 59.7 227.92 59.21 228.13 58.72 228.38 58.24 228.65 57.77 228.92 57.3 229.22 56.86 229.55 56.44 229.88 56.03 230.24 55.66 230.63 55.35 231.02 55.04 231.44 54.79 231.9 54.62 232.36 54.45 232.84 54.36 233.37 54.37 234.15 54.42 234.84 54.59 235.44 54.89 236.04 55.19 236.54 55.58 236.96 56.06 237.38 56.54 237.7 57.1 237.94 57.72 238.18 58.34 238.34 59.01 238.43 59.71ZM230.06 61.64C230.68 61.88 231.19 62.09 231.59 62.26 232 62.43 232.36 62.58 232.69 62.7 233.02 62.82 233.33 62.93 233.64 63.04 233.95 63.14 234.31 63.25 234.73 63.35 234.85 63.27 234.96 63.12 235.07 62.88 235.18 62.64 235.27 62.38 235.36 62.1 235.44 61.81 235.51 61.52 235.56 61.23 235.61 60.94 235.63 60.7 235.63 60.51 235.63 59.98 235.55 59.52 235.39 59.11 235.23 58.7 235.03 58.36 234.8 58.09 234.57 57.82 234.31 57.61 234.04 57.47 233.77 57.33 233.52 57.26 233.29 57.26 233.02 57.26 232.72 57.37 232.4 57.62 232.08 57.87 231.78 58.2 231.48 58.62 231.18 59.03 230.91 59.51 230.66 60.03 230.41 60.55 230.21 61.09 230.07 61.64Z" fill="#FFFFFF"/><path d="M240.66 65.24C240.66 64.83 240.8 64.49 241.07 64.21 241.34 63.93 241.69 63.79 242.1 63.79L243.21 63.79C244.03 63.79 244.82 63.74 245.57 63.64 246.32 63.54 246.98 63.36 247.55 63.1 248.12 62.84 248.57 62.48 248.9 62.02 249.23 61.57 249.38 60.98 249.35 60.27 249.33 59.72 249.28 59.16 249.21 58.57 249.14 57.98 248.99 57.32 248.78 56.56L251.52 55.78C251.61 56.12 251.69 56.48 251.77 56.86 251.85 57.24 251.92 57.62 251.98 58.01 252.04 58.4 252.09 58.79 252.13 59.19 252.17 59.58 252.21 59.97 252.23 60.35 252.25 60.71 252.29 61.09 252.36 61.49 252.43 61.89 252.55 62.26 252.73 62.6 252.91 62.94 253.15 63.22 253.46 63.45 253.77 63.68 254.17 63.79 254.67 63.79 255.08 63.79 255.43 63.93 255.71 64.2 255.99 64.47 256.13 64.82 256.13 65.23 256.13 65.44 256.09 65.62 256.01 65.79 255.93 65.96 255.83 66.11 255.7 66.25 255.57 66.38 255.42 66.48 255.25 66.56 255.08 66.63 254.9 66.67 254.7 66.67 253.71 66.67 252.9 66.49 252.25 66.14 251.61 65.78 251.08 65.34 250.67 64.8 250.32 65.14 249.86 65.43 249.31 65.67 248.75 65.91 248.14 66.1 247.47 66.25 246.8 66.4 246.1 66.5 245.37 66.57 244.64 66.64 243.92 66.67 243.22 66.67L242.11 66.67C241.7 66.67 241.36 66.53 241.08 66.26 240.8 65.99 240.67 65.64 240.67 65.23ZM246.75 72.24 244.38 74.61 241.98 72.22 244.35 69.83 246.75 72.23ZM252.76 72.25 250.39 74.64 247.99 72.24 250.36 69.87 252.76 72.26Z" fill="#FFFFFF"/><path d="M253.28 65.26C253.28 64.85 253.43 64.51 253.72 64.23 254.01 63.95 254.39 63.81 254.86 63.81L256.4 63.81C256.99 63.81 257.6 63.81 258.23 63.79 258.86 63.78 259.47 63.72 260.05 63.61 260.63 63.51 261.16 63.35 261.63 63.13 262.1 62.91 262.48 62.59 262.75 62.18 263.07 61.69 263.26 61.16 263.31 60.58 263.36 60 263.31 59.38 263.13 58.7 263.02 58.3 262.76 57.79 262.33 57.17 261.91 56.55 261.38 55.88 260.76 55.18 260.14 54.47 259.44 53.75 258.67 53 257.9 52.25 257.11 51.56 256.31 50.92L256.65 47.92 268.69 42.76 269.82 45.43 259.33 49.84C259.81 50.25 260.33 50.71 260.9 51.22 261.47 51.73 262.03 52.29 262.58 52.9 263.32 53.72 263.93 54.5 264.41 55.25 264.89 56 265.26 56.71 265.52 57.38 265.78 58.05 265.96 58.69 266.05 59.29 266.14 59.89 266.16 60.46 266.11 60.98 266.06 61.5 265.96 62 265.81 62.44 265.66 62.88 265.48 63.3 265.28 63.67 264.41 65.21 262.94 66.17 260.87 66.56 260.5 66.63 260.07 66.66 259.6 66.66L254.87 66.66C254.4 66.66 254.02 66.52 253.73 66.25 253.44 65.98 253.29 65.64 253.29 65.24ZM268.19 40.9 256.41 45.88 256.51 44 267.5 39.42 268.19 40.9Z" fill="#FFFFFF"/><path d="M279.8 64.63C277.28 64.63 275.53 64.02 274.54 62.8 274.27 62.47 274.07 62.11 273.96 61.74 273.85 61.36 273.78 61 273.77 60.63 273.76 60.26 273.77 59.93 273.84 59.62 273.91 59.31 273.97 59.05 274.06 58.84 274.32 58.29 274.64 57.79 275 57.33 275.36 56.87 275.76 56.46 276.17 56.09 276.59 55.72 277.01 55.4 277.46 55.11 277.9 54.82 278.33 54.57 278.75 54.36 279.17 54.15 279.56 53.96 279.93 53.8 280.3 53.64 280.62 53.52 280.9 53.42 280.82 52.68 280.77 52.13 280.73 51.79 280.7 51.44 280.68 51.26 280.68 51.25L283.55 50.65 283.55 50.65C283.55 50.72 283.58 50.9 283.61 51.18 283.64 51.46 283.67 51.78 283.71 52.15 283.75 52.53 283.79 52.93 283.83 53.35 283.87 53.78 283.92 54.17 283.95 54.54 283.98 54.91 284.02 55.23 284.05 55.51 284.08 55.79 284.1 55.95 284.11 56.02 284.26 57.28 284.39 58.31 284.52 59.11 284.65 59.91 284.76 60.55 284.86 61.02 284.96 61.49 285.04 61.83 285.1 62.04 285.16 62.25 285.21 62.38 285.24 62.44 285.36 62.7 285.49 62.92 285.64 63.1 285.79 63.28 285.97 63.42 286.17 63.52 286.38 63.62 286.61 63.7 286.87 63.74 287.13 63.78 287.44 63.81 287.78 63.81 288.18 63.81 288.52 63.95 288.81 64.22 289.1 64.49 289.23 64.84 289.23 65.25 289.23 65.45 289.19 65.63 289.11 65.81 289.03 65.99 288.93 66.14 288.8 66.27 288.67 66.4 288.51 66.5 288.34 66.58 288.16 66.65 287.98 66.69 287.78 66.69 287.41 66.69 286.97 66.66 286.45 66.6 285.94 66.54 285.43 66.39 284.92 66.15 284.14 65.78 283.49 65.18 282.99 64.36 282.38 64.46 281.82 64.53 281.29 64.57 280.76 64.61 280.26 64.64 279.78 64.64ZM281.24 56.4C281.01 56.5 280.73 56.62 280.41 56.76 280.09 56.9 279.75 57.06 279.41 57.24 279.06 57.42 278.72 57.62 278.38 57.84 278.04 58.06 277.74 58.3 277.47 58.54 277.2 58.79 276.98 59.06 276.82 59.35 276.65 59.64 276.57 59.94 276.57 60.25 276.57 60.56 276.67 60.83 276.87 61.03 277.07 61.23 277.33 61.39 277.65 61.5 277.97 61.61 278.33 61.69 278.73 61.73 279.13 61.77 279.53 61.79 279.94 61.78 280.35 61.78 280.73 61.75 281.1 61.71 281.47 61.67 281.78 61.63 282.03 61.58 281.91 61.01 281.79 60.32 281.67 59.5 281.55 58.68 281.41 57.64 281.25 56.39Z" fill="#FFFFFF"/><path d="M286.26 65.24C286.26 64.83 286.4 64.49 286.67 64.21 286.94 63.93 287.29 63.79 287.7 63.79L288.81 63.79C289.63 63.79 290.42 63.74 291.17 63.64 291.92 63.54 292.58 63.36 293.15 63.1 293.72 62.84 294.17 62.48 294.5 62.02 294.83 61.57 294.98 60.98 294.95 60.27 294.93 59.72 294.88 59.16 294.81 58.57 294.74 57.98 294.59 57.32 294.38 56.56L297.12 55.78C297.21 56.12 297.29 56.48 297.37 56.86 297.45 57.24 297.52 57.62 297.58 58.01 297.64 58.4 297.69 58.79 297.73 59.19 297.77 59.58 297.81 59.97 297.83 60.35 297.85 60.71 297.89 61.09 297.96 61.49 298.03 61.89 298.15 62.26 298.33 62.6 298.51 62.94 298.75 63.22 299.06 63.45 299.37 63.68 299.77 63.79 300.27 63.79 300.68 63.79 301.03 63.93 301.31 64.2 301.59 64.47 301.73 64.82 301.73 65.23 301.73 65.44 301.69 65.62 301.61 65.79 301.53 65.96 301.43 66.11 301.3 66.25 301.17 66.38 301.02 66.48 300.85 66.56 300.68 66.63 300.5 66.67 300.3 66.67 299.31 66.67 298.5 66.49 297.85 66.14 297.21 65.78 296.68 65.34 296.27 64.8 295.92 65.14 295.46 65.43 294.91 65.67 294.35 65.91 293.74 66.1 293.07 66.25 292.4 66.4 291.7 66.5 290.97 66.57 290.24 66.64 289.52 66.67 288.82 66.67L287.71 66.67C287.3 66.67 286.96 66.53 286.68 66.26 286.4 65.99 286.27 65.64 286.27 65.23ZM292.35 72.24 289.98 74.61 287.58 72.22 289.95 69.83 292.35 72.23ZM298.36 72.25 295.99 74.64 293.59 72.24 295.96 69.87 298.36 72.26Z" fill="#FFFFFF"/><path d="M298.95 65.24C298.95 65.03 298.99 64.84 299.06 64.67 299.13 64.5 299.24 64.34 299.37 64.22 299.5 64.1 299.65 63.99 299.82 63.92 299.99 63.85 300.18 63.81 300.38 63.81 300.72 63.81 301.09 63.81 301.49 63.8 301.89 63.79 302.27 63.78 302.65 63.76 303.03 63.74 303.39 63.72 303.74 63.69 304.09 63.66 304.38 63.63 304.63 63.6 303.36 62.49 302.73 61.23 302.73 59.82 302.73 58.91 302.87 58.05 303.15 57.23 303.43 56.41 303.83 55.67 304.36 55 304.89 54.33 305.49 53.82 306.17 53.45 306.85 53.08 307.54 52.92 308.26 52.95 309.13 52.99 309.89 53.19 310.55 53.57 311.21 53.95 311.75 54.42 312.18 55.01 312.61 55.6 312.93 56.26 313.14 57 313.35 57.74 313.43 58.49 313.4 59.26 313.37 60.03 313.21 60.78 312.93 61.52 312.65 62.26 312.25 62.91 311.72 63.49 312.01 63.55 312.34 63.6 312.69 63.64 313.04 63.68 313.4 63.72 313.77 63.75 314.14 63.78 314.51 63.8 314.88 63.82 315.25 63.84 315.6 63.84 315.92 63.84 316.33 63.84 316.67 63.98 316.95 64.25 317.23 64.52 317.37 64.87 317.37 65.28 317.37 65.49 317.33 65.67 317.26 65.84 317.19 66.01 317.08 66.16 316.95 66.3 316.82 66.43 316.66 66.53 316.49 66.61 316.31 66.68 316.12 66.72 315.92 66.72L315.79 66.72C315.49 66.72 315.16 66.72 314.81 66.71 314.46 66.7 314.1 66.68 313.74 66.66 313.38 66.63 313.03 66.61 312.69 66.58 312.35 66.55 312.04 66.51 311.75 66.46 311.16 66.36 310.6 66.25 310.06 66.12 309.52 65.99 308.99 65.85 308.47 65.68 308.01 65.86 307.48 66.01 306.87 66.13 306.26 66.25 305.62 66.36 304.92 66.45 304.22 66.54 303.5 66.6 302.75 66.65 302 66.69 301.25 66.72 300.51 66.72L300.39 66.72C299.98 66.72 299.64 66.58 299.36 66.31 299.08 66.04 298.95 65.69 298.95 65.28ZM307.52 47.21 305.15 49.58 302.75 47.19 305.12 44.8 307.52 47.2ZM308.22 55.82C307.96 55.82 307.67 55.92 307.36 56.11 307.05 56.3 306.77 56.57 306.5 56.92 306.24 57.27 306.02 57.68 305.85 58.17 305.68 58.66 305.59 59.21 305.59 59.81 305.59 60.27 305.81 60.72 306.24 61.17 306.67 61.61 307.3 62.02 308.11 62.39L308.34 62.49C308.92 62.24 309.36 61.89 309.66 61.46 309.96 61.02 310.16 60.56 310.26 60.07 310.36 59.58 310.37 59.08 310.29 58.58 310.21 58.08 310.07 57.62 309.87 57.22 309.67 56.81 309.42 56.48 309.13 56.22 308.84 55.96 308.53 55.83 308.21 55.83ZM313.52 47.22 311.15 49.61 308.75 47.21 311.12 44.84 313.52 47.23Z" fill="#FFFFFF"/><path d="M314.42 65.24C314.42 64.83 314.56 64.49 314.84 64.21 315.12 63.93 315.46 63.8 315.86 63.8L317.37 63.8C317.89 63.82 318.39 63.82 318.86 63.8 319.34 63.77 319.78 63.7 320.18 63.59 320.58 63.48 320.93 63.3 321.24 63.05 321.55 62.81 321.8 62.49 321.99 62.08 322.19 61.66 322.24 61.06 322.16 60.29 322.08 59.51 321.88 58.61 321.57 57.57 321.46 57.26 321.34 56.92 321.2 56.55 321.06 56.18 320.92 55.84 320.78 55.53 320.62 55.16 320.46 54.79 320.3 54.43L322.91 53.14C322.91 53.14 322.96 53.25 323.05 53.44 323.14 53.63 323.26 53.89 323.39 54.21 323.52 54.53 323.68 54.91 323.84 55.33 324.01 55.75 324.16 56.21 324.31 56.68 325.22 59.48 325.33 61.67 324.65 63.24 323.96 64.81 322.73 65.85 320.96 66.35 320.43 66.51 319.92 66.6 319.41 66.63 318.9 66.66 318.44 66.67 318 66.67L315.86 66.67C315.46 66.67 315.12 66.53 314.84 66.26 314.56 65.99 314.42 65.64 314.42 65.23ZM322.65 72.18 320.26 74.57 317.86 72.17 320.25 69.78 322.65 72.18Z" fill="#FFFFFF"/></g></svg>