<svg viewBox="0 0 372.86 130.72" xmlns="http://www.w3.org/2000/svg" xmlns:xlink="http://www.w3.org/1999/xlink" id="Layer_1" overflow="hidden"><defs></defs><path d="M11.6 21.96C9.08 21.96 7.33 21.35 6.34 20.13 6.07 19.8 5.87 19.44 5.76 19.07 5.65 18.7 5.58 18.33 5.57 17.96 5.56 17.59 5.57 17.26 5.64 16.95 5.71 16.64 5.77 16.38 5.86 16.17 6.12 15.62 6.44 15.12 6.8 14.66 7.16 14.2 7.56 13.79 7.97 13.42 8.38 13.05 8.81 12.73 9.26 12.44 9.71 12.15 10.13 11.9 10.55 11.69 10.97 11.48 11.36 11.29 11.73 11.13 12.1 10.97 12.42 10.85 12.7 10.75 12.62 10.01 12.57 9.46 12.53 9.12 12.49 8.78 12.48 8.6 12.48 8.59L15.35 7.99 15.35 7.99C15.35 8.06 15.38 8.24 15.41 8.52 15.44 8.8 15.47 9.12 15.51 9.49 15.55 9.86 15.59 10.27 15.63 10.69 15.67 11.11 15.72 11.51 15.75 11.88 15.78 12.25 15.82 12.57 15.85 12.85 15.88 13.13 15.9 13.29 15.91 13.36 16.06 14.62 16.19 15.65 16.32 16.45 16.45 17.25 16.56 17.89 16.66 18.36 16.76 18.83 16.84 19.17 16.9 19.38 16.96 19.59 17.01 19.72 17.04 19.78 17.16 20.04 17.29 20.26 17.44 20.44 17.59 20.62 17.77 20.75 17.97 20.86 18.17 20.97 18.41 21.04 18.67 21.08 18.93 21.12 19.24 21.15 19.58 21.15 19.98 21.15 20.32 21.29 20.61 21.56 20.9 21.83 21.03 22.18 21.03 22.59 21.03 22.79 20.99 22.97 20.91 23.15 20.83 23.33 20.73 23.48 20.6 23.61 20.47 23.74 20.31 23.84 20.14 23.92 19.97 24 19.78 24.03 19.58 24.03 19.21 24.03 18.77 24 18.25 23.93 17.73 23.86 17.23 23.72 16.72 23.48 15.94 23.11 15.29 22.51 14.79 21.69 14.18 21.79 13.62 21.86 13.09 21.9 12.56 21.94 12.06 21.97 11.58 21.97ZM13.04 13.73C12.81 13.83 12.53 13.95 12.21 14.09 11.89 14.23 11.55 14.39 11.21 14.57 10.87 14.75 10.52 14.95 10.18 15.17 9.84 15.39 9.54 15.62 9.27 15.87 9 16.12 8.78 16.39 8.62 16.68 8.46 16.97 8.37 17.27 8.37 17.58 8.37 17.89 8.47 18.16 8.67 18.36 8.87 18.56 9.13 18.72 9.45 18.83 9.77 18.94 10.13 19.02 10.53 19.06 10.93 19.1 11.33 19.12 11.74 19.11 12.15 19.1 12.53 19.08 12.9 19.04 13.27 19 13.58 18.96 13.83 18.91 13.71 18.34 13.59 17.65 13.47 16.83 13.35 16.01 13.21 14.97 13.05 13.72Z" fill="#FFFDFD"/><path d="M18.22 22.57C18.22 22.17 18.36 21.83 18.63 21.55 18.9 21.27 19.25 21.13 19.66 21.13L19.91 21.13C21.55 21.13 22.74 20.83 23.48 20.24 24.22 19.65 24.59 18.77 24.59 17.61 24.59 17.34 24.59 17.06 24.56 16.78 24.53 16.5 24.51 16.21 24.46 15.92 24.41 15.63 24.36 15.31 24.28 14.98 24.2 14.65 24.12 14.3 24.01 13.93L26.76 13.15C26.86 13.49 26.94 13.82 27.01 14.14 27.08 14.46 27.14 14.79 27.19 15.14 27.24 15.49 27.29 15.87 27.33 16.28 27.37 16.69 27.41 17.15 27.45 17.67 27.48 18.03 27.53 18.41 27.6 18.81 27.67 19.21 27.79 19.58 27.97 19.92 28.15 20.26 28.39 20.54 28.7 20.77 29.01 21 29.41 21.11 29.91 21.11 30.11 21.11 30.29 21.15 30.47 21.22 30.65 21.29 30.8 21.4 30.93 21.53 31.06 21.66 31.17 21.82 31.24 21.99 31.31 22.16 31.36 22.35 31.36 22.55 31.36 22.76 31.32 22.94 31.24 23.11 31.16 23.28 31.06 23.43 30.93 23.56 30.8 23.69 30.65 23.79 30.48 23.87 30.31 23.95 30.13 23.98 29.93 23.98 29.44 23.98 28.99 23.94 28.59 23.85 28.19 23.76 27.82 23.64 27.49 23.48 27.16 23.32 26.87 23.13 26.61 22.9 26.35 22.67 26.12 22.43 25.91 22.17 25.29 22.78 24.5 23.23 23.51 23.53 22.52 23.83 21.32 23.98 19.9 23.98L19.65 23.98C19.24 23.98 18.9 23.84 18.62 23.57 18.34 23.3 18.21 22.95 18.21 22.54ZM27.68 29.29 25.29 31.68 22.89 29.28 25.28 26.89 27.68 29.29Z" fill="#FFFDFD"/><path d="M28.74 22.57C28.74 22.17 28.88 21.83 29.15 21.55 29.42 21.27 29.77 21.13 30.18 21.13L30.43 21.13C32.07 21.13 33.26 20.83 34 20.24 34.74 19.65 35.11 18.77 35.11 17.61 35.11 17.34 35.11 17.06 35.08 16.78 35.05 16.5 35.03 16.21 34.98 15.92 34.93 15.63 34.88 15.31 34.8 14.98 34.72 14.65 34.64 14.3 34.53 13.93L37.28 13.15C37.38 13.49 37.46 13.82 37.53 14.14 37.6 14.46 37.66 14.79 37.71 15.14 37.76 15.49 37.81 15.87 37.85 16.28 37.89 16.69 37.93 17.15 37.97 17.67 38 18.03 38.05 18.41 38.12 18.81 38.19 19.21 38.31 19.58 38.49 19.92 38.67 20.26 38.91 20.54 39.22 20.77 39.53 21 39.93 21.11 40.43 21.11 40.63 21.11 40.81 21.15 40.99 21.22 41.17 21.29 41.32 21.4 41.45 21.53 41.58 21.66 41.69 21.82 41.76 21.99 41.83 22.16 41.88 22.35 41.88 22.55 41.88 22.76 41.84 22.94 41.76 23.11 41.68 23.28 41.58 23.43 41.45 23.56 41.32 23.69 41.17 23.79 41 23.87 40.83 23.95 40.65 23.98 40.45 23.98 39.96 23.98 39.51 23.94 39.11 23.85 38.71 23.76 38.34 23.64 38.01 23.48 37.68 23.32 37.39 23.13 37.13 22.9 36.87 22.67 36.64 22.43 36.43 22.17 35.81 22.78 35.02 23.23 34.03 23.53 33.04 23.83 31.84 23.98 30.42 23.98L30.17 23.98C29.76 23.98 29.42 23.84 29.14 23.57 28.86 23.3 28.73 22.95 28.73 22.54ZM38.13 7.17 35.74 9.56 33.34 7.16 35.73 4.77 38.13 7.17Z" fill="#FFFDFD"/><path d="M39.1 22.59C39.1 22.4 39.13 22.23 39.2 22.05 39.27 21.87 39.36 21.73 39.49 21.6 39.62 21.47 39.76 21.36 39.92 21.29 40.08 21.22 40.26 21.16 40.45 21.14 41.03 21.14 41.55 21.03 42.01 20.8 42.47 20.57 42.88 20.27 43.24 19.9 43.6 19.53 43.91 19.09 44.18 18.6 44.45 18.11 44.69 17.6 44.88 17.07 45.07 16.54 45.24 16 45.37 15.46 45.5 14.92 45.62 14.41 45.71 13.93L48.61 14.55C48.53 14.78 48.44 15.09 48.32 15.46 48.2 15.83 48.1 16.23 47.99 16.65 47.88 17.07 47.79 17.51 47.71 17.95 47.63 18.39 47.59 18.81 47.59 19.19 47.59 19.45 47.61 19.71 47.66 19.96 47.71 20.21 47.79 20.43 47.91 20.63 48.03 20.83 48.19 20.98 48.39 21.1 48.59 21.22 48.85 21.28 49.17 21.28 49.67 21.28 50.11 21.14 50.51 20.87 50.91 20.6 51.26 20.24 51.56 19.8 51.86 19.36 52.13 18.86 52.36 18.31 52.59 17.76 52.78 17.19 52.94 16.61 53.1 16.03 53.24 15.47 53.34 14.93 53.44 14.39 53.53 13.92 53.59 13.52L56.4 14.03C56.29 14.66 56.2 15.21 56.13 15.66 56.06 16.11 55.99 16.6 55.93 17.11 55.87 17.62 55.84 18.08 55.84 18.48 55.84 18.84 55.87 19.19 55.92 19.51 55.97 19.83 56.06 20.13 56.18 20.37 56.3 20.61 56.46 20.82 56.66 20.99 56.86 21.16 57.11 21.25 57.4 21.28 57.85 21.34 58.22 21.33 58.52 21.27 58.82 21.21 59.05 21.11 59.23 21 59.41 20.89 59.54 20.77 59.62 20.64 59.7 20.51 59.76 20.42 59.79 20.36L59.78 20.36C59.92 20.15 60.01 19.9 60.07 19.63 60.13 19.36 60.15 19.06 60.15 18.75 60.15 18.19 60.07 17.59 59.92 16.95 59.77 16.31 59.59 15.67 59.38 15.05 59.17 14.43 58.95 13.85 58.72 13.32 58.49 12.79 58.3 12.37 58.14 12.05L60.7 10.7C60.75 10.8 60.84 10.99 60.98 11.26 61.12 11.53 61.27 11.88 61.45 12.29 61.63 12.7 61.81 13.15 62 13.66 62.19 14.17 62.36 14.7 62.52 15.26 62.68 15.82 62.81 16.4 62.91 16.98 63.01 17.56 63.06 18.14 63.06 18.69 63.06 19.53 62.94 20.29 62.71 20.97 62.48 21.65 62.12 22.23 61.66 22.71 61.2 23.19 60.6 23.56 59.89 23.82 59.18 24.08 58.35 24.2 57.41 24.19 57.03 24.19 56.65 24.13 56.28 24.01 55.91 23.89 55.55 23.73 55.21 23.53 54.87 23.33 54.55 23.1 54.26 22.83 53.97 22.56 53.72 22.27 53.51 21.96 52.92 22.64 52.26 23.19 51.52 23.59 50.78 23.99 49.99 24.19 49.16 24.19 48.8 24.19 48.43 24.14 48.04 24.05 47.65 23.96 47.29 23.82 46.93 23.63 46.57 23.44 46.26 23.21 45.97 22.94 45.68 22.67 45.46 22.35 45.3 21.99 44.71 22.61 44.05 23.09 43.31 23.45 42.57 23.81 41.68 24 40.64 24.02L40.41 24.02C40.22 24.02 40.05 23.97 39.88 23.89 39.71 23.81 39.57 23.71 39.45 23.58 39.33 23.45 39.23 23.3 39.16 23.13 39.09 22.96 39.06 22.78 39.06 22.58ZM48.29 6.58 50.66 4.19 53.06 6.59 50.69 8.98 48.29 6.58ZM51.82 2.17 53.99 0 56.17 2.18 54 4.35 51.82 2.17ZM54.72 6.59 57.09 4.22 59.49 6.62 57.12 8.99 54.72 6.59Z" fill="#FFFDFD"/><path d="M64.52 31.46C66.02 31.16 67.37 30.74 68.56 30.2 69.75 29.66 70.77 29.06 71.62 28.38 72.47 27.7 73.14 26.99 73.63 26.23 74.12 25.47 74.42 24.73 74.53 24 74.12 24 73.63 24.01 73.07 24 72.51 23.99 71.96 23.97 71.42 23.92 69.3 23.78 67.73 23.09 66.72 21.84 66.27 21.27 65.99 20.62 65.86 19.88 65.73 19.14 65.73 18.38 65.85 17.6 65.97 16.82 66.17 16.07 66.47 15.34 66.77 14.61 67.13 13.99 67.54 13.46 68.03 12.84 68.57 12.38 69.15 12.06 69.73 11.74 70.34 11.58 70.97 11.58 72.36 11.58 73.63 12.2 74.79 13.46 75.29 14.01 75.73 14.64 76.1 15.36 76.47 16.08 76.78 16.85 77.02 17.67 77.26 18.49 77.41 19.34 77.5 20.23 77.59 21.12 77.58 22.01 77.5 22.9 77.39 23.97 77.15 24.98 76.78 25.91 76.41 26.84 75.94 27.7 75.36 28.5 74.78 29.3 74.12 30.01 73.36 30.65 72.6 31.29 71.79 31.86 70.91 32.34 70.03 32.82 69.12 33.23 68.15 33.56 67.18 33.89 66.2 34.13 65.19 34.29L64.52 31.46ZM70.98 14.48C70.7 14.48 70.43 14.59 70.17 14.81 69.91 15.03 69.69 15.31 69.49 15.65 69.29 15.99 69.12 16.37 68.98 16.8 68.84 17.23 68.75 17.64 68.69 18.06 68.63 18.48 68.63 18.86 68.69 19.22 68.75 19.58 68.85 19.86 69.01 20.06 69.16 20.26 69.34 20.41 69.57 20.54 69.8 20.67 70.03 20.76 70.27 20.83 70.51 20.9 70.76 20.96 71 20.99 71.24 21.02 71.45 21.05 71.62 21.06 72.24 21.1 72.8 21.11 73.31 21.1 73.82 21.09 74.27 21.07 74.65 21.04 74.62 20.42 74.55 19.84 74.43 19.27 74.31 18.7 74.16 18.19 73.98 17.71 73.8 17.23 73.59 16.8 73.36 16.41 73.13 16.02 72.89 15.69 72.64 15.41 72.54 15.31 72.43 15.21 72.31 15.09 72.19 14.97 72.06 14.88 71.91 14.78 71.76 14.68 71.62 14.61 71.46 14.55 71.3 14.49 71.14 14.46 70.97 14.46Z" fill="#FFFDFD"/><path d="M85.67 23.99C85.2 23.99 84.65 23.93 84.01 23.81 83.37 23.69 82.73 23.54 82.1 23.36 81.47 23.18 80.88 22.98 80.36 22.75 79.84 22.52 79.45 22.3 79.2 22.08L80.4 19.33C80.76 19.56 81.2 19.79 81.7 20.01 82.2 20.23 82.75 20.42 83.33 20.58 83.91 20.74 84.5 20.86 85.11 20.94 85.72 21.02 86.31 21.03 86.88 20.98 87.45 20.93 87.97 20.81 88.46 20.61 88.95 20.41 89.36 20.12 89.69 19.72 89.95 19.42 89.99 18.85 89.79 18.02 89.68 17.54 89.51 17.04 89.27 16.52 89.03 16 88.74 15.48 88.41 14.95 88.08 14.42 87.7 13.92 87.29 13.42 86.88 12.92 86.45 12.46 86.01 12.04 85.57 11.62 85.11 11.24 84.66 10.91 84.21 10.58 83.75 10.31 83.31 10.12L84.5 7.45C85.08 7.71 85.66 8.06 86.24 8.48 86.82 8.9 87.39 9.37 87.95 9.9 88.51 10.43 89.03 11 89.53 11.61 90.03 12.22 90.49 12.85 90.9 13.5 91.31 14.15 91.67 14.8 91.97 15.46 92.27 16.12 92.5 16.75 92.64 17.38 92.76 17.93 92.82 18.42 92.82 18.86 92.82 19.3 92.78 19.69 92.7 20.03 92.62 20.37 92.51 20.67 92.37 20.92 92.23 21.17 92.09 21.39 91.93 21.58 91.03 22.66 89.78 23.38 88.17 23.73 87.8 23.83 87.41 23.9 87 23.94 86.59 23.98 86.16 24 85.7 24Z" fill="#FFFDFD"/><path d="M107.72 14.49C107.99 15.4 108.25 16.3 108.5 17.19 108.6 17.57 108.7 17.97 108.81 18.38 108.92 18.79 109.02 19.2 109.11 19.61 109.2 20.02 109.28 20.42 109.35 20.8 109.42 21.18 109.47 21.55 109.51 21.88 109.51 21.99 109.53 22.11 109.54 22.25 109.55 22.39 109.55 22.54 109.55 22.7 109.55 23.55 109.43 24.37 109.18 25.18 108.93 25.99 108.58 26.75 108.14 27.49 107.7 28.23 107.17 28.93 106.56 29.61 105.95 30.29 105.29 30.92 104.57 31.51 103.85 32.1 103.1 32.65 102.3 33.16 101.5 33.67 100.7 34.12 99.88 34.52L98.61 31.94C99.64 31.43 100.63 30.84 101.6 30.17 102.57 29.5 103.43 28.77 104.19 27.98 104.95 27.19 105.55 26.35 106.01 25.46 106.47 24.57 106.7 23.65 106.7 22.71 106.7 22.66 106.7 22.58 106.69 22.47 106.68 22.36 106.67 22.25 106.66 22.14L106.66 22.14C106.63 21.85 106.58 21.52 106.51 21.17 106.44 20.82 106.36 20.45 106.28 20.07 106.2 19.69 106.1 19.32 106 18.94 105.9 18.56 105.8 18.2 105.71 17.85 105.48 17.03 105.23 16.21 104.96 15.39L107.74 14.51ZM108.38 8.54 105.99 10.93 103.59 8.53 105.98 6.14 108.38 8.54Z" fill="#FFFDFD"/><path d="M111.26 31.46C112.76 31.16 114.11 30.74 115.3 30.2 116.49 29.66 117.51 29.06 118.36 28.38 119.21 27.7 119.88 26.99 120.37 26.23 120.86 25.47 121.16 24.73 121.27 24 120.86 24 120.37 24.01 119.81 24 119.25 23.99 118.7 23.97 118.16 23.92 116.04 23.78 114.47 23.09 113.46 21.84 113.01 21.27 112.73 20.62 112.6 19.88 112.47 19.14 112.47 18.38 112.59 17.6 112.71 16.82 112.91 16.07 113.21 15.34 113.51 14.61 113.87 13.99 114.28 13.46 114.77 12.84 115.31 12.38 115.89 12.06 116.47 11.74 117.08 11.58 117.71 11.58 119.1 11.58 120.37 12.2 121.53 13.46 122.03 14.01 122.47 14.64 122.84 15.36 123.21 16.08 123.52 16.85 123.76 17.67 124 18.49 124.15 19.34 124.24 20.23 124.33 21.12 124.32 22.01 124.24 22.9 124.13 23.97 123.89 24.98 123.52 25.91 123.15 26.84 122.68 27.7 122.1 28.5 121.52 29.3 120.86 30.01 120.1 30.65 119.34 31.29 118.53 31.86 117.65 32.34 116.77 32.82 115.86 33.23 114.89 33.56 113.92 33.89 112.94 34.13 111.93 34.29L111.26 31.46ZM117.72 14.48C117.44 14.48 117.17 14.59 116.91 14.81 116.65 15.03 116.43 15.31 116.23 15.65 116.03 15.99 115.86 16.37 115.72 16.8 115.58 17.23 115.49 17.64 115.43 18.06 115.37 18.48 115.37 18.86 115.43 19.22 115.49 19.58 115.59 19.86 115.75 20.06 115.9 20.26 116.08 20.41 116.31 20.54 116.54 20.67 116.77 20.76 117.01 20.83 117.25 20.9 117.5 20.96 117.74 20.99 117.98 21.02 118.19 21.05 118.36 21.06 118.98 21.1 119.54 21.11 120.05 21.1 120.56 21.09 121.01 21.07 121.39 21.04 121.36 20.42 121.29 19.84 121.17 19.27 121.05 18.7 120.9 18.19 120.72 17.71 120.54 17.23 120.33 16.8 120.1 16.41 119.87 16.02 119.63 15.69 119.38 15.41 119.28 15.31 119.17 15.21 119.05 15.09 118.93 14.97 118.8 14.88 118.65 14.78 118.5 14.68 118.36 14.61 118.2 14.55 118.04 14.49 117.88 14.46 117.71 14.46Z" fill="#FFFDFD"/><path d="M131.66 14.49C131.93 15.4 132.19 16.3 132.44 17.19 132.54 17.57 132.64 17.97 132.75 18.38 132.86 18.79 132.96 19.2 133.05 19.61 133.14 20.02 133.22 20.42 133.29 20.8 133.36 21.18 133.41 21.55 133.45 21.88 133.45 21.99 133.47 22.11 133.48 22.25 133.49 22.39 133.49 22.54 133.49 22.7 133.49 23.55 133.37 24.37 133.12 25.18 132.87 25.99 132.52 26.75 132.08 27.49 131.64 28.23 131.11 28.93 130.5 29.61 129.89 30.29 129.23 30.92 128.51 31.51 127.79 32.1 127.04 32.65 126.24 33.16 125.44 33.67 124.64 34.12 123.82 34.52L122.55 31.94C123.58 31.43 124.57 30.84 125.54 30.17 126.51 29.5 127.37 28.77 128.13 27.98 128.89 27.19 129.49 26.35 129.95 25.46 130.41 24.57 130.64 23.65 130.64 22.71 130.64 22.66 130.64 22.58 130.63 22.47 130.62 22.36 130.61 22.25 130.6 22.14L130.6 22.14C130.57 21.85 130.52 21.52 130.45 21.17 130.38 20.82 130.3 20.45 130.22 20.07 130.14 19.69 130.04 19.32 129.94 18.94 129.84 18.56 129.74 18.2 129.65 17.85 129.42 17.03 129.17 16.21 128.9 15.39L131.68 14.51Z" fill="#FFFDFD"/><path d="M148.78 14.49C149.05 15.4 149.31 16.3 149.56 17.19 149.66 17.57 149.76 17.97 149.87 18.38 149.98 18.79 150.08 19.2 150.17 19.61 150.26 20.02 150.34 20.42 150.41 20.8 150.48 21.18 150.53 21.55 150.57 21.88 150.57 21.99 150.59 22.11 150.6 22.25 150.61 22.39 150.61 22.54 150.61 22.7 150.61 23.55 150.49 24.37 150.24 25.18 149.99 25.99 149.64 26.75 149.2 27.49 148.76 28.23 148.23 28.93 147.62 29.61 147.01 30.29 146.35 30.92 145.63 31.51 144.91 32.1 144.16 32.65 143.36 33.16 142.56 33.67 141.76 34.12 140.94 34.52L139.67 31.94C140.7 31.43 141.69 30.84 142.66 30.17 143.63 29.5 144.49 28.77 145.25 27.98 146.01 27.19 146.61 26.35 147.07 25.46 147.53 24.57 147.76 23.65 147.76 22.71 147.76 22.66 147.76 22.58 147.75 22.47 147.74 22.36 147.73 22.25 147.72 22.14L147.72 22.14C147.69 21.85 147.64 21.52 147.57 21.17 147.5 20.82 147.42 20.45 147.34 20.07 147.26 19.69 147.16 19.32 147.06 18.94 146.96 18.56 146.86 18.2 146.77 17.85 146.54 17.03 146.29 16.21 146.02 15.39L148.8 14.51Z" fill="#FFFDFD"/><path d="M158.85 23.99C158.38 23.99 157.83 23.93 157.19 23.81 156.55 23.69 155.91 23.54 155.28 23.36 154.65 23.18 154.06 22.98 153.54 22.75 153.02 22.52 152.63 22.3 152.38 22.08L153.58 19.33C153.94 19.56 154.38 19.79 154.88 20.01 155.38 20.23 155.93 20.42 156.51 20.58 157.09 20.74 157.68 20.86 158.29 20.94 158.9 21.02 159.49 21.03 160.06 20.98 160.63 20.93 161.15 20.81 161.64 20.61 162.13 20.41 162.54 20.12 162.87 19.72 163.13 19.42 163.17 18.85 162.97 18.02 162.86 17.54 162.69 17.04 162.45 16.52 162.21 16 161.92 15.48 161.59 14.95 161.26 14.42 160.88 13.92 160.47 13.42 160.06 12.92 159.63 12.46 159.19 12.04 158.75 11.62 158.29 11.24 157.84 10.91 157.39 10.58 156.93 10.31 156.49 10.12L157.68 7.45C158.26 7.71 158.84 8.06 159.42 8.48 160 8.9 160.57 9.37 161.13 9.9 161.69 10.43 162.21 11 162.71 11.61 163.21 12.22 163.67 12.85 164.08 13.5 164.49 14.15 164.85 14.8 165.15 15.46 165.45 16.12 165.68 16.75 165.82 17.38 165.94 17.93 166 18.42 166 18.86 166 19.3 165.96 19.69 165.88 20.03 165.8 20.37 165.69 20.67 165.55 20.92 165.41 21.17 165.27 21.39 165.11 21.58 164.21 22.66 162.96 23.38 161.35 23.73 160.98 23.83 160.59 23.9 160.18 23.94 159.77 23.98 159.34 24 158.88 24Z" fill="#FFFDFD"/><path d="M182.84 24.01C181.77 24.01 180.85 23.88 180.08 23.63 179.31 23.38 178.67 22.99 178.14 22.46 177.82 22.14 177.57 21.79 177.4 21.42 177.23 21.05 177.1 20.68 177.02 20.32 176.94 19.96 176.89 19.61 176.88 19.29 176.87 18.97 176.87 18.68 176.87 18.45L176.87 18.17C176.87 18.17 176.87 17.98 176.88 17.63 176.89 17.28 176.9 16.81 176.9 16.22 176.9 15.63 176.9 14.95 176.9 14.18 176.9 13.41 176.9 12.59 176.89 11.73 176.89 10.89 176.89 10.02 176.86 9.11 176.83 8.2 176.81 7.32 176.77 6.47 176.73 5.62 176.68 4.84 176.61 4.12 176.54 3.4 176.46 2.81 176.38 2.36L179.25 1.83C179.34 2.33 179.42 2.94 179.48 3.66 179.54 4.38 179.6 5.17 179.65 6.02 179.7 6.87 179.73 7.76 179.75 8.68 179.77 9.6 179.78 10.5 179.78 11.38 179.78 12.24 179.79 13.06 179.79 13.86L179.79 15.97C179.79 16.59 179.79 17.09 179.79 17.49 179.79 17.89 179.79 18.13 179.79 18.21L179.79 18.47C179.79 18.9 179.79 19.28 179.83 19.6 179.87 19.92 180 20.2 180.23 20.41 180.67 20.87 181.5 21.1 182.72 21.11L182.85 21.11C183.05 21.11 183.23 21.15 183.41 21.23 183.59 21.31 183.74 21.41 183.87 21.54 184 21.67 184.11 21.83 184.18 22 184.25 22.17 184.3 22.36 184.3 22.56 184.3 22.97 184.16 23.31 183.88 23.59 183.6 23.87 183.26 24 182.85 24Z" fill="#FFFDFD"/><path d="M181.29 22.56C181.29 22.36 181.33 22.18 181.41 22.01 181.49 21.84 181.6 21.69 181.73 21.56 181.86 21.43 182.03 21.33 182.21 21.25 182.39 21.17 182.58 21.14 182.79 21.14L182.92 21.14C183.51 21.14 184.02 21.14 184.47 21.13 184.92 21.12 185.32 21.11 185.68 21.09 186.04 21.07 186.37 21.05 186.67 21.02 186.97 20.99 187.26 20.96 187.54 20.92 186.81 20.13 186.26 19.35 185.89 18.58 185.52 17.81 185.34 17.07 185.34 16.36 185.34 15.87 185.41 15.36 185.54 14.81 185.67 14.26 185.88 13.75 186.16 13.24 186.44 12.73 186.79 12.27 187.21 11.83 187.63 11.39 188.13 11.04 188.72 10.75L187.56 10.3 188.95 7.66 194.05 9.75C194.96 10.15 195.83 10.55 196.68 10.95 197.53 11.35 198.31 11.75 199.02 12.15 199.73 12.55 200.37 12.96 200.92 13.37 201.47 13.78 201.89 14.19 202.19 14.6 203.09 15.84 203.54 17.11 203.54 18.41 203.54 19.37 203.29 20.26 202.78 21.1 202.27 21.94 201.51 22.63 200.48 23.17L200.49 23.17C200.22 23.32 199.89 23.46 199.52 23.57 199.15 23.68 198.76 23.77 198.36 23.84 197.96 23.91 197.55 23.96 197.14 23.99 196.73 24.02 196.35 24.04 196.01 24.04 195.15 24.04 194.32 23.98 193.51 23.85 192.7 23.72 191.89 23.49 191.06 23.16 190.54 23.32 189.96 23.45 189.31 23.56 188.66 23.67 187.98 23.75 187.27 23.82 186.56 23.89 185.83 23.93 185.09 23.96 184.35 23.99 183.63 24 182.94 24L182.81 24C182.6 24 182.41 23.96 182.23 23.89 182.05 23.82 181.89 23.71 181.75 23.58 181.61 23.45 181.51 23.29 181.43 23.12 181.35 22.95 181.31 22.75 181.31 22.55ZM193.81 15.53C193.81 15.24 193.79 14.93 193.74 14.6 193.69 14.27 193.6 13.96 193.46 13.66 193.32 13.36 193.12 13.1 192.86 12.87 192.6 12.64 192.26 12.48 191.84 12.39 191.3 12.28 190.81 12.33 190.36 12.54 189.91 12.75 189.52 13.05 189.2 13.43 188.88 13.81 188.62 14.24 188.43 14.72 188.24 15.2 188.15 15.66 188.15 16.1 188.15 16.51 188.22 16.9 188.37 17.27 188.52 17.64 188.71 17.99 188.96 18.32 189.21 18.65 189.5 18.95 189.83 19.24 190.16 19.53 190.51 19.79 190.88 20.04 191.38 19.82 191.81 19.53 192.18 19.19 192.55 18.85 192.85 18.47 193.09 18.07 193.33 17.67 193.51 17.24 193.62 16.8 193.73 16.36 193.8 15.94 193.8 15.53ZM196.81 15.65C196.81 16.06 196.75 16.5 196.63 16.98 196.51 17.46 196.35 17.94 196.14 18.42 195.93 18.9 195.67 19.38 195.37 19.85 195.07 20.32 194.73 20.75 194.36 21.14 194.67 21.19 194.93 21.22 195.14 21.23 195.35 21.24 195.54 21.24 195.71 21.24L196.41 21.24C197.15 21.24 197.8 21.16 198.35 21 198.9 20.84 199.36 20.62 199.71 20.35 200.06 20.08 200.33 19.76 200.51 19.39 200.69 19.02 200.77 18.64 200.77 18.24 200.77 17.9 200.68 17.53 200.51 17.13 200.34 16.73 200.07 16.33 199.73 15.92 199.39 15.51 198.95 15.12 198.43 14.73 197.91 14.34 197.31 13.98 196.61 13.66 196.72 14.03 196.78 14.38 196.79 14.71 196.8 15.04 196.8 15.35 196.8 15.65Z" fill="#FFFDFD"/><path d="M218.5 24.01C218.5 24.01 218.33 24.01 218.14 24 217.95 23.99 217.71 23.96 217.43 23.92 217.15 23.88 216.83 23.81 216.47 23.71 216.11 23.61 215.75 23.48 215.39 23.31 214.46 22.88 213.76 22.29 213.27 21.55 212.78 20.81 212.54 19.93 212.54 18.93 212.54 17.17 213.34 15.33 214.93 13.41 215.25 13.03 215.56 12.69 215.86 12.38 216.16 12.07 216.42 11.82 216.64 11.62 216.35 11.36 216.11 11.15 215.94 11 215.77 10.85 215.68 10.78 215.68 10.77L217.53 8.53C217.53 8.53 217.64 8.64 217.84 8.81 218.04 8.98 218.3 9.21 218.61 9.5 218.92 9.79 219.28 10.14 219.68 10.53 220.08 10.92 220.49 11.36 220.91 11.83 222.1 13.19 222.99 14.46 223.58 15.65 224.17 16.84 224.47 17.93 224.47 18.94 224.47 19.95 224.25 20.82 223.8 21.56 223.35 22.3 222.7 22.88 221.84 23.3 221.53 23.46 221.21 23.58 220.89 23.67 220.57 23.76 220.26 23.84 219.97 23.89 219.68 23.94 219.4 23.98 219.14 23.99 218.88 24 218.66 24.01 218.49 24.01ZM218.68 13.7C218.4 13.95 218.07 14.28 217.69 14.67 217.31 15.06 216.96 15.49 216.63 15.96 216.3 16.43 216.02 16.92 215.79 17.43 215.56 17.94 215.45 18.44 215.45 18.93 215.45 19.08 215.46 19.23 215.49 19.38 215.52 19.53 215.57 19.69 215.65 19.84 215.73 19.99 215.85 20.14 216.01 20.29 216.17 20.44 216.38 20.57 216.64 20.69 216.83 20.78 217.02 20.85 217.21 20.9 217.4 20.95 217.59 21 217.75 21.02 217.91 21.04 218.07 21.07 218.2 21.08 218.33 21.09 218.44 21.09 218.51 21.09 218.6 21.09 218.72 21.09 218.88 21.09 219.04 21.09 219.22 21.07 219.41 21.05 219.6 21.03 219.8 20.99 220 20.93 220.2 20.87 220.39 20.81 220.58 20.72 220.94 20.52 221.2 20.29 221.36 20.01 221.52 19.73 221.6 19.37 221.6 18.93 221.6 18.3 221.36 17.53 220.87 16.64 220.38 15.75 219.67 14.79 218.75 13.75 218.75 13.75 218.73 13.73 218.73 13.72 218.73 13.71 218.71 13.7 218.69 13.69Z" fill="#FFFDFD"/><path d="M232.18 24.01C231.04 24.01 229.97 23.77 228.98 23.29 227.99 22.81 227.08 22.15 226.26 21.3L227.92 18.97C228.51 19.52 229.1 19.95 229.69 20.27 230.28 20.59 230.87 20.82 231.46 20.94 232.05 21.06 232.61 21.1 233.17 21.05 233.73 21 234.28 20.87 234.8 20.66 235.3 20.46 235.71 20.25 236.02 20.02 236.33 19.79 236.58 19.59 236.75 19.43L232.12 8.3 234.79 7.19C235.1 7.95 235.48 8.86 235.92 9.93 236.29 10.85 236.75 11.98 237.31 13.32 237.87 14.66 238.52 16.23 239.27 18.02 239.47 18.49 239.64 18.92 239.79 19.3 239.94 19.68 240.13 20.01 240.37 20.28 240.61 20.55 240.92 20.76 241.31 20.91 241.7 21.06 242.23 21.14 242.89 21.14 243.29 21.14 243.63 21.28 243.92 21.55 244.21 21.82 244.34 22.17 244.34 22.58 244.34 22.99 244.2 23.33 243.92 23.61 243.64 23.89 243.3 24.02 242.89 24.02 242.26 24.02 241.69 23.97 241.2 23.87 240.71 23.77 240.27 23.63 239.9 23.45 239.53 23.27 239.19 23.07 238.91 22.83 238.63 22.59 238.38 22.34 238.18 22.08 237.89 22.29 237.55 22.52 237.18 22.75 236.81 22.98 236.37 23.2 235.88 23.39 235.33 23.6 234.77 23.76 234.18 23.87 233.59 23.98 232.93 24.02 232.19 24.02Z" fill="#FFFDFD"/><path d="M241.35 22.57C241.35 22.16 241.49 21.82 241.77 21.54 242.05 21.26 242.39 21.13 242.79 21.13L244.3 21.13C244.82 21.15 245.32 21.15 245.79 21.13 246.26 21.11 246.71 21.04 247.11 20.92 247.51 20.8 247.86 20.62 248.17 20.38 248.48 20.14 248.73 19.82 248.92 19.41 249.12 18.99 249.17 18.39 249.09 17.62 249.01 16.85 248.81 15.94 248.5 14.9 248.39 14.59 248.27 14.25 248.13 13.88 247.99 13.51 247.85 13.17 247.71 12.86 247.55 12.49 247.39 12.12 247.23 11.76L249.84 10.47C249.84 10.47 249.89 10.58 249.98 10.77 250.07 10.96 250.19 11.22 250.32 11.54 250.45 11.86 250.61 12.24 250.77 12.66 250.93 13.08 251.09 13.54 251.24 14.02 252.15 16.82 252.26 19.01 251.58 20.58 250.89 22.15 249.66 23.19 247.89 23.69 247.36 23.85 246.85 23.94 246.34 23.97 245.83 24 245.37 24.01 244.93 24.01L242.79 24.01C242.39 24.01 242.05 23.87 241.77 23.6 241.49 23.33 241.35 22.98 241.35 22.57ZM250.11 5.72 247.72 8.11 245.32 5.71 247.71 3.32 250.11 5.72Z" fill="#FFFDFD"/><path d="M260.89 23C260.89 23.85 260.77 24.67 260.52 25.48 260.27 26.29 259.92 27.05 259.48 27.79 259.04 28.53 258.51 29.24 257.9 29.91 257.29 30.58 256.63 31.21 255.91 31.81 255.19 32.41 254.44 32.95 253.64 33.46 252.84 33.97 252.04 34.42 251.22 34.83L249.96 32.24C250.66 31.88 251.36 31.48 252.05 31.05 252.74 30.62 253.4 30.16 254.01 29.66 254.62 29.16 255.19 28.63 255.71 28.08 256.23 27.53 256.66 26.94 257.02 26.34 257.38 25.74 257.64 25.11 257.82 24.46 258 23.81 258.05 23.14 257.98 22.45L257.98 22.48C257.91 21.92 257.81 21.32 257.67 20.69 257.53 20.06 257.37 19.42 257.2 18.81 257.03 18.2 256.86 17.62 256.7 17.07 256.54 16.52 256.4 16.08 256.28 15.72L259.03 14.87C259.4 16 259.76 16.97 260.12 17.76 260.48 18.55 260.84 19.21 261.22 19.71 261.6 20.21 261.99 20.58 262.4 20.82 262.81 21.06 263.26 21.17 263.75 21.17L263.82 21.17C264.03 21.17 264.22 21.21 264.39 21.29 264.56 21.37 264.72 21.47 264.85 21.6 264.98 21.73 265.08 21.89 265.16 22.06 265.24 22.23 265.27 22.42 265.27 22.62 265.27 23.03 265.13 23.37 264.85 23.64 264.57 23.91 264.23 24.04 263.82 24.04L263.81 24.04C263.67 24.04 263.5 24.04 263.28 24.03 263.06 24.02 262.82 23.98 262.55 23.91 262.28 23.84 262.01 23.73 261.72 23.59 261.43 23.45 261.16 23.24 260.9 22.97L260.9 23.03Z" fill="#FFFDFD"/><path d="M262.15 22.57C262.15 22.16 262.29 21.82 262.57 21.54 262.85 21.26 263.19 21.13 263.59 21.13L265.1 21.13C265.62 21.15 266.12 21.15 266.59 21.13 267.06 21.11 267.51 21.04 267.91 20.92 268.31 20.8 268.66 20.62 268.97 20.38 269.28 20.14 269.53 19.82 269.72 19.41 269.92 18.99 269.97 18.39 269.89 17.62 269.81 16.85 269.61 15.94 269.3 14.9 269.19 14.59 269.07 14.25 268.93 13.88 268.79 13.51 268.65 13.17 268.51 12.86 268.35 12.49 268.19 12.12 268.03 11.76L270.64 10.47C270.64 10.47 270.69 10.58 270.78 10.77 270.87 10.96 270.99 11.22 271.12 11.54 271.25 11.86 271.41 12.24 271.57 12.66 271.73 13.08 271.89 13.54 272.04 14.02 272.95 16.82 273.06 19.01 272.38 20.58 271.69 22.15 270.46 23.19 268.69 23.69 268.16 23.85 267.65 23.94 267.14 23.97 266.63 24 266.17 24.01 265.73 24.01L263.59 24.01C263.19 24.01 262.85 23.87 262.57 23.6 262.29 23.33 262.15 22.98 262.15 22.57ZM270.38 29.51 267.99 31.9 265.59 29.5 267.98 27.11 270.38 29.51Z" fill="#FFFDFD"/><path d="M292.71 33.56C291.86 33.56 290.98 33.52 290.07 33.44 289.16 33.36 288.29 33.19 287.45 32.94 286.61 32.69 285.84 32.33 285.14 31.86 284.44 31.39 283.86 30.78 283.41 30.02 282.36 28.48 281.89 26.48 282 24.01 282.07 22.67 282.31 21.21 282.72 19.63 283.13 18.05 283.72 16.32 284.49 14.46L287.17 15.54C285.92 18.61 285.18 21.22 284.95 23.38 284.72 25.54 285 27.22 285.79 28.42 286.19 29 286.69 29.44 287.28 29.75 287.87 30.06 288.49 30.28 289.13 30.42 289.77 30.56 290.4 30.63 291.03 30.65 291.66 30.67 292.22 30.68 292.71 30.68 292.99 30.68 293.39 30.66 293.91 30.61 294.43 30.56 294.99 30.49 295.59 30.38 296.19 30.27 296.81 30.13 297.44 29.95 298.07 29.77 298.64 29.55 299.15 29.28 299.66 29.01 300.08 28.7 300.4 28.34 300.72 27.98 300.88 27.56 300.88 27.08 300.88 26.96 300.83 26.82 300.72 26.66 300.61 26.5 300.44 26.33 300.2 26.14 299.96 25.95 299.65 25.76 299.27 25.55 298.89 25.34 298.42 25.14 297.86 24.93 297.52 24.81 297.18 24.7 296.84 24.6 296.5 24.5 296.19 24.41 295.9 24.34 295.61 24.27 295.34 24.2 295.09 24.14 294.84 24.08 294.65 24.04 294.49 24.01L294.17 23.95 294.39 21.11 305.67 21.11C306.07 21.12 306.41 21.26 306.7 21.53 306.99 21.8 307.12 22.15 307.12 22.56 307.12 22.97 306.98 23.31 306.7 23.59 306.42 23.87 306.08 24 305.67 24L302.17 24C302.5 24.27 302.77 24.55 302.98 24.83 303.19 25.11 303.35 25.38 303.47 25.64 303.59 25.9 303.67 26.16 303.7 26.4 303.73 26.64 303.76 26.87 303.76 27.07 303.76 27.9 303.56 28.64 303.19 29.28 302.82 29.92 302.33 30.49 301.73 30.96 301.13 31.43 300.44 31.84 299.66 32.17 298.88 32.5 298.1 32.76 297.28 32.97 296.46 33.18 295.66 33.32 294.86 33.41 294.06 33.5 293.34 33.54 292.69 33.54Z" fill="#FFFDFD"/><path d="M303.83 22.57C303.83 22.17 303.97 21.83 304.24 21.57 304.51 21.31 304.85 21.16 305.25 21.14L305.26 21.14C306.08 21.14 306.77 21.01 307.34 20.74 307.91 20.47 308.4 20.12 308.82 19.67 309.24 19.22 309.61 18.72 309.92 18.15 310.23 17.58 310.54 16.99 310.84 16.39 311.09 15.86 311.35 15.36 311.6 14.88 311.85 14.4 312.15 13.96 312.48 13.56 313.36 12.49 314.42 11.95 315.67 11.95 317.14 11.95 318.37 12.54 319.35 13.72 320.13 14.66 320.6 15.83 320.76 17.25 320.86 17.92 320.87 18.58 320.8 19.23 320.73 19.88 320.59 20.48 320.38 21.06 320.1 21.76 319.72 22.34 319.25 22.8 318.78 23.26 318.24 23.56 317.62 23.73 316.53 24.02 315.29 23.89 313.91 23.33 312.96 22.96 311.97 22.39 310.94 21.63 310.87 21.7 310.82 21.74 310.79 21.76 309.33 23.26 307.49 24.02 305.25 24.02L305.24 24.02C304.84 24.02 304.5 23.88 304.23 23.6 303.96 23.32 303.82 22.98 303.82 22.58ZM312.63 19.24C313.52 19.89 314.33 20.37 315.06 20.66 315.79 20.95 316.4 21.03 316.89 20.89 317.06 20.85 317.22 20.74 317.37 20.55 317.52 20.36 317.66 20.13 317.77 19.83 317.88 19.53 317.96 19.2 318 18.82 318.04 18.44 318.04 18.03 317.98 17.59 317.98 17.52 317.95 17.4 317.91 17.24 317.87 17.08 317.81 16.89 317.74 16.68 317.67 16.47 317.57 16.26 317.45 16.04 317.33 15.82 317.19 15.62 317.03 15.44 316.87 15.26 316.67 15.11 316.44 14.99 316.21 14.87 315.96 14.81 315.66 14.81 315.46 14.81 315.28 14.87 315.11 14.98 314.94 15.09 314.77 15.27 314.6 15.5 314.43 15.73 314.25 16.03 314.06 16.38 313.87 16.73 313.65 17.15 313.41 17.63L312.62 19.23Z" fill="#FFFDFD"/><path d="M329.99 24.01C328.92 24.01 328 23.88 327.23 23.63 326.46 23.38 325.82 22.99 325.29 22.46 324.97 22.14 324.72 21.79 324.55 21.42 324.38 21.05 324.25 20.68 324.17 20.32 324.09 19.96 324.04 19.61 324.03 19.29 324.02 18.97 324.02 18.68 324.02 18.45L324.02 18.17C324.02 18.17 324.02 17.98 324.03 17.63 324.04 17.28 324.05 16.81 324.05 16.22 324.05 15.63 324.05 14.95 324.05 14.18 324.05 13.41 324.05 12.59 324.04 11.73 324.04 10.89 324.04 10.02 324.01 9.11 323.98 8.2 323.96 7.32 323.92 6.47 323.88 5.62 323.83 4.84 323.76 4.12 323.69 3.4 323.61 2.81 323.53 2.36L326.4 1.83C326.49 2.33 326.57 2.94 326.63 3.66 326.69 4.38 326.75 5.17 326.8 6.02 326.85 6.87 326.88 7.76 326.9 8.68 326.92 9.6 326.93 10.5 326.93 11.38 326.93 12.24 326.94 13.06 326.94 13.86L326.94 15.97C326.94 16.59 326.94 17.09 326.94 17.49 326.94 17.89 326.94 18.13 326.94 18.21L326.94 18.47C326.94 18.9 326.94 19.28 326.98 19.6 327.02 19.92 327.15 20.2 327.38 20.41 327.82 20.87 328.65 21.1 329.87 21.11L330 21.11C330.2 21.11 330.38 21.15 330.56 21.23 330.74 21.31 330.89 21.41 331.02 21.54 331.15 21.67 331.26 21.83 331.33 22 331.4 22.17 331.45 22.36 331.45 22.56 331.45 22.97 331.31 23.31 331.03 23.59 330.75 23.87 330.41 24 330 24Z" fill="#FFFDFD"/><path d="M328.61 22.59C328.61 22.4 328.64 22.23 328.71 22.05 328.78 21.87 328.87 21.73 329 21.6 329.13 21.47 329.27 21.36 329.43 21.29 329.59 21.22 329.77 21.16 329.96 21.14 330.54 21.14 331.06 21.03 331.52 20.8 331.98 20.57 332.39 20.27 332.75 19.9 333.11 19.53 333.42 19.09 333.69 18.6 333.96 18.11 334.2 17.6 334.39 17.07 334.58 16.54 334.75 16 334.88 15.46 335.01 14.92 335.13 14.41 335.22 13.93L338.12 14.55C338.04 14.78 337.95 15.09 337.83 15.46 337.71 15.83 337.61 16.23 337.5 16.65 337.39 17.07 337.3 17.51 337.22 17.95 337.14 18.39 337.1 18.81 337.1 19.19 337.1 19.45 337.12 19.71 337.17 19.96 337.22 20.21 337.3 20.43 337.42 20.63 337.54 20.83 337.7 20.98 337.9 21.1 338.1 21.22 338.36 21.28 338.68 21.28 339.18 21.28 339.62 21.14 340.02 20.87 340.42 20.6 340.77 20.24 341.07 19.8 341.37 19.36 341.64 18.86 341.87 18.31 342.1 17.76 342.29 17.19 342.45 16.61 342.61 16.03 342.75 15.47 342.85 14.93 342.95 14.39 343.04 13.92 343.1 13.52L345.91 14.03C345.8 14.66 345.71 15.21 345.64 15.66 345.57 16.11 345.5 16.6 345.44 17.11 345.38 17.62 345.35 18.08 345.35 18.48 345.35 18.84 345.38 19.19 345.43 19.51 345.48 19.83 345.57 20.13 345.69 20.37 345.81 20.61 345.97 20.82 346.17 20.99 346.37 21.16 346.62 21.25 346.91 21.28 347.36 21.34 347.73 21.33 348.03 21.27 348.33 21.21 348.56 21.11 348.74 21 348.92 20.89 349.05 20.77 349.13 20.64 349.21 20.51 349.27 20.42 349.3 20.36L349.29 20.36C349.43 20.15 349.52 19.9 349.58 19.63 349.64 19.36 349.66 19.06 349.66 18.75 349.66 18.19 349.58 17.59 349.43 16.95 349.28 16.31 349.1 15.67 348.89 15.05 348.68 14.43 348.46 13.85 348.23 13.32 348 12.79 347.81 12.37 347.65 12.05L350.21 10.7C350.26 10.8 350.35 10.99 350.49 11.26 350.63 11.53 350.78 11.88 350.96 12.29 351.14 12.7 351.32 13.15 351.51 13.66 351.7 14.17 351.87 14.7 352.03 15.26 352.19 15.82 352.32 16.4 352.42 16.98 352.52 17.56 352.57 18.14 352.57 18.69 352.57 19.53 352.45 20.29 352.22 20.97 351.99 21.65 351.63 22.23 351.17 22.71 350.71 23.19 350.11 23.56 349.4 23.82 348.69 24.08 347.86 24.2 346.92 24.19 346.54 24.19 346.16 24.13 345.79 24.01 345.42 23.89 345.06 23.73 344.72 23.53 344.38 23.33 344.06 23.1 343.77 22.83 343.48 22.56 343.23 22.27 343.02 21.96 342.43 22.64 341.77 23.19 341.03 23.59 340.29 23.99 339.5 24.19 338.67 24.19 338.31 24.19 337.94 24.14 337.55 24.05 337.16 23.96 336.8 23.82 336.44 23.63 336.08 23.44 335.77 23.21 335.48 22.94 335.19 22.67 334.97 22.35 334.81 21.99 334.22 22.61 333.56 23.09 332.82 23.45 332.08 23.81 331.19 24 330.15 24.02L329.92 24.02C329.73 24.02 329.56 23.97 329.39 23.89 329.22 23.81 329.08 23.71 328.96 23.58 328.84 23.45 328.74 23.3 328.67 23.13 328.6 22.96 328.57 22.78 328.57 22.58Z" fill="#FFFDFD"/><path d="M355.67 23.99C355.82 21.77 355.91 19.68 355.94 17.7 355.97 15.72 355.97 13.9 355.94 12.22 355.91 10.54 355.84 9.04 355.76 7.7 355.68 6.36 355.59 5.22 355.5 4.29 355.41 3.36 355.34 2.63 355.27 2.12 355.2 1.61 355.17 1.35 355.17 1.33L358.04 0.89C358.06 0.95 358.13 1.54 358.26 2.66 358.33 3.22 358.39 3.82 358.44 4.47 358.49 5.12 358.54 5.82 358.59 6.56 358.64 7.3 358.68 8.01 358.71 8.68 358.74 9.35 358.76 9.99 358.78 10.61 358.84 12.41 358.86 14.44 358.85 16.73 358.84 19.02 358.74 21.49 358.56 24.16L355.67 24Z" fill="#FFFDFD"/><path d="M17.29 82.72 16.75 69.14C16.75 69.08 16.75 68.94 16.75 68.73 16.75 68.52 16.79 68.27 16.86 67.99 16.93 67.71 17.05 67.42 17.21 67.13 17.37 66.84 17.62 66.57 17.93 66.33 18.06 66.23 18.21 66.14 18.39 66.04 18.57 65.94 18.78 65.88 19.01 65.83 19.24 65.78 19.51 65.77 19.79 65.78 20.07 65.79 20.4 65.84 20.75 65.94 20.86 65.61 20.99 65.26 21.15 64.89 21.31 64.52 21.49 64.13 21.69 63.73 21.99 63.16 22.3 62.66 22.61 62.23 22.92 61.8 23.23 61.42 23.54 61.1 24.54 60.12 25.61 59.65 26.76 59.69 27.55 59.72 28.27 59.89 28.91 60.21 29.55 60.53 30.11 60.99 30.58 61.61 30.94 62.09 31.22 62.64 31.43 63.27 31.64 63.9 31.76 64.54 31.82 65.21 31.88 65.88 31.85 66.55 31.76 67.21 31.67 67.87 31.5 68.48 31.27 69.04 30.99 69.75 30.62 70.32 30.17 70.75 29.72 71.18 29.21 71.44 28.65 71.54 28.38 71.58 28.07 71.57 27.74 71.53 27.41 71.49 27.03 71.39 26.6 71.26 26.17 71.13 25.68 70.96 25.14 70.75 24.6 70.54 23.98 70.29 23.27 70.01 22.72 69.78 22.18 69.55 21.64 69.34 21.1 69.13 20.58 68.94 20.09 68.78 20 68.75 19.92 68.73 19.85 68.71 19.78 68.69 19.72 68.68 19.67 68.68 19.64 68.83 19.63 68.94 19.63 69.03L20.16 82.73 17.29 82.73ZM24.39 67.32C24.84 67.52 25.28 67.69 25.7 67.85 26.12 68.01 26.52 68.16 26.89 68.3 27.26 68.44 27.6 68.54 27.91 68.62 28.22 68.7 28.41 68.74 28.47 68.75 28.62 68.52 28.74 68.22 28.83 67.87 28.92 67.52 28.99 67.15 29.02 66.77 29.05 66.39 29.06 66.01 29.04 65.63 29.02 65.25 28.97 64.92 28.88 64.64 28.73 64.14 28.56 63.75 28.35 63.47 28.14 63.19 27.93 62.98 27.71 62.85 27.49 62.72 27.29 62.63 27.1 62.6 26.91 62.57 26.76 62.56 26.65 62.56 26.31 62.56 25.93 62.77 25.51 63.2 25.09 63.63 24.68 64.25 24.28 65.05 24.1 65.37 23.95 65.7 23.82 66.02 23.69 66.34 23.57 66.65 23.46 66.92L24.38 67.3Z" fill="#FFFDFD"/><path d="M34.77 71.99C34.92 69.77 35.01 67.68 35.04 65.7 35.07 63.72 35.07 61.9 35.04 60.22 35.01 58.54 34.94 57.04 34.86 55.7 34.78 54.36 34.69 53.22 34.6 52.29 34.51 51.36 34.44 50.63 34.37 50.12 34.3 49.61 34.27 49.35 34.27 49.33L37.14 48.89C37.16 48.95 37.23 49.54 37.36 50.66 37.43 51.22 37.49 51.82 37.54 52.47 37.59 53.12 37.64 53.82 37.69 54.56 37.74 55.3 37.78 56.01 37.81 56.68 37.84 57.35 37.86 57.99 37.88 58.61 37.94 60.41 37.96 62.44 37.95 64.73 37.94 67.02 37.84 69.49 37.66 72.16L34.77 72Z" fill="#FFFDFD"/><path d="M47.35 71C47.35 71.85 47.23 72.67 46.98 73.48 46.73 74.29 46.38 75.05 45.94 75.79 45.5 76.53 44.97 77.24 44.36 77.91 43.75 78.58 43.09 79.21 42.37 79.81 41.65 80.41 40.9 80.95 40.1 81.46 39.3 81.97 38.5 82.42 37.68 82.83L36.42 80.24C37.12 79.88 37.82 79.48 38.51 79.05 39.2 78.62 39.86 78.16 40.47 77.66 41.08 77.16 41.65 76.63 42.17 76.08 42.69 75.53 43.12 74.94 43.48 74.34 43.84 73.74 44.1 73.11 44.28 72.46 44.46 71.81 44.51 71.14 44.44 70.45L44.44 70.48C44.37 69.92 44.27 69.32 44.13 68.69 43.99 68.06 43.83 67.42 43.66 66.81 43.49 66.2 43.32 65.62 43.16 65.07 43 64.52 42.86 64.08 42.74 63.72L45.49 62.87C45.86 64 46.22 64.97 46.58 65.76 46.94 66.55 47.3 67.21 47.68 67.71 48.06 68.21 48.45 68.58 48.86 68.82 49.27 69.06 49.72 69.17 50.21 69.17L50.28 69.17C50.49 69.17 50.68 69.21 50.85 69.29 51.02 69.37 51.18 69.47 51.31 69.6 51.44 69.73 51.54 69.89 51.62 70.06 51.7 70.23 51.73 70.42 51.73 70.62 51.73 71.03 51.59 71.37 51.31 71.64 51.03 71.91 50.69 72.04 50.28 72.04L50.27 72.04C50.13 72.04 49.96 72.04 49.74 72.03 49.52 72.02 49.28 71.98 49.01 71.91 48.74 71.84 48.47 71.73 48.18 71.59 47.89 71.45 47.62 71.24 47.36 70.97L47.36 71.03Z" fill="#FFFDFD"/><path d="M48.62 70.59C48.62 70.18 48.77 69.84 49.06 69.56 49.35 69.28 49.73 69.14 50.2 69.14L51.74 69.14C52.33 69.14 52.94 69.14 53.57 69.12 54.2 69.1 54.81 69.05 55.39 68.94 55.97 68.83 56.5 68.68 56.97 68.46 57.44 68.24 57.82 67.93 58.09 67.52 58.41 67.03 58.6 66.5 58.65 65.92 58.7 65.34 58.65 64.72 58.47 64.04 58.36 63.64 58.1 63.13 57.67 62.51 57.24 61.89 56.72 61.23 56.1 60.52 55.48 59.81 54.78 59.09 54.01 58.35 53.24 57.61 52.45 56.91 51.65 56.27L51.99 53.27 64.03 48.11 65.16 50.78 54.67 55.19C55.15 55.6 55.67 56.06 56.24 56.57 56.81 57.08 57.37 57.64 57.92 58.25 58.66 59.07 59.27 59.85 59.75 60.6 60.23 61.35 60.6 62.06 60.86 62.73 61.12 63.4 61.3 64.04 61.39 64.64 61.48 65.24 61.5 65.81 61.45 66.33 61.4 66.85 61.3 67.35 61.15 67.79 61 68.23 60.82 68.65 60.62 69.02 59.75 70.56 58.28 71.52 56.21 71.91 55.84 71.98 55.41 72.01 54.94 72.01L50.21 72.01C49.74 72.01 49.36 71.87 49.07 71.6 48.78 71.33 48.63 70.99 48.63 70.59ZM63.53 46.23 51.75 51.21 51.85 49.33 62.84 44.75 63.53 46.23Z" fill="#FFFDFD"/><path d="M74.25 72.01C73.18 72.01 72.26 71.88 71.49 71.63 70.72 71.38 70.08 70.99 69.55 70.46 69.23 70.14 68.98 69.79 68.81 69.42 68.64 69.05 68.51 68.68 68.43 68.32 68.35 67.96 68.3 67.61 68.29 67.29 68.28 66.97 68.28 66.68 68.28 66.45L68.28 66.17C68.28 66.17 68.28 65.98 68.29 65.63 68.3 65.28 68.31 64.81 68.31 64.22 68.31 63.63 68.31 62.95 68.31 62.18 68.31 61.41 68.31 60.59 68.3 59.73 68.3 58.89 68.3 58.02 68.27 57.11 68.24 56.2 68.22 55.32 68.18 54.47 68.14 53.62 68.09 52.84 68.02 52.12 67.95 51.4 67.87 50.81 67.79 50.36L70.66 49.83C70.75 50.33 70.83 50.94 70.89 51.66 70.95 52.38 71.01 53.17 71.06 54.02 71.11 54.87 71.14 55.76 71.16 56.68 71.18 57.6 71.19 58.5 71.19 59.38 71.19 60.24 71.2 61.06 71.2 61.86L71.2 63.97C71.2 64.59 71.2 65.09 71.2 65.49 71.2 65.89 71.2 66.13 71.2 66.21L71.2 66.47C71.2 66.9 71.2 67.28 71.24 67.6 71.28 67.92 71.41 68.2 71.64 68.41 72.08 68.87 72.91 69.1 74.13 69.11L74.26 69.11C74.46 69.11 74.64 69.15 74.82 69.23 75 69.31 75.15 69.41 75.28 69.54 75.41 69.67 75.52 69.83 75.59 70 75.66 70.17 75.71 70.36 75.71 70.56 75.71 70.97 75.57 71.31 75.29 71.59 75.01 71.87 74.67 72 74.26 72Z" fill="#FFFDFD"/><path d="M72.68 70.57C72.68 70.16 72.82 69.82 73.09 69.54 73.36 69.26 73.71 69.12 74.12 69.12L75.23 69.12C76.05 69.12 76.84 69.07 77.59 68.97 78.34 68.87 79 68.69 79.57 68.43 80.14 68.17 80.59 67.81 80.92 67.35 81.25 66.89 81.4 66.31 81.37 65.6 81.35 65.05 81.3 64.49 81.23 63.9 81.16 63.31 81.01 62.65 80.8 61.89L83.54 61.11C83.63 61.45 83.71 61.81 83.79 62.19 83.87 62.57 83.94 62.95 84 63.34 84.06 63.73 84.11 64.12 84.15 64.52 84.19 64.92 84.23 65.3 84.25 65.69 84.27 66.05 84.31 66.43 84.38 66.83 84.45 67.23 84.57 67.6 84.75 67.94 84.93 68.28 85.17 68.56 85.48 68.79 85.79 69.02 86.19 69.13 86.69 69.13 87.1 69.13 87.45 69.27 87.73 69.54 88.01 69.81 88.15 70.16 88.15 70.57 88.15 70.78 88.11 70.96 88.03 71.13 87.95 71.3 87.85 71.45 87.72 71.58 87.59 71.71 87.44 71.81 87.27 71.89 87.1 71.97 86.92 72 86.72 72 85.73 72 84.92 71.82 84.27 71.46 83.62 71.1 83.1 70.66 82.69 70.12 82.34 70.46 81.88 70.75 81.33 70.99 80.78 71.23 80.16 71.42 79.49 71.57 78.82 71.72 78.12 71.82 77.39 71.89 76.66 71.96 75.94 71.99 75.24 71.99L74.13 71.99C73.72 71.99 73.38 71.85 73.1 71.58 72.82 71.31 72.69 70.96 72.69 70.55ZM80.11 56.07 77.74 58.44 75.34 56.05 77.71 53.66 80.11 56.06ZM86.12 56.08 83.75 58.47 81.35 56.07 83.72 53.7 86.12 56.09Z" fill="#FFFDFD"/><path d="M85.38 70.57C85.38 70.38 85.42 70.21 85.5 70.03 85.58 69.85 85.69 69.71 85.82 69.58 85.95 69.45 86.11 69.34 86.28 69.27 86.45 69.2 86.64 69.15 86.82 69.14L86.97 69.14C87.38 69.14 87.77 69.03 88.14 68.81 88.51 68.59 88.86 68.31 89.18 67.97 89.5 67.63 89.8 67.25 90.07 66.83 90.34 66.41 90.58 66 90.8 65.6 91.01 65.21 91.19 64.82 91.35 64.43 91.51 64.04 91.66 63.68 91.78 63.35 91.9 63.02 92.01 62.71 92.09 62.44 92.17 62.17 92.24 61.96 92.29 61.8 92.34 61.58 92.36 61.46 92.36 61.45L95.17 62.23C95.17 62.23 95.15 62.27 95.13 62.33 95.11 62.39 95.09 62.47 95.06 62.58 95 62.8 94.93 63.13 94.84 63.56 94.75 63.99 94.67 64.47 94.59 65 94.48 65.85 94.46 66.59 94.52 67.23 94.58 67.87 94.71 68.36 94.92 68.69 95.06 68.94 95.27 69.09 95.56 69.11 95.68 69.14 95.78 69.15 95.88 69.15 96.25 69.15 96.61 69.03 96.95 68.78 97.39 68.45 97.82 67.93 98.24 67.21 98.66 66.49 99.04 65.62 99.37 64.59 99.54 64.11 99.67 63.66 99.78 63.23 99.89 62.8 99.97 62.43 100.03 62.13 100.08 61.89 100.12 61.69 100.15 61.55 100.18 61.41 100.19 61.33 100.19 61.31L103.05 61.85C103.05 61.85 103.01 61.93 102.99 62.08 102.97 62.23 102.94 62.42 102.89 62.67 102.84 62.92 102.8 63.23 102.76 63.6 102.72 63.97 102.7 64.35 102.69 64.77 102.64 65.66 102.69 66.43 102.81 67.08 102.93 67.73 103.14 68.23 103.41 68.56 103.52 68.7 103.66 68.82 103.84 68.93 104.02 69.04 104.29 69.09 104.65 69.09 105.16 69.09 105.57 68.91 105.88 68.56 106.21 68.2 106.48 67.67 106.68 66.96 106.88 66.25 107.01 65.43 107.07 64.47 107.09 64.03 107.1 63.62 107.1 63.25 107.1 62.88 107.1 62.55 107.07 62.28 107.04 62.04 107.02 61.84 107.02 61.69 107.02 61.54 107.02 61.46 107.02 61.45L109.89 61.22C109.89 61.22 109.93 61.54 109.95 62.04 109.98 62.25 110.01 62.48 110.05 62.74 110.09 63 110.13 63.29 110.19 63.6 110.25 63.91 110.32 64.23 110.4 64.57 110.48 64.91 110.57 65.24 110.68 65.57 111.45 67.95 112.53 69.14 113.92 69.14L114.21 69.14C114.62 69.14 114.96 69.28 115.24 69.55 115.52 69.82 115.65 70.17 115.65 70.58 115.65 70.99 115.51 71.32 115.24 71.6 114.97 71.88 114.62 72.02 114.21 72.02L113.92 72.02C113.13 72.02 112.39 71.86 111.7 71.53 111.01 71.2 110.39 70.72 109.85 70.09 109.58 69.79 109.31 69.42 109.04 68.99 108.77 69.6 108.44 70.1 108.07 70.5 107.63 71 107.12 71.38 106.55 71.63 105.98 71.88 105.35 72.02 104.67 72.02 103.95 72.02 103.29 71.88 102.69 71.6 102.09 71.32 101.59 70.92 101.17 70.39 101.03 70.21 100.91 70.03 100.79 69.83 100.67 69.63 100.57 69.42 100.47 69.2 99.92 70 99.33 70.65 98.68 71.13 97.81 71.75 96.89 72.05 95.91 72.05 95.77 72.05 95.64 72.05 95.51 72.03 95.38 72.01 95.25 72 95.11 71.98 93.96 71.77 93.07 71.18 92.46 70.22 92.36 70.05 92.27 69.88 92.2 69.7 92.13 69.52 92.04 69.33 91.97 69.14 91.65 69.56 91.32 69.93 90.99 70.24 89.78 71.42 88.45 72.01 86.99 72.01L86.84 72.01C86.64 72.01 86.46 71.97 86.28 71.9 86.1 71.83 85.95 71.72 85.82 71.59 85.69 71.46 85.58 71.3 85.51 71.13 85.44 70.96 85.39 70.77 85.39 70.57Z" fill="#FFFDFD"/><path d="M112.7 70.57C112.7 70.17 112.84 69.83 113.11 69.55 113.38 69.27 113.73 69.13 114.14 69.13L114.39 69.13C116.03 69.13 117.22 68.83 117.96 68.24 118.7 67.65 119.07 66.77 119.07 65.61 119.07 65.34 119.07 65.06 119.04 64.78 119.01 64.5 118.99 64.21 118.94 63.92 118.89 63.63 118.84 63.31 118.76 62.98 118.68 62.65 118.6 62.3 118.49 61.93L121.24 61.15C121.34 61.49 121.42 61.82 121.49 62.14 121.56 62.46 121.62 62.79 121.67 63.14 121.72 63.49 121.77 63.87 121.81 64.28 121.85 64.69 121.89 65.15 121.93 65.67 121.96 66.03 122.01 66.41 122.08 66.81 122.15 67.21 122.27 67.58 122.45 67.92 122.63 68.26 122.87 68.54 123.18 68.77 123.49 69 123.89 69.11 124.39 69.11 124.59 69.11 124.77 69.15 124.95 69.22 125.13 69.29 125.28 69.4 125.41 69.53 125.54 69.66 125.65 69.82 125.72 69.99 125.79 70.16 125.84 70.35 125.84 70.55 125.84 70.76 125.8 70.94 125.72 71.11 125.64 71.28 125.54 71.43 125.41 71.56 125.28 71.69 125.13 71.79 124.96 71.87 124.79 71.95 124.61 71.98 124.41 71.98 123.92 71.98 123.47 71.94 123.07 71.85 122.67 71.76 122.3 71.64 121.97 71.48 121.64 71.32 121.35 71.13 121.09 70.9 120.83 70.67 120.6 70.43 120.39 70.17 119.77 70.78 118.98 71.23 117.99 71.53 117 71.83 115.8 71.98 114.38 71.98L114.13 71.98C113.72 71.98 113.38 71.84 113.1 71.57 112.82 71.3 112.69 70.95 112.69 70.54ZM122.09 55.17 119.7 57.56 117.3 55.16 119.69 52.77 122.09 55.17Z" fill="#FFFDFD"/><path d="M122.23 70.57C122.23 70.16 122.37 69.82 122.65 69.54 122.93 69.26 123.27 69.13 123.67 69.13L125.3 69.13C125.64 69.13 126.01 69.14 126.41 69.13 126.81 69.12 127.22 69.1 127.63 69.06 128.04 69.02 128.44 68.96 128.84 68.89 129.24 68.82 129.6 68.71 129.93 68.58 130.26 68.45 130.55 68.29 130.81 68.09 131.07 67.89 131.25 67.66 131.38 67.39 131.58 66.97 131.63 66.37 131.55 65.6 131.47 64.83 131.27 63.92 130.96 62.88 130.85 62.57 130.73 62.23 130.59 61.86 130.45 61.49 130.31 61.15 130.17 60.84 130.01 60.47 129.85 60.1 129.69 59.74L132.3 58.45C132.3 58.45 132.35 58.56 132.44 58.75 132.53 58.94 132.65 59.2 132.78 59.52 132.91 59.84 133.07 60.22 133.23 60.64 133.39 61.06 133.55 61.52 133.7 62 134.61 64.8 134.72 66.99 134.04 68.56 133.35 70.13 132.12 71.17 130.35 71.67 130.09 71.75 129.75 71.81 129.34 71.85 128.93 71.89 128.51 71.93 128.08 71.95 127.65 71.97 127.24 71.98 126.85 71.99 126.46 72 126.16 71.99 125.94 71.99L123.68 71.99C123.28 71.99 122.94 71.85 122.66 71.58 122.38 71.31 122.24 70.96 122.24 70.55ZM129.29 77.06 126.92 79.43 124.52 77.04 126.89 74.65 129.29 77.05ZM135.3 77.07 132.93 79.46 130.53 77.06 132.9 74.69 135.3 77.08Z" fill="#FFFDFD"/><path d="M138.55 71.99C138.7 69.77 138.79 67.68 138.82 65.7 138.85 63.72 138.85 61.9 138.82 60.22 138.79 58.54 138.72 57.04 138.64 55.7 138.56 54.36 138.47 53.22 138.38 52.29 138.29 51.36 138.22 50.63 138.15 50.12 138.08 49.61 138.05 49.35 138.05 49.33L140.92 48.89C140.94 48.95 141.01 49.54 141.14 50.66 141.21 51.22 141.27 51.82 141.32 52.47 141.37 53.12 141.42 53.82 141.47 54.56 141.52 55.3 141.56 56.01 141.59 56.68 141.62 57.35 141.64 57.99 141.66 58.61 141.72 60.41 141.74 62.44 141.73 64.73 141.72 67.02 141.62 69.49 141.44 72.16L138.55 72Z" fill="#FFFDFD"/><path d="M156.5 62.49C156.77 63.4 157.03 64.3 157.28 65.19 157.38 65.57 157.48 65.97 157.59 66.38 157.7 66.79 157.8 67.2 157.89 67.61 157.98 68.02 158.06 68.42 158.13 68.8 158.2 69.18 158.25 69.55 158.29 69.88 158.29 69.99 158.31 70.11 158.32 70.25 158.33 70.39 158.33 70.54 158.33 70.7 158.33 71.55 158.21 72.37 157.96 73.18 157.71 73.99 157.36 74.75 156.92 75.49 156.48 76.23 155.95 76.93 155.34 77.61 154.73 78.29 154.07 78.92 153.35 79.51 152.63 80.1 151.88 80.65 151.08 81.16 150.28 81.67 149.48 82.12 148.66 82.52L147.39 79.94C148.42 79.43 149.41 78.84 150.38 78.17 151.35 77.5 152.21 76.77 152.97 75.98 153.73 75.19 154.33 74.35 154.79 73.46 155.25 72.57 155.48 71.65 155.48 70.71 155.48 70.66 155.48 70.58 155.47 70.47 155.46 70.36 155.45 70.25 155.44 70.14L155.44 70.14C155.41 69.85 155.36 69.52 155.29 69.17 155.22 68.82 155.14 68.45 155.06 68.07 154.98 67.69 154.88 67.32 154.78 66.94 154.68 66.56 154.58 66.2 154.49 65.85 154.26 65.03 154.01 64.21 153.74 63.39L156.52 62.51Z" fill="#FFFDFD"/><path d="M166.58 71.99C166.11 71.99 165.56 71.93 164.92 71.81 164.28 71.69 163.64 71.54 163.01 71.36 162.38 71.18 161.79 70.98 161.27 70.75 160.75 70.52 160.36 70.3 160.11 70.08L161.31 67.33C161.67 67.56 162.11 67.79 162.61 68.01 163.11 68.23 163.66 68.42 164.24 68.58 164.82 68.74 165.41 68.86 166.02 68.94 166.63 69.02 167.22 69.03 167.79 68.98 168.36 68.93 168.88 68.81 169.37 68.61 169.86 68.41 170.27 68.12 170.6 67.72 170.86 67.42 170.9 66.85 170.7 66.02 170.59 65.54 170.42 65.04 170.18 64.52 169.94 64 169.65 63.48 169.32 62.95 168.99 62.42 168.61 61.92 168.2 61.42 167.79 60.92 167.36 60.46 166.92 60.04 166.48 59.62 166.02 59.24 165.57 58.91 165.12 58.58 164.66 58.31 164.22 58.12L165.41 55.45C165.99 55.71 166.57 56.06 167.15 56.48 167.73 56.9 168.3 57.37 168.86 57.9 169.42 58.43 169.94 59 170.44 59.61 170.94 60.22 171.4 60.85 171.81 61.5 172.22 62.15 172.58 62.8 172.88 63.46 173.18 64.12 173.41 64.75 173.55 65.38 173.67 65.93 173.73 66.42 173.73 66.86 173.73 67.3 173.69 67.69 173.61 68.03 173.53 68.37 173.42 68.67 173.28 68.92 173.14 69.17 173 69.39 172.84 69.58 171.94 70.66 170.69 71.38 169.08 71.73 168.71 71.83 168.32 71.9 167.91 71.94 167.5 71.98 167.07 72 166.61 72Z" fill="#FFFDFD"/><path d="M186.42 64.88C186.55 65.95 186.84 66.84 187.31 67.52 187.78 68.2 188.49 68.77 189.47 69.2 190.44 69.62 191.54 69.83 192.77 69.83 193.6 69.83 194.35 69.75 195.01 69.56 195.67 69.37 196.24 69.11 196.71 68.77 197.18 68.43 197.53 68.04 197.77 67.6 198.01 67.16 198.12 66.68 198.1 66.19 198.1 65.52 197.91 64.93 197.52 64.42 197.13 63.91 196.49 63.5 195.58 63.15 195.3 63.04 194.84 62.9 194.2 62.73 193.56 62.56 192.75 62.35 191.75 62.11 190.75 61.87 189.91 61.63 189.23 61.41 188.55 61.19 188 60.97 187.6 60.76 186.56 60.22 185.8 59.56 185.3 58.77 184.8 57.98 184.55 57.09 184.55 56.09 184.55 55.01 184.86 54 185.47 53.06 186.09 52.1 186.98 51.39 188.17 50.91 189.37 50.42 190.68 50.18 192.11 50.18 193.7 50.18 195.11 50.44 196.32 50.95 197.53 51.46 198.47 52.22 199.13 53.21 199.79 54.2 200.14 55.33 200.18 56.59L197.46 56.8C197.31 55.44 196.82 54.42 195.97 53.72 195.12 53.02 193.88 52.68 192.23 52.68 190.58 52.68 189.27 53 188.47 53.63 187.69 54.26 187.3 55.02 187.3 55.9 187.3 56.67 187.58 57.31 188.13 57.8 188.67 58.3 190.09 58.81 192.41 59.34 194.71 59.85 196.3 60.3 197.17 60.7 198.43 61.29 199.36 62.02 199.95 62.9 200.54 63.78 200.84 64.79 200.84 65.95 200.84 67.11 200.51 68.18 199.86 69.19 199.21 70.19 198.26 70.97 197.03 71.55 195.81 72.11 194.43 72.38 192.9 72.38 190.95 72.38 189.32 72.1 188.01 71.54 186.7 70.98 185.67 70.13 184.91 68.98 184.18 67.86 183.79 66.57 183.74 65.11L186.42 64.88Z" fill="#FFFDFD"/><path d="M215.73 67.34C215.29 68.94 214.49 70.18 213.34 71.05 212.19 71.92 210.7 72.36 208.89 72.36 206.61 72.36 204.81 71.66 203.47 70.27 202.14 68.87 201.48 66.91 201.48 64.37 201.48 61.83 202.15 59.73 203.5 58.28 204.85 56.83 206.6 56.11 208.74 56.11 210.88 56.11 212.52 56.82 213.84 58.23 215.16 59.66 215.82 61.65 215.82 64.21L215.82 64.5C215.82 64.62 215.82 64.75 215.81 64.91L204.21 64.91C204.31 66.62 204.79 67.93 205.66 68.84 206.52 69.75 207.6 70.2 208.91 70.2 209.88 70.2 210.7 69.95 211.39 69.44 212.08 68.93 212.62 68.12 213.02 67.01L215.74 67.35ZM213.03 62.74C212.91 61.44 212.58 60.46 212.03 59.8 211.19 58.78 210.1 58.28 208.76 58.28 207.56 58.28 206.54 58.69 205.7 59.5 204.88 60.31 204.43 61.39 204.34 62.75L213.03 62.75Z" fill="#FFFDFD"/><path d="M217.45 77.97 217.45 56.45 219.85 56.45 219.85 58.47C220.42 57.68 221.06 57.09 221.77 56.69 222.48 56.29 223.35 56.1 224.36 56.1 225.7 56.1 226.87 56.44 227.88 57.12 228.89 57.8 229.65 58.77 230.18 60.03 230.7 61.29 230.96 62.65 230.96 64.12 230.96 65.7 230.67 67.14 230.1 68.43 229.53 69.7 228.7 70.68 227.61 71.36 226.53 72.03 225.38 72.37 224.18 72.37 223.29 72.37 222.5 72.18 221.81 71.81 221.12 71.44 220.55 70.97 220.1 70.4L220.1 77.97 217.46 77.97ZM219.84 64.32C219.84 66.32 220.25 67.8 221.06 68.76 221.87 69.72 222.85 70.2 224 70.2 225.15 70.2 226.16 69.71 227 68.72 227.84 67.71 228.26 66.18 228.26 64.11 228.26 62.04 227.85 60.64 227.03 59.66 226.22 58.67 225.25 58.18 224.11 58.18 222.97 58.18 221.98 58.71 221.12 59.76 220.26 60.8 219.83 62.32 219.83 64.33Z" fill="#FFFDFD"/><path d="M238.44 71.98C237.72 72.14 237.05 72.21 236.45 72.21 235.49 72.21 234.75 72.06 234.22 71.76 233.69 71.46 233.32 71.06 233.11 70.57 232.9 70.08 232.79 69.04 232.79 67.45L232.79 58.5 230.86 58.5 230.86 56.45 232.79 56.45 232.79 52.6 235.41 51.02 235.41 56.45 238.06 56.45 238.06 58.5 235.41 58.5 235.41 67.6C235.41 68.35 235.45 68.84 235.54 69.05 235.64 69.26 235.79 69.44 235.99 69.56 236.2 69.69 236.51 69.75 236.9 69.75 237.05 69.75 237.21 69.75 237.41 69.73 237.61 69.71 237.82 69.69 238.06 69.65L238.44 71.98Z" fill="#FFFDFD"/><path d="M253.07 67.34C252.63 68.94 251.83 70.18 250.68 71.05 249.53 71.92 248.04 72.36 246.23 72.36 243.95 72.36 242.15 71.66 240.81 70.27 239.48 68.87 238.82 66.91 238.82 64.37 238.82 61.83 239.49 59.73 240.84 58.28 242.19 56.83 243.94 56.11 246.08 56.11 248.22 56.11 249.86 56.82 251.18 58.23 252.5 59.66 253.16 61.65 253.16 64.21L253.16 64.5C253.16 64.62 253.16 64.75 253.15 64.91L241.55 64.91C241.65 66.62 242.13 67.93 243 68.84 243.86 69.75 244.94 70.2 246.25 70.2 247.22 70.2 248.04 69.95 248.73 69.44 249.42 68.93 249.96 68.12 250.36 67.01L253.08 67.35ZM250.37 62.74C250.25 61.44 249.92 60.46 249.37 59.8 248.53 58.78 247.44 58.28 246.1 58.28 244.9 58.28 243.88 58.69 243.04 59.5 242.22 60.31 241.77 61.39 241.68 62.75L250.37 62.75Z" fill="#FFFDFD"/><path d="M254.79 72.01 254.79 56.45 257.15 56.45 257.15 58.63C257.65 57.87 258.3 57.25 259.11 56.79 259.92 56.33 260.84 56.09 261.87 56.09 263.02 56.09 263.97 56.33 264.7 56.81 265.43 57.29 265.96 57.96 266.26 58.82 267.49 57 269.09 56.1 271.06 56.1 272.61 56.1 273.8 56.52 274.63 57.37 275.46 58.22 275.87 59.54 275.87 61.33L275.87 72.01 273.25 72.01 273.25 62.21C273.25 61.16 273.16 60.4 272.99 59.94 272.82 59.46 272.52 59.09 272.07 58.81 271.61 58.53 271.08 58.39 270.49 58.39 269.39 58.39 268.48 58.76 267.77 59.49 267.05 60.21 266.69 61.37 266.69 62.98L266.69 72.02 264.05 72.02 264.05 61.91C264.05 60.73 263.84 59.85 263.41 59.27 262.98 58.69 262.28 58.4 261.3 58.4 260.55 58.4 259.86 58.6 259.23 58.99 258.6 59.39 258.14 59.96 257.87 60.7 257.59 61.46 257.45 62.55 257.45 63.95L257.45 72.02 254.81 72.02Z" fill="#FFFDFD"/><path d="M280.01 72.01 277.56 72.01 277.56 50.54 280.2 50.54 280.2 58.2C281.31 56.8 282.73 56.11 284.46 56.11 285.43 56.11 286.33 56.3 287.18 56.69 288.03 57.08 288.73 57.62 289.28 58.32 289.83 59.02 290.27 59.86 290.58 60.85 290.89 61.84 291.05 62.88 291.05 64.01 291.05 66.69 290.39 68.75 289.07 70.19 287.75 71.65 286.17 72.37 284.32 72.37 282.47 72.37 281.03 71.6 280 70.07L280 72.02ZM279.98 64.11C279.98 65.98 280.23 67.32 280.74 68.15 281.57 69.51 282.69 70.19 284.11 70.19 285.26 70.19 286.26 69.69 287.1 68.7 287.94 67.68 288.36 66.19 288.36 64.22 288.36 62.25 287.95 60.7 287.14 59.72 286.33 58.75 285.36 58.27 284.22 58.27 283.08 58.27 282.06 58.77 281.23 59.78 280.39 60.79 279.97 62.23 279.97 64.12Z" fill="#FFFDFD"/><path d="M305.72 67.34C305.28 68.94 304.48 70.18 303.33 71.05 302.18 71.92 300.69 72.36 298.88 72.36 296.6 72.36 294.8 71.66 293.46 70.27 292.13 68.87 291.47 66.91 291.47 64.37 291.47 61.83 292.14 59.73 293.49 58.28 294.84 56.83 296.59 56.11 298.73 56.11 300.87 56.11 302.51 56.82 303.83 58.23 305.15 59.66 305.81 61.65 305.81 64.21L305.81 64.5C305.81 64.62 305.81 64.75 305.8 64.91L294.2 64.91C294.3 66.62 294.78 67.93 295.65 68.84 296.51 69.75 297.59 70.2 298.9 70.2 299.87 70.2 300.69 69.95 301.38 69.44 302.07 68.93 302.61 68.12 303.01 67.01L305.73 67.35ZM303.02 62.74C302.9 61.44 302.57 60.46 302.02 59.8 301.18 58.78 300.09 58.28 298.75 58.28 297.55 58.28 296.53 58.69 295.69 59.5 294.87 60.31 294.42 61.39 294.33 62.75L303.02 62.75Z" fill="#FFFDFD"/><path d="M307.42 72.01 307.42 56.45 309.79 56.45 309.79 58.81C310.4 57.71 310.95 56.98 311.46 56.63 311.97 56.28 312.53 56.1 313.16 56.1 314.05 56.1 314.95 56.38 315.87 56.95L314.96 59.4C314.32 59.02 313.67 58.83 313.03 58.83 312.44 58.83 311.92 59 311.47 59.35 311.02 59.7 310.69 60.18 310.5 60.79 310.21 61.73 310.06 62.75 310.06 63.87L310.06 72.01 307.42 72.01Z" fill="#FFFDFD"/><path d="M341.94 50.43C342.1 51.27 342.22 52.05 342.3 52.76 342.38 53.47 342.42 54.13 342.42 54.72 342.42 56.59 342.02 58 341.23 58.97 340.86 59.41 340.42 59.75 339.9 59.98 339.38 60.21 338.82 60.33 338.19 60.33 337.95 60.33 337.69 60.3 337.41 60.25 337.13 60.2 336.86 60.1 336.58 59.97 336.3 59.84 336.02 59.66 335.75 59.42 335.48 59.18 335.22 58.89 334.97 58.54L334.68 58.98C334.21 59.51 333.7 59.91 333.16 60.18 332.62 60.45 331.96 60.59 331.21 60.59 330.84 60.59 330.52 60.57 330.24 60.52 329.96 60.47 329.68 60.4 329.38 60.29 329.4 60.42 329.42 60.53 329.43 60.64 329.44 60.75 329.46 60.86 329.48 60.98 329.61 61.92 329.71 62.87 329.78 63.84 329.85 64.81 329.91 65.77 329.95 66.73 329.99 67.69 330.02 68.63 330.03 69.57 330.04 70.51 330.05 71.41 330.05 72.28L327.13 72.28C327.15 71.88 327.16 71.46 327.17 71.03 327.18 70.6 327.17 70.18 327.17 69.79 327.17 68.38 327.12 67 327.02 65.64 326.92 64.28 326.78 62.97 326.59 61.71 326.4 60.45 326.16 59.24 325.86 58.09 325.56 56.94 325.23 55.86 324.83 54.85 324.81 54.81 324.78 54.74 324.74 54.64 324.72 54.6 324.71 54.56 324.7 54.52 324.54 54.15 324.38 53.78 324.19 53.41 324 53.04 323.81 52.69 323.58 52.33L326.23 50.76C326.3 50.88 326.38 51.02 326.47 51.18 326.56 51.34 326.66 51.53 326.76 51.72 326.86 51.91 326.96 52.12 327.05 52.33 327.14 52.54 327.25 52.74 327.34 52.94 327.56 53.41 327.79 53.9 328.03 54.42 328.29 55.03 328.53 55.53 328.73 55.94 328.93 56.35 329.14 56.68 329.35 56.94 329.56 57.2 329.81 57.38 330.1 57.49 330.39 57.6 330.74 57.66 331.18 57.66 331.5 57.66 331.75 57.61 331.92 57.51 332.09 57.41 332.26 57.26 332.43 57.06 332.7 56.75 332.92 56.3 333.08 55.71 333.24 55.12 333.33 54.44 333.35 53.64 333.35 53.53 333.35 53.34 333.34 53.08 333.33 52.82 333.32 52.53 333.3 52.24 333.28 51.95 333.26 51.68 333.25 51.43 333.24 51.18 333.22 51.03 333.21 50.97L336.11 50.62 336.11 50.75C336.11 50.81 336.11 50.86 336.12 50.9 336.14 51.01 336.16 51.18 336.19 51.42 336.22 51.66 336.24 51.94 336.26 52.26 336.32 52.86 336.4 53.49 336.5 54.15 336.6 54.81 336.73 55.4 336.89 55.91 337.02 56.25 337.14 56.52 337.27 56.72 337.4 56.92 337.52 57.07 337.64 57.17 337.76 57.27 337.86 57.33 337.95 57.35 338.04 57.37 338.12 57.39 338.18 57.39 338.43 57.39 338.62 57.36 338.73 57.29 338.84 57.22 338.92 57.16 338.97 57.09 339.02 57.03 339.07 56.95 339.14 56.83 339.21 56.71 339.26 56.57 339.32 56.38 339.38 56.19 339.42 55.96 339.46 55.68 339.5 55.4 339.52 55.07 339.52 54.68 339.52 54.25 339.49 53.73 339.42 53.12 339.35 52.51 339.24 51.79 339.08 50.95L341.92 50.41Z" fill="#FFFDFD"/><path d="M344.79 63.48C344.79 62.8 344.92 62.15 345.18 61.55 345.44 60.95 345.79 60.42 346.24 59.97 346.69 59.52 347.21 59.16 347.81 58.89 348.41 58.62 349.06 58.49 349.75 58.49 350.44 58.49 351.08 58.62 351.68 58.89 352.28 59.16 352.81 59.51 353.26 59.97 353.71 60.43 354.07 60.95 354.34 61.55 354.61 62.15 354.74 62.79 354.74 63.48 354.74 64.17 354.61 64.82 354.34 65.42 354.07 66.02 353.72 66.55 353.26 67 352.8 67.45 352.28 67.8 351.68 68.06 351.08 68.32 350.44 68.45 349.75 68.45 349.06 68.45 348.41 68.32 347.81 68.06 347.21 67.8 346.68 67.45 346.24 67 345.8 66.55 345.44 66.03 345.18 65.42 344.92 64.81 344.79 64.17 344.79 63.48ZM347.18 63.48C347.18 63.83 347.25 64.16 347.39 64.48 347.53 64.8 347.71 65.07 347.95 65.3 348.19 65.53 348.46 65.72 348.77 65.86 349.08 66 349.41 66.07 349.77 66.07 350.13 66.07 350.46 66 350.77 65.86 351.08 65.72 351.36 65.54 351.6 65.3 351.84 65.06 352.02 64.79 352.16 64.48 352.3 64.17 352.37 63.84 352.37 63.48 352.37 63.12 352.3 62.79 352.16 62.48 352.02 62.17 351.84 61.89 351.6 61.65 351.36 61.41 351.09 61.23 350.77 61.09 350.45 60.95 350.12 60.88 349.77 60.88 349.42 60.88 349.09 60.95 348.77 61.09 348.45 61.23 348.18 61.41 347.95 61.65 347.72 61.89 347.53 62.16 347.39 62.48 347.25 62.8 347.18 63.13 347.18 63.48Z" fill="#FFFDFD"/><path d="M6.47 119.99C6 119.99 5.45 119.93 4.81 119.81 4.17 119.69 3.53 119.54 2.9 119.36 2.27 119.18 1.68 118.98 1.16 118.75 0.64 118.52 0.25 118.3 -4.44089e-16 118.08L1.2 115.33C1.56 115.56 2 115.79 2.5 116.01 3 116.23 3.55 116.42 4.13 116.58 4.71 116.74 5.3 116.86 5.91 116.94 6.52 117.02 7.11 117.03 7.68 116.98 8.25 116.93 8.77 116.81 9.26 116.61 9.75 116.41 10.16 116.12 10.49 115.72 10.75 115.42 10.79 114.85 10.59 114.02 10.48 113.54 10.31 113.04 10.07 112.52 9.83 112 9.54 111.48 9.21 110.95 8.88 110.42 8.5 109.92 8.09 109.42 7.68 108.92 7.25 108.46 6.81 108.04 6.37 107.62 5.91 107.24 5.46 106.91 5.01 106.58 4.55 106.31 4.11 106.12L5.3 103.45C5.88 103.71 6.46 104.06 7.04 104.48 7.62 104.9 8.19 105.37 8.75 105.9 9.31 106.43 9.83 107 10.33 107.61 10.83 108.22 11.29 108.85 11.7 109.5 12.11 110.15 12.47 110.8 12.77 111.46 13.07 112.12 13.3 112.75 13.44 113.38 13.56 113.93 13.62 114.42 13.62 114.86 13.62 115.3 13.58 115.69 13.5 116.03 13.42 116.37 13.31 116.67 13.17 116.92 13.03 117.17 12.89 117.39 12.73 117.58 11.83 118.66 10.58 119.38 8.97 119.73 8.6 119.83 8.21 119.9 7.8 119.94 7.39 119.98 6.96 120 6.5 120Z" fill="#FFFDFD"/><path d="M14.64 127.46C16.14 127.16 17.49 126.74 18.68 126.2 19.87 125.66 20.89 125.06 21.74 124.38 22.59 123.7 23.26 122.99 23.75 122.23 24.24 121.47 24.54 120.73 24.65 120 24.24 120 23.75 120.01 23.19 120 22.63 119.99 22.08 119.97 21.54 119.92 19.42 119.78 17.85 119.09 16.84 117.84 16.39 117.27 16.11 116.62 15.98 115.88 15.85 115.14 15.85 114.38 15.97 113.6 16.09 112.82 16.29 112.07 16.59 111.34 16.89 110.61 17.25 109.99 17.66 109.46 18.15 108.84 18.69 108.38 19.27 108.06 19.85 107.74 20.46 107.58 21.09 107.58 22.48 107.58 23.75 108.2 24.91 109.46 25.32 109.92 25.69 110.44 26.02 111.01 26.35 111.58 26.64 112.2 26.87 112.86 27.1 113.52 27.29 114.21 27.43 114.93 27.57 115.65 27.64 116.38 27.66 117.12L28.76 117.12C28.97 117.12 29.16 117.16 29.33 117.23 29.5 117.3 29.66 117.41 29.79 117.54 29.92 117.67 30.03 117.83 30.1 118 30.17 118.17 30.22 118.37 30.22 118.57 30.22 118.77 30.18 118.95 30.1 119.12 30.02 119.29 29.92 119.44 29.79 119.57 29.66 119.7 29.5 119.8 29.33 119.88 29.16 119.96 28.96 119.99 28.76 119.99L27.44 119.99C27.15 121.44 26.62 122.74 25.85 123.91 25.08 125.08 24.16 126.1 23.07 126.96 21.98 127.82 20.77 128.54 19.43 129.1 18.09 129.66 16.72 130.05 15.3 130.27L14.63 127.44ZM21.1 110.48C20.82 110.48 20.55 110.59 20.29 110.81 20.03 111.03 19.81 111.31 19.61 111.65 19.41 111.99 19.24 112.37 19.1 112.8 18.96 113.23 18.87 113.64 18.81 114.06 18.75 114.48 18.75 114.86 18.81 115.22 18.87 115.58 18.97 115.86 19.13 116.06 19.28 116.26 19.46 116.41 19.69 116.54 19.92 116.67 20.15 116.76 20.39 116.83 20.63 116.9 20.88 116.96 21.12 116.99 21.36 117.02 21.57 117.05 21.74 117.06 22.36 117.1 22.92 117.11 23.43 117.1 23.94 117.09 24.39 117.07 24.77 117.04 24.74 116.42 24.67 115.84 24.55 115.27 24.43 114.7 24.28 114.19 24.1 113.71 23.92 113.23 23.71 112.8 23.48 112.41 23.25 112.02 23.01 111.69 22.76 111.41 22.66 111.31 22.55 111.21 22.43 111.09 22.31 110.97 22.18 110.88 22.03 110.78 21.88 110.68 21.74 110.61 21.58 110.55 21.42 110.49 21.26 110.46 21.09 110.46Z" fill="#FFFDFD"/><path d="M27.43 118.59C27.43 118.4 27.46 118.23 27.53 118.05 27.6 117.87 27.69 117.73 27.82 117.6 27.95 117.47 28.09 117.36 28.25 117.29 28.41 117.22 28.59 117.16 28.78 117.14 29.36 117.14 29.88 117.03 30.34 116.8 30.8 116.57 31.21 116.27 31.57 115.9 31.93 115.53 32.24 115.09 32.51 114.6 32.78 114.11 33.02 113.6 33.21 113.07 33.4 112.54 33.57 112 33.7 111.46 33.83 110.92 33.95 110.41 34.04 109.93L36.94 110.55C36.86 110.78 36.77 111.09 36.65 111.46 36.53 111.83 36.43 112.23 36.32 112.65 36.21 113.07 36.12 113.51 36.04 113.95 35.96 114.39 35.92 114.81 35.92 115.19 35.92 115.45 35.94 115.71 35.99 115.96 36.04 116.21 36.12 116.43 36.24 116.63 36.36 116.83 36.52 116.98 36.72 117.1 36.92 117.22 37.18 117.28 37.5 117.28 38 117.28 38.44 117.14 38.84 116.87 39.24 116.6 39.59 116.24 39.89 115.8 40.19 115.36 40.46 114.86 40.69 114.31 40.92 113.76 41.11 113.19 41.27 112.61 41.43 112.03 41.57 111.47 41.67 110.93 41.77 110.39 41.86 109.92 41.92 109.52L44.73 110.03C44.62 110.66 44.53 111.21 44.46 111.66 44.39 112.11 44.32 112.6 44.26 113.11 44.2 113.62 44.17 114.08 44.17 114.48 44.17 114.84 44.2 115.19 44.25 115.51 44.3 115.83 44.39 116.13 44.51 116.37 44.63 116.61 44.79 116.82 44.99 116.99 45.19 117.16 45.44 117.25 45.73 117.28 46.18 117.34 46.55 117.33 46.85 117.27 47.15 117.21 47.38 117.11 47.56 117 47.74 116.89 47.87 116.77 47.95 116.64 48.03 116.51 48.09 116.42 48.12 116.36L48.11 116.36C48.25 116.15 48.34 115.9 48.4 115.63 48.46 115.36 48.48 115.06 48.48 114.75 48.48 114.19 48.4 113.59 48.25 112.95 48.1 112.31 47.92 111.67 47.71 111.05 47.5 110.43 47.28 109.85 47.05 109.32 46.82 108.79 46.63 108.37 46.47 108.05L49.03 106.7C49.08 106.8 49.17 106.99 49.31 107.26 49.45 107.53 49.6 107.88 49.78 108.29 49.96 108.7 50.14 109.15 50.33 109.66 50.52 110.17 50.69 110.7 50.85 111.26 51.01 111.82 51.14 112.4 51.24 112.98 51.34 113.56 51.39 114.14 51.39 114.69 51.39 115.53 51.27 116.29 51.04 116.97 50.81 117.65 50.45 118.23 49.99 118.71 49.53 119.19 48.93 119.56 48.22 119.82 47.51 120.08 46.68 120.2 45.74 120.19 45.36 120.19 44.98 120.13 44.61 120.01 44.24 119.89 43.88 119.73 43.54 119.53 43.2 119.33 42.88 119.1 42.59 118.83 42.3 118.56 42.05 118.27 41.84 117.96 41.25 118.64 40.59 119.19 39.85 119.59 39.11 119.99 38.32 120.19 37.49 120.19 37.13 120.19 36.76 120.14 36.37 120.05 35.98 119.96 35.62 119.82 35.26 119.63 34.9 119.44 34.59 119.21 34.3 118.94 34.01 118.67 33.79 118.35 33.63 117.99 33.04 118.61 32.38 119.09 31.64 119.45 30.9 119.81 30.01 120 28.97 120.02L28.74 120.02C28.55 120.02 28.38 119.97 28.21 119.89 28.04 119.81 27.9 119.71 27.78 119.58 27.66 119.45 27.56 119.3 27.49 119.13 27.42 118.96 27.39 118.78 27.39 118.58ZM36.63 102.58 39 100.19 41.4 102.59 39.03 104.98 36.63 102.58ZM40.16 98.17 42.33 96 44.51 98.18 42.34 100.35 40.16 98.17ZM43.06 102.59 45.43 100.22 47.83 102.62 45.46 104.99 43.06 102.59Z" fill="#FFFDFD"/><path d="M72.93 129.56C72.08 129.56 71.2 129.52 70.29 129.44 69.38 129.36 68.51 129.19 67.67 128.94 66.83 128.69 66.06 128.33 65.36 127.86 64.66 127.39 64.08 126.78 63.63 126.02 62.58 124.48 62.11 122.48 62.22 120.01 62.29 118.67 62.53 117.21 62.94 115.63 63.35 114.05 63.94 112.32 64.71 110.46L67.39 111.54C66.14 114.61 65.4 117.22 65.17 119.38 64.94 121.54 65.22 123.22 66.01 124.42 66.41 125 66.91 125.44 67.5 125.75 68.09 126.06 68.71 126.28 69.35 126.42 69.99 126.56 70.62 126.63 71.25 126.65 71.88 126.67 72.44 126.68 72.93 126.68 73.21 126.68 73.61 126.66 74.13 126.61 74.65 126.56 75.21 126.49 75.81 126.38 76.41 126.27 77.03 126.13 77.66 125.95 78.29 125.77 78.86 125.55 79.37 125.28 79.88 125.01 80.3 124.7 80.62 124.34 80.94 123.98 81.1 123.56 81.1 123.08 81.1 122.96 81.05 122.82 80.94 122.66 80.83 122.5 80.66 122.33 80.42 122.14 80.18 121.95 79.87 121.76 79.49 121.55 79.11 121.34 78.64 121.14 78.08 120.93 77.74 120.81 77.4 120.7 77.06 120.6 76.72 120.5 76.41 120.41 76.12 120.34 75.83 120.27 75.56 120.2 75.31 120.14 75.06 120.08 74.87 120.04 74.71 120.01L74.39 119.95 74.61 117.11 85.89 117.11C86.29 117.12 86.63 117.26 86.92 117.53 87.21 117.8 87.34 118.15 87.34 118.56 87.34 118.97 87.2 119.31 86.92 119.59 86.64 119.87 86.3 120 85.89 120L82.39 120C82.72 120.27 82.99 120.55 83.2 120.83 83.41 121.11 83.57 121.38 83.69 121.64 83.81 121.9 83.89 122.16 83.92 122.4 83.95 122.64 83.98 122.87 83.98 123.07 83.98 123.9 83.78 124.64 83.41 125.28 83.04 125.92 82.55 126.49 81.95 126.96 81.35 127.43 80.66 127.84 79.88 128.17 79.1 128.5 78.32 128.76 77.5 128.97 76.68 129.18 75.88 129.32 75.08 129.41 74.28 129.5 73.56 129.54 72.91 129.54Z" fill="#FFFDFD"/><path d="M84.05 118.57C84.05 118.17 84.19 117.83 84.46 117.57 84.73 117.31 85.07 117.16 85.47 117.14L85.48 117.14C86.3 117.14 86.99 117.01 87.56 116.74 88.13 116.47 88.62 116.12 89.04 115.67 89.46 115.22 89.83 114.72 90.14 114.15 90.45 113.58 90.76 112.99 91.06 112.39 91.31 111.86 91.57 111.36 91.82 110.88 92.07 110.4 92.37 109.96 92.7 109.56 93.58 108.49 94.64 107.95 95.89 107.95 97.36 107.95 98.59 108.54 99.57 109.72 100.35 110.66 100.82 111.83 100.98 113.25 101.08 113.92 101.09 114.58 101.02 115.23 100.95 115.88 100.81 116.48 100.6 117.06 100.32 117.76 99.94 118.34 99.47 118.8 99 119.26 98.46 119.56 97.84 119.73 96.75 120.02 95.51 119.89 94.13 119.33 93.18 118.96 92.19 118.39 91.16 117.63 91.09 117.7 91.04 117.74 91.01 117.76 89.55 119.26 87.71 120.02 85.47 120.02L85.46 120.02C85.06 120.02 84.72 119.88 84.45 119.6 84.18 119.32 84.04 118.98 84.04 118.58ZM92.85 115.24C93.74 115.89 94.55 116.37 95.28 116.66 96.01 116.95 96.62 117.03 97.11 116.89 97.28 116.85 97.44 116.74 97.59 116.55 97.74 116.36 97.88 116.13 97.99 115.83 98.1 115.53 98.18 115.2 98.22 114.82 98.26 114.44 98.26 114.03 98.2 113.59 98.2 113.52 98.17 113.4 98.13 113.24 98.09 113.08 98.03 112.89 97.96 112.68 97.89 112.47 97.79 112.26 97.67 112.04 97.55 111.82 97.41 111.62 97.25 111.44 97.09 111.26 96.89 111.11 96.66 110.99 96.43 110.87 96.18 110.81 95.88 110.81 95.68 110.81 95.5 110.87 95.33 110.98 95.16 111.09 94.99 111.27 94.82 111.5 94.65 111.73 94.47 112.03 94.28 112.38 94.09 112.73 93.87 113.15 93.63 113.63L92.84 115.23Z" fill="#FFFDFD"/><path d="M112.14 130.72 111.6 117.14C111.6 117.08 111.6 116.94 111.6 116.73 111.6 116.52 111.64 116.27 111.71 115.99 111.78 115.71 111.9 115.42 112.06 115.13 112.22 114.84 112.47 114.57 112.78 114.33 112.91 114.23 113.06 114.14 113.24 114.04 113.42 113.94 113.63 113.88 113.86 113.83 114.09 113.78 114.36 113.77 114.64 113.78 114.92 113.79 115.25 113.84 115.6 113.94 115.71 113.61 115.84 113.26 116 112.89 116.16 112.52 116.34 112.13 116.54 111.73 116.84 111.16 117.15 110.66 117.46 110.23 117.77 109.8 118.08 109.42 118.39 109.1 119.39 108.12 120.46 107.65 121.61 107.69 122.4 107.72 123.12 107.89 123.76 108.21 124.4 108.53 124.96 108.99 125.43 109.61 125.79 110.09 126.07 110.64 126.28 111.27 126.49 111.9 126.61 112.54 126.67 113.21 126.73 113.88 126.7 114.55 126.61 115.21 126.52 115.87 126.35 116.48 126.12 117.04 125.84 117.75 125.47 118.32 125.02 118.75 124.57 119.18 124.06 119.44 123.5 119.54 123.23 119.58 122.92 119.57 122.59 119.53 122.26 119.49 121.88 119.39 121.45 119.26 121.02 119.13 120.53 118.96 119.99 118.75 119.45 118.54 118.83 118.29 118.12 118.01 117.57 117.78 117.03 117.55 116.49 117.34 115.95 117.13 115.43 116.94 114.94 116.78 114.85 116.75 114.77 116.73 114.7 116.71 114.63 116.69 114.57 116.68 114.52 116.68 114.49 116.83 114.48 116.94 114.48 117.03L115.01 130.73 112.14 130.73ZM119.24 115.32C119.69 115.52 120.13 115.69 120.55 115.85 120.97 116.01 121.37 116.16 121.74 116.3 122.11 116.44 122.45 116.54 122.76 116.62 123.07 116.7 123.26 116.74 123.32 116.75 123.47 116.52 123.59 116.22 123.68 115.87 123.77 115.52 123.84 115.15 123.87 114.77 123.9 114.39 123.91 114.01 123.89 113.63 123.87 113.25 123.82 112.92 123.73 112.64 123.58 112.14 123.41 111.75 123.2 111.47 122.99 111.19 122.78 110.98 122.56 110.85 122.34 110.72 122.14 110.63 121.95 110.6 121.76 110.57 121.61 110.56 121.5 110.56 121.16 110.56 120.78 110.77 120.36 111.2 119.94 111.63 119.53 112.25 119.13 113.05 118.95 113.37 118.8 113.7 118.67 114.02 118.54 114.34 118.42 114.65 118.31 114.92L119.23 115.3Z" fill="#FFFDFD"/><path d="M145.23 116.61C145.58 116.81 145.9 116.93 146.2 117 146.5 117.07 146.68 117.11 146.76 117.12L147.2 117.12C147.2 117.12 147.33 117.13 147.33 117.13 147.53 117.13 147.71 117.17 147.89 117.24 148.07 117.31 148.22 117.42 148.35 117.55 148.48 117.68 148.59 117.84 148.66 118.01 148.73 118.18 148.78 118.37 148.78 118.57 148.78 118.98 148.64 119.32 148.36 119.6 148.08 119.88 147.74 120.01 147.33 120.01L146.61 120.01C146.5 120.01 146.29 119.99 145.96 119.96 145.63 119.93 145.26 119.83 144.84 119.67 144.42 119.51 143.98 119.27 143.53 118.94 143.08 118.61 142.67 118.16 142.31 117.57 141.58 118.39 140.74 119.05 139.79 119.55 138.84 120.05 137.75 120.45 136.51 120.75 135.62 120.94 134.72 121.04 133.81 121.08 132.9 121.12 131.99 121.06 131.09 120.91L131.59 118.05C132.21 118.17 132.88 118.21 133.63 118.19 134.38 118.17 135.12 118.07 135.87 117.9 135.71 117.03 135.48 116.13 135.17 115.21 134.86 114.29 134.51 113.37 134.12 112.45 133.73 111.53 133.3 110.63 132.85 109.75 132.4 108.87 131.95 108.03 131.51 107.24 131.07 106.45 130.64 105.72 130.22 105.04 129.8 104.36 129.44 103.79 129.12 103.3 128.8 102.81 128.55 102.43 128.36 102.14 128.17 101.85 128.07 101.71 128.06 101.7L130.42 100.03C130.42 100.03 130.54 100.23 130.75 100.53 130.96 100.83 131.24 101.24 131.58 101.77 131.92 102.3 132.31 102.91 132.75 103.63 133.19 104.35 133.65 105.14 134.13 106 135.31 108.09 136.27 110.04 137.02 111.85 137.77 113.66 138.3 115.34 138.63 116.88 139.01 116.67 139.36 116.41 139.68 116.12 140 115.83 140.27 115.5 140.49 115.15 140.71 114.8 140.87 114.42 140.97 114.01 141.07 113.6 141.1 113.18 141.05 112.74 140.98 111.68 140.9 110.57 140.81 109.43 140.72 108.29 140.62 107.17 140.53 106.07 140.44 104.97 140.34 103.93 140.25 102.94 140.16 101.95 140.08 101.09 140.01 100.34 139.94 99.59 139.89 99 139.84 98.55 139.79 98.1 139.77 97.88 139.77 97.87L142.64 97.56C142.64 97.56 142.66 97.73 142.69 98.03 142.72 98.33 142.77 98.74 142.81 99.26 142.85 99.78 142.92 100.39 142.99 101.09 143.06 101.79 143.13 102.55 143.2 103.38 143.27 104.21 143.35 105.06 143.43 105.96 143.51 106.86 143.58 107.78 143.66 108.7 143.74 109.62 143.8 110.54 143.87 111.44 143.94 112.34 143.99 113.21 144.04 114.03 144.06 114.32 144.09 114.6 144.14 114.85 144.19 115.1 144.25 115.34 144.34 115.55 144.43 115.76 144.55 115.96 144.69 116.13 144.83 116.3 145.03 116.46 145.26 116.59Z" fill="#FFFDFD"/><path d="M158.52 111.16C158.19 110.8 157.8 110.47 157.36 110.18 156.99 109.93 156.54 109.7 156.01 109.49 155.48 109.28 154.89 109.18 154.22 109.18 153.65 109.18 153.16 109.27 152.73 109.47 152.3 109.67 151.94 109.92 151.65 110.24 151.36 110.56 151.14 110.93 151 111.35 150.86 111.77 150.78 112.2 150.78 112.65 150.78 113.27 150.92 113.82 151.19 114.32 151.46 114.82 151.83 115.24 152.28 115.59 152.73 115.94 153.26 116.21 153.85 116.38 154.44 116.55 155.07 116.62 155.73 116.59 156.32 116.55 156.87 116.5 157.4 116.44 157.93 116.38 158.4 116.31 158.81 116.23 159.29 116.15 159.74 116.06 160.16 115.97L160.51 118.75C159.96 118.9 159.34 119.04 158.64 119.19 157.94 119.34 157.13 119.47 156.19 119.59 155.25 119.71 154.19 119.8 153 119.88 151.81 119.96 150.43 120 148.88 120L145.69 120.03C145.28 120.03 144.93 119.89 144.65 119.62 144.37 119.35 144.23 119 144.23 118.59 144.23 118.18 144.37 117.84 144.65 117.56 144.93 117.28 145.28 117.15 145.69 117.15L149.85 117.11C149.14 116.47 148.64 115.78 148.35 115.05 148.06 114.32 147.92 113.52 147.92 112.66 147.92 111.8 148.08 110.99 148.4 110.22 148.72 109.45 149.16 108.78 149.73 108.21 150.3 107.64 150.96 107.18 151.73 106.84 152.5 106.5 153.33 106.34 154.24 106.34 154.69 106.34 155.12 106.38 155.54 106.45 155.96 106.52 156.36 106.62 156.73 106.75 157.1 106.88 157.45 107.02 157.77 107.17 158.09 107.32 158.39 107.49 158.65 107.65 159.27 108.04 159.84 108.48 160.33 108.97L158.53 111.18Z" fill="#FFFDFD"/><path d="M163.79 119.99C163.94 117.77 164.03 115.68 164.06 113.7 164.09 111.72 164.09 109.9 164.06 108.22 164.03 106.54 163.96 105.04 163.88 103.7 163.8 102.36 163.71 101.22 163.62 100.29 163.53 99.36 163.46 98.63 163.39 98.12 163.32 97.61 163.29 97.35 163.29 97.33L166.16 96.89C166.18 96.95 166.25 97.54 166.38 98.66 166.45 99.22 166.51 99.82 166.56 100.47 166.61 101.12 166.66 101.82 166.71 102.56 166.76 103.3 166.8 104.01 166.83 104.68 166.86 105.35 166.88 105.99 166.9 106.61 166.96 108.41 166.98 110.44 166.97 112.73 166.96 115.02 166.86 117.49 166.68 120.16L163.79 120Z" fill="#FFFDFD"/><path d="M180.07 120.01 180.07 98.54 187.47 98.54C189.14 98.54 190.41 98.64 191.29 98.85 192.53 99.13 193.58 99.65 194.44 100.39 195.58 101.36 196.43 102.58 196.99 104.06 197.55 105.54 197.82 107.24 197.82 109.17 197.82 110.41 197.71 111.53 197.49 112.54 197.27 113.55 196.97 114.44 196.6 115.22 196.23 116 195.8 116.67 195.32 117.23 194.84 117.79 194.34 118.24 193.82 118.59 193.12 119.06 192.27 119.42 191.27 119.66 190.27 119.9 189.12 120.03 187.81 120.03L180.06 120.03ZM182.91 117.48 187.49 117.48C188.9 117.48 190 117.35 190.82 117.08 191.64 116.81 192.28 116.45 192.75 115.97 193.42 115.3 193.95 114.39 194.32 113.26 194.69 112.13 194.88 110.75 194.88 109.11 194.88 106.85 194.51 105.13 193.77 103.94 193.04 102.73 192.14 101.92 191.09 101.51 190.33 101.22 189.1 101.07 187.41 101.07L182.9 101.07 182.9 117.48Z" fill="#FFFDFD"/><path d="M200.1 120.01 200.1 98.54 215.63 98.54 215.63 101.07 202.94 101.07 202.94 107.65 214.82 107.65 214.82 110.17 202.94 110.17 202.94 117.48 216.12 117.48 216.12 120.01 200.09 120.01Z" fill="#FFFDFD"/><path d="M218 120.01 218 98.54 220.92 98.54 232.2 115.4 232.2 98.54 234.92 98.54 234.92 120.01 232 120.01 220.72 103.13 220.72 120.01 218 120.01Z" fill="#FFFDFD"/><path d="M243.23 120.01 243.23 101.07 236.15 101.07 236.15 98.54 253.17 98.54 253.17 101.07 246.07 101.07 246.07 120.01 243.23 120.01Z" fill="#FFFDFD"/><path d="M263.49 120.01 263.49 98.54 271.55 98.54C273.19 98.54 274.51 98.76 275.5 99.19 276.49 99.62 277.27 100.3 277.82 101.2 278.39 102.09 278.67 103.03 278.67 104.03 278.67 104.49 278.61 104.94 278.48 105.38 278.35 105.82 278.17 106.23 277.92 106.63 277.67 107.03 277.36 107.38 276.98 107.72 276.6 108.06 276.17 108.35 275.67 108.59 276.31 108.79 276.89 109.05 277.39 109.37 277.89 109.69 278.32 110.09 278.66 110.54 279 110.99 279.27 111.49 279.44 112.03 279.61 112.57 279.7 113.16 279.7 113.79 279.7 114.79 279.49 115.72 279.06 116.6 278.63 117.47 278.11 118.13 277.49 118.59 276.87 119.06 276.08 119.41 275.15 119.65 274.22 119.89 273.06 120.01 271.68 120.01L263.49 120.01ZM266.33 107.56 270.97 107.56C272.22 107.56 273.12 107.48 273.68 107.31 275.14 106.88 275.86 105.9 275.86 104.37 275.86 103.66 275.69 103.03 275.35 102.49 275.01 101.95 274.52 101.58 273.88 101.38 273.25 101.17 272.16 101.07 270.61 101.07L266.32 101.07 266.32 107.56ZM266.33 117.48 271.68 117.48C272.63 117.48 273.27 117.45 273.61 117.38 274.26 117.26 274.81 117.07 275.25 116.8 275.69 116.53 276.05 116.13 276.33 115.61 276.61 115.07 276.75 114.47 276.75 113.79 276.75 112.99 276.54 112.29 276.13 111.7 275.72 111.11 275.15 110.7 274.42 110.46 273.72 110.22 272.67 110.09 271.29 110.09L266.32 110.09 266.32 117.47Z" fill="#FFFDFD"/><path d="M295.65 98.53 298.49 98.53 298.49 110.94C298.49 113.08 298.25 114.79 297.76 116.08 297.28 117.33 296.4 118.37 295.11 119.19 293.83 119.98 292.16 120.38 290.1 120.38 288.04 120.38 286.42 120.04 285.16 119.35 283.9 118.66 282.98 117.66 282.43 116.34 281.88 115.01 281.61 113.22 281.61 110.95L281.61 98.54 284.45 98.54 284.45 110.93C284.45 112.78 284.62 114.15 284.96 115.06 285.31 115.93 285.91 116.61 286.75 117.1 287.59 117.58 288.63 117.82 289.86 117.82 291.95 117.82 293.44 117.35 294.33 116.4 295.22 115.45 295.66 113.63 295.66 110.94L295.66 98.55Z" fill="#FFFDFD"/><path d="M302.46 112.88C302.59 113.95 302.88 114.84 303.35 115.52 303.82 116.2 304.53 116.77 305.51 117.2 306.48 117.62 307.58 117.83 308.81 117.83 309.64 117.83 310.39 117.75 311.05 117.56 311.71 117.37 312.28 117.11 312.75 116.77 313.22 116.43 313.57 116.04 313.81 115.6 314.05 115.16 314.16 114.68 314.14 114.19 314.14 113.52 313.95 112.93 313.56 112.42 313.17 111.91 312.53 111.5 311.62 111.15 311.34 111.04 310.88 110.9 310.24 110.73 309.6 110.56 308.79 110.35 307.79 110.11 306.79 109.87 305.95 109.63 305.27 109.41 304.59 109.19 304.04 108.97 303.64 108.76 302.6 108.22 301.84 107.56 301.34 106.77 300.84 105.98 300.59 105.09 300.59 104.09 300.59 103.01 300.9 102 301.51 101.06 302.13 100.1 303.02 99.39 304.21 98.91 305.41 98.42 306.72 98.18 308.15 98.18 309.74 98.18 311.15 98.44 312.36 98.95 313.57 99.46 314.51 100.22 315.17 101.21 315.83 102.2 316.18 103.33 316.22 104.59L313.5 104.8C313.35 103.44 312.86 102.42 312.01 101.72 311.16 101.02 309.92 100.68 308.27 100.68 306.62 100.68 305.31 101 304.51 101.63 303.73 102.26 303.34 103.02 303.34 103.9 303.34 104.67 303.62 105.31 304.17 105.8 304.71 106.3 306.13 106.81 308.45 107.34 310.75 107.85 312.34 108.3 313.21 108.7 314.47 109.29 315.4 110.02 315.99 110.9 316.58 111.78 316.88 112.79 316.88 113.95 316.88 115.11 316.55 116.18 315.9 117.19 315.25 118.19 314.3 118.97 313.07 119.55 311.85 120.11 310.47 120.38 308.94 120.38 306.99 120.38 305.36 120.1 304.05 119.54 302.74 118.98 301.71 118.13 300.95 116.98 300.22 115.86 299.83 114.57 299.78 113.11L302.46 112.88Z" fill="#FFFDFD"/><path d="M324.19 120.01 324.19 101.07 317.11 101.07 317.11 98.54 334.13 98.54 334.13 101.07 327.03 101.07 327.03 120.01 324.19 120.01Z" fill="#FFFDFD"/><path d="M335.96 120.01 335.96 98.54 351.49 98.54 351.49 101.07 338.8 101.07 338.8 107.65 350.68 107.65 350.68 110.17 338.8 110.17 338.8 117.48 351.98 117.48 351.98 120.01 335.95 120.01Z" fill="#FFFDFD"/><path d="M353.93 120.01 353.93 98.54 363.45 98.54C365.37 98.54 366.83 98.74 367.82 99.13 368.82 99.51 369.61 100.19 370.21 101.17 370.81 102.15 371.1 103.23 371.1 104.41 371.1 105.93 370.61 107.22 369.62 108.26 368.62 109.31 367.1 109.98 365.05 110.25 365.81 110.62 366.38 110.98 366.76 111.32 367.18 111.7 367.59 112.13 367.98 112.6 368.37 113.07 368.75 113.6 369.12 114.18L372.86 120.02 369.29 120.02 366.45 115.55C365.83 114.56 365.29 113.77 364.84 113.16 364.39 112.55 363.99 112.08 363.63 111.72 363.27 111.36 362.94 111.11 362.63 110.95 362.32 110.79 362 110.66 361.66 110.58 361.36 110.51 360.83 110.48 360.08 110.48L356.78 110.48 356.78 120.02 353.94 120.02ZM356.77 108.01 362.88 108.01C363.52 108.01 364.1 107.98 364.6 107.91 365.1 107.84 365.54 107.74 365.93 107.6 366.32 107.46 366.64 107.28 366.9 107.07 367.16 106.86 367.4 106.61 367.6 106.32 367.98 105.72 368.17 105.08 368.17 104.39 368.17 103.37 367.8 102.54 367.06 101.89 366.34 101.24 365.18 100.91 363.57 100.91L356.77 100.91 356.77 108.01Z" fill="#FFFDFD"/></svg>