<svg viewBox="0 0 379.84 121.98" xmlns="http://www.w3.org/2000/svg" xmlns:xlink="http://www.w3.org/1999/xlink" id="Layer_1" overflow="hidden"><defs><linearGradient x1="202.54" y1="1.41" x2="179.6" y2="115.06" gradientUnits="userSpaceOnUse" id="linear-gradient"><stop offset="0" stop-color="#FFFFFF"/><stop offset="0.26" stop-color="#FBFBFB"/><stop offset="0.47" stop-color="#F1F1F1"/><stop offset="0.66" stop-color="#E0E0E0"/><stop offset="0.85" stop-color="#C8C8C9"/><stop offset="1" stop-color="#AEAEAF"/></linearGradient><linearGradient x1="192.14" y1="-42.69" x2="192.14" y2="66.33" gradientUnits="userSpaceOnUse" id="linear-gradient-2"><stop offset="0" stop-color="#FFFFFF"/><stop offset="0.78" stop-color="#E7E7E9"/><stop offset="1" stop-color="#E0E0E2"/></linearGradient><linearGradient x1="57" y1="-46.18" x2="218.85" y2="121.32" gradientUnits="userSpaceOnUse" id="linear-gradient-3"><stop offset="0" stop-color="#FFFFFF"/><stop offset="0.02" stop-color="#FBFBFB" stop-opacity="0.98"/><stop offset="0.36" stop-color="#C7C7C7" stop-opacity="0.64"/><stop offset="0.51" stop-color="#B3B3B3" stop-opacity="0.5"/></linearGradient></defs><path d="M377.33 64.35C377.33 96.18 355.62 121.98 328.84 121.98L48.49 121.98C21.71 121.98 0 96.18 0 64.35L0 64.35C0 32.52 22.26 6.72 49.04 6.72L328.84 6.72C355.62 6.72 377.33 32.52 377.33 64.35L377.33 64.35Z" opacity="0.57"/><g><path d="M379.84 57.63C379.84 89.46 358.13 115.26 331.35 115.26L51 115.26C24.22 115.26 2.51 89.46 2.51 57.63L2.51 57.63C2.51 25.8 24.76 0 51.54 0L331.35 0C358.13 0 379.84 25.8 379.84 57.63L379.84 57.63Z" fill="url(#linear-gradient)"/><path d="M377.99 57.63C377.99 87.74 356.64 112.14 330.3 112.14L53.98 112.14C27.64 112.14 6.29 87.73 6.29 57.63L6.29 57.63C6.29 27.53 27.64 3.12 53.98 3.12L330.29 3.12C356.63 3.12 377.98 27.52 377.98 57.63L377.98 57.63Z" fill="url(#linear-gradient-2)"/></g><path d="M276.1 3.12C222.45 6.12 84.24 11.77 56.01 41.24 37.88 60.17 34.53 82.52 39.95 107.95 20.19 99.48 13.91 83 11.36 75.48 8.39 66.72 3.53 29.9 30.24 12.48 44.73 3.02 54.95 3.65 54.95 3.65 54.95 3.65 231.45 3.12 276.1 3.12Z" fill="url(#linear-gradient-3)" opacity="0.78"/><g><path d="M128.24 53.42 127.7 39.84C127.7 39.78 127.7 39.64 127.7 39.43 127.7 39.22 127.74 38.97 127.81 38.69 127.88 38.41 128 38.12 128.16 37.82 128.33 37.52 128.57 37.26 128.88 37.02 129.01 36.92 129.16 36.83 129.34 36.73 129.52 36.64 129.73 36.57 129.96 36.52 130.19 36.48 130.46 36.46 130.74 36.47 131.02 36.48 131.35 36.53 131.7 36.63 131.81 36.3 131.94 35.95 132.1 35.58 132.26 35.21 132.44 34.82 132.64 34.42 132.94 33.85 133.25 33.35 133.56 32.92 133.87 32.49 134.18 32.11 134.49 31.79 135.49 30.81 136.56 30.34 137.71 30.38 138.5 30.41 139.22 30.58 139.86 30.9 140.5 31.22 141.06 31.68 141.53 32.3 141.89 32.78 142.17 33.33 142.38 33.96 142.59 34.59 142.71 35.23 142.77 35.9 142.82 36.57 142.8 37.23 142.71 37.9 142.62 38.57 142.45 39.17 142.22 39.73 141.94 40.44 141.57 41.01 141.12 41.44 140.67 41.87 140.16 42.13 139.6 42.23 139.33 42.27 139.02 42.26 138.69 42.22 138.36 42.18 137.98 42.08 137.55 41.95 137.12 41.82 136.63 41.65 136.09 41.44 135.55 41.23 134.93 40.98 134.22 40.7 133.67 40.47 133.13 40.24 132.59 40.03 132.05 39.82 131.53 39.63 131.04 39.47 130.95 39.44 130.87 39.42 130.8 39.4 130.73 39.38 130.67 39.37 130.62 39.37 130.59 39.52 130.58 39.63 130.58 39.72L131.11 53.42 128.24 53.42ZM135.34 38.02C135.79 38.22 136.23 38.39 136.65 38.55 137.07 38.71 137.47 38.86 137.84 39 138.21 39.14 138.55 39.24 138.86 39.32 139.17 39.4 139.36 39.44 139.42 39.45 139.57 39.22 139.69 38.92 139.78 38.57 139.87 38.22 139.94 37.85 139.97 37.47 140 37.09 140.01 36.71 139.99 36.34 139.97 35.96 139.92 35.63 139.83 35.35 139.68 34.85 139.51 34.46 139.3 34.18 139.09 33.9 138.88 33.69 138.66 33.56 138.44 33.43 138.24 33.34 138.05 33.31 137.86 33.28 137.71 33.27 137.6 33.27 137.26 33.27 136.88 33.48 136.46 33.91 136.04 34.34 135.63 34.96 135.23 35.76 135.05 36.08 134.9 36.41 134.77 36.73 134.64 37.06 134.52 37.36 134.41 37.63L135.33 38.01Z"/><path d="M145.53 42.7C145.68 40.48 145.77 38.39 145.8 36.41 145.83 34.43 145.83 32.61 145.8 30.93 145.76 29.25 145.7 27.75 145.62 26.41 145.54 25.07 145.45 23.93 145.36 23 145.27 22.07 145.2 21.34 145.13 20.83 145.06 20.32 145.03 20.06 145.03 20.04L147.9 19.6C147.92 19.66 147.99 20.25 148.12 21.37 148.19 21.93 148.25 22.53 148.3 23.18 148.35 23.83 148.4 24.53 148.45 25.27 148.5 26.01 148.54 26.72 148.57 27.39 148.6 28.06 148.62 28.7 148.64 29.32 148.7 31.12 148.72 33.16 148.71 35.44 148.7 37.72 148.6 40.2 148.42 42.87L145.53 42.71Z"/><path d="M157.92 41.7C157.92 42.55 157.8 43.37 157.55 44.18 157.3 44.99 156.95 45.75 156.51 46.49 156.07 47.23 155.54 47.94 154.93 48.61 154.32 49.28 153.66 49.91 152.94 50.51 152.22 51.11 151.47 51.66 150.67 52.16 149.87 52.66 149.07 53.12 148.25 53.53L146.99 50.94C147.69 50.58 148.39 50.18 149.08 49.75 149.77 49.32 150.43 48.86 151.04 48.36 151.65 47.86 152.22 47.33 152.74 46.78 153.26 46.23 153.69 45.64 154.05 45.04 154.41 44.44 154.67 43.81 154.85 43.16 155.03 42.51 155.08 41.84 155.01 41.15L155.01 41.18C154.94 40.62 154.84 40.02 154.7 39.39 154.56 38.75 154.4 38.12 154.23 37.51 154.06 36.9 153.89 36.32 153.73 35.77 153.57 35.23 153.43 34.78 153.31 34.42L156.06 33.57C156.43 34.7 156.79 35.67 157.15 36.46 157.51 37.25 157.87 37.91 158.25 38.41 158.63 38.91 159.02 39.28 159.43 39.52 159.84 39.76 160.29 39.87 160.78 39.87L160.85 39.87C161.06 39.87 161.25 39.91 161.42 39.99 161.59 40.07 161.75 40.17 161.88 40.31 162.01 40.44 162.11 40.6 162.19 40.77 162.27 40.94 162.3 41.13 162.3 41.33 162.3 41.74 162.16 42.08 161.88 42.35 161.6 42.62 161.26 42.75 160.85 42.75L160.84 42.75C160.7 42.75 160.53 42.75 160.31 42.74 160.09 42.73 159.85 42.69 159.58 42.62 159.31 42.55 159.04 42.44 158.75 42.3 158.46 42.16 158.19 41.95 157.93 41.68L157.93 41.74Z"/><path d="M159.2 41.29C159.2 40.88 159.35 40.54 159.64 40.26 159.93 39.98 160.31 39.84 160.78 39.84L162.32 39.84C162.91 39.84 163.52 39.84 164.15 39.82 164.78 39.81 165.39 39.75 165.97 39.64 166.55 39.54 167.08 39.38 167.55 39.16 168.02 38.94 168.4 38.62 168.67 38.21 168.99 37.72 169.18 37.19 169.23 36.61 169.28 36.03 169.23 35.41 169.05 34.73 168.94 34.33 168.68 33.82 168.25 33.2 167.83 32.58 167.3 31.91 166.68 31.21 166.06 30.5 165.36 29.78 164.59 29.03 163.82 28.28 163.03 27.59 162.23 26.95L162.57 23.95 174.61 18.79 175.74 21.46 165.25 25.87C165.73 26.28 166.25 26.74 166.82 27.25 167.39 27.76 167.95 28.32 168.5 28.93 169.24 29.75 169.85 30.53 170.33 31.28 170.81 32.03 171.18 32.74 171.44 33.41 171.7 34.08 171.88 34.72 171.97 35.32 172.06 35.92 172.08 36.49 172.03 37.01 171.98 37.53 171.88 38.03 171.73 38.47 171.58 38.91 171.4 39.33 171.2 39.7 170.33 41.24 168.86 42.2 166.79 42.59 166.42 42.66 165.99 42.69 165.52 42.69L160.79 42.69C160.32 42.69 159.94 42.55 159.65 42.28 159.36 42.01 159.21 41.67 159.21 41.27ZM174.11 16.93 162.33 21.91 162.43 20.03 173.42 15.45 174.11 16.93Z"/><path d="M184.64 42.71C183.57 42.71 182.65 42.58 181.88 42.33 181.11 42.08 180.47 41.69 179.94 41.16 179.62 40.84 179.37 40.49 179.2 40.12 179.03 39.75 178.9 39.38 178.82 39.02 178.74 38.66 178.69 38.31 178.68 37.99 178.68 37.66 178.67 37.38 178.67 37.15L178.67 36.87C178.67 36.87 178.67 36.68 178.68 36.33 178.68 35.98 178.7 35.52 178.7 34.92 178.7 34.33 178.7 33.65 178.7 32.88 178.7 32.11 178.7 31.29 178.69 30.43 178.69 29.59 178.69 28.72 178.66 27.81 178.63 26.9 178.61 26.02 178.57 25.17 178.53 24.32 178.48 23.54 178.41 22.82 178.34 22.1 178.26 21.51 178.18 21.06L181.05 20.53C181.14 21.03 181.22 21.64 181.28 22.36 181.34 23.08 181.4 23.87 181.45 24.72 181.5 25.57 181.53 26.46 181.55 27.38 181.57 28.3 181.58 29.2 181.58 30.08 181.58 30.94 181.59 31.76 181.59 32.56L181.59 34.67C181.59 35.29 181.59 35.79 181.59 36.19 181.59 36.59 181.59 36.83 181.59 36.91L181.59 37.17C181.59 37.6 181.59 37.98 181.63 38.31 181.67 38.64 181.8 38.91 182.03 39.12 182.47 39.58 183.3 39.81 184.52 39.82L184.65 39.82C184.85 39.82 185.03 39.86 185.21 39.94 185.39 40.02 185.54 40.12 185.67 40.25 185.8 40.38 185.91 40.54 185.98 40.71 186.05 40.88 186.1 41.07 186.1 41.27 186.1 41.68 185.96 42.02 185.68 42.3 185.4 42.58 185.06 42.71 184.65 42.71Z"/><path d="M183.07 41.27C183.07 40.86 183.21 40.52 183.48 40.24 183.75 39.96 184.1 39.82 184.51 39.82L185.62 39.82C186.44 39.82 187.23 39.77 187.98 39.67 188.73 39.57 189.39 39.39 189.96 39.13 190.53 38.87 190.98 38.51 191.31 38.05 191.64 37.6 191.79 37.01 191.76 36.3 191.74 35.75 191.69 35.19 191.62 34.6 191.55 34.01 191.4 33.35 191.19 32.59L193.93 31.81C194.02 32.15 194.1 32.51 194.18 32.89 194.26 33.27 194.33 33.65 194.39 34.04 194.45 34.43 194.5 34.82 194.54 35.22 194.58 35.61 194.62 36 194.64 36.38 194.66 36.74 194.7 37.12 194.77 37.52 194.84 37.92 194.96 38.29 195.14 38.63 195.32 38.97 195.56 39.25 195.87 39.48 196.18 39.71 196.58 39.82 197.08 39.82 197.49 39.82 197.84 39.96 198.12 40.23 198.4 40.5 198.54 40.85 198.54 41.26 198.54 41.47 198.5 41.65 198.42 41.82 198.34 41.99 198.24 42.14 198.11 42.28 197.98 42.41 197.83 42.51 197.66 42.59 197.49 42.66 197.31 42.7 197.11 42.7 196.12 42.7 195.31 42.52 194.66 42.17 194.02 41.81 193.49 41.37 193.08 40.83 192.73 41.17 192.27 41.46 191.72 41.7 191.16 41.94 190.55 42.13 189.88 42.28 189.21 42.43 188.51 42.53 187.78 42.6 187.05 42.67 186.33 42.7 185.63 42.7L184.52 42.7C184.11 42.7 183.77 42.56 183.49 42.29 183.21 42.02 183.08 41.67 183.08 41.26ZM190.5 26.77 188.13 29.14 185.73 26.75 188.1 24.36 190.5 26.76ZM196.51 26.78 194.14 29.17 191.74 26.77 194.11 24.4 196.51 26.79Z"/><path d="M195.77 41.27C195.77 41.08 195.81 40.91 195.89 40.74 195.97 40.57 196.08 40.42 196.21 40.28 196.34 40.15 196.5 40.04 196.67 39.97 196.84 39.9 197.03 39.85 197.21 39.84L197.36 39.84C197.77 39.84 198.16 39.73 198.53 39.51 198.9 39.29 199.25 39.01 199.57 38.67 199.89 38.33 200.19 37.95 200.46 37.53 200.73 37.11 200.97 36.7 201.19 36.3 201.4 35.91 201.58 35.52 201.74 35.13 201.9 34.75 202.05 34.38 202.17 34.05 202.3 33.71 202.4 33.41 202.48 33.14 202.56 32.87 202.63 32.66 202.68 32.5 202.73 32.28 202.75 32.16 202.75 32.15L205.56 32.93C205.56 32.93 205.54 32.97 205.52 33.03 205.5 33.09 205.48 33.17 205.45 33.28 205.39 33.5 205.32 33.83 205.23 34.26 205.14 34.69 205.06 35.17 204.98 35.7 204.87 36.55 204.85 37.29 204.91 37.93 204.97 38.57 205.1 39.05 205.31 39.39 205.45 39.64 205.66 39.79 205.95 39.81 206.07 39.84 206.17 39.85 206.27 39.85 206.64 39.85 207 39.73 207.34 39.48 207.78 39.15 208.21 38.63 208.63 37.91 209.05 37.19 209.43 36.32 209.76 35.29 209.93 34.81 210.06 34.36 210.17 33.93 210.28 33.5 210.36 33.13 210.42 32.83 210.47 32.59 210.51 32.39 210.54 32.25 210.57 32.11 210.58 32.03 210.58 32.01L213.44 32.55C213.44 32.55 213.4 32.64 213.38 32.78 213.36 32.92 213.33 33.12 213.28 33.37 213.23 33.62 213.19 33.93 213.15 34.3 213.11 34.67 213.09 35.05 213.08 35.47 213.03 36.36 213.08 37.13 213.2 37.78 213.32 38.43 213.53 38.93 213.8 39.26 213.91 39.4 214.05 39.52 214.23 39.63 214.41 39.74 214.68 39.79 215.04 39.79 215.55 39.79 215.96 39.61 216.27 39.26 216.6 38.9 216.87 38.37 217.07 37.66 217.27 36.95 217.4 36.13 217.46 35.17 217.48 34.73 217.49 34.32 217.49 33.95 217.49 33.58 217.49 33.25 217.46 32.98 217.43 32.74 217.41 32.54 217.41 32.39 217.41 32.24 217.41 32.16 217.41 32.15L220.28 31.92C220.28 31.92 220.32 32.24 220.34 32.74 220.37 32.95 220.4 33.18 220.44 33.44 220.48 33.7 220.52 33.99 220.58 34.3 220.64 34.61 220.71 34.93 220.79 35.27 220.87 35.61 220.96 35.94 221.07 36.27 221.84 38.65 222.92 39.84 224.31 39.84L224.6 39.84C225.01 39.84 225.35 39.98 225.63 40.25 225.91 40.52 226.04 40.87 226.04 41.28 226.04 41.69 225.9 42.02 225.63 42.3 225.36 42.58 225.01 42.72 224.6 42.72L224.31 42.72C223.52 42.72 222.78 42.56 222.09 42.23 221.4 41.9 220.78 41.42 220.24 40.79 219.97 40.49 219.7 40.12 219.43 39.69 219.16 40.3 218.83 40.8 218.46 41.2 218.02 41.7 217.51 42.08 216.94 42.34 216.36 42.6 215.74 42.73 215.06 42.73 214.34 42.73 213.68 42.59 213.08 42.31 212.48 42.03 211.98 41.63 211.56 41.1 211.42 40.92 211.3 40.74 211.18 40.54 211.06 40.34 210.96 40.13 210.86 39.91 210.31 40.71 209.72 41.36 209.07 41.84 208.2 42.46 207.28 42.76 206.3 42.76 206.16 42.76 206.03 42.76 205.9 42.74 205.77 42.72 205.64 42.71 205.5 42.69 204.35 42.48 203.46 41.89 202.85 40.93 202.75 40.76 202.66 40.59 202.59 40.41 202.51 40.23 202.43 40.04 202.36 39.85 202.04 40.27 201.71 40.64 201.38 40.95 200.17 42.13 198.84 42.72 197.38 42.72L197.23 42.72C197.03 42.72 196.85 42.68 196.67 42.61 196.49 42.54 196.34 42.43 196.21 42.3 196.08 42.17 195.97 42.01 195.9 41.84 195.83 41.67 195.78 41.48 195.78 41.28Z"/><path d="M223.09 41.27C223.09 40.87 223.23 40.53 223.5 40.25 223.77 39.97 224.12 39.83 224.53 39.83L224.78 39.83C226.42 39.83 227.61 39.53 228.35 38.94 229.09 38.35 229.46 37.47 229.46 36.31 229.46 36.04 229.46 35.76 229.43 35.48 229.41 35.2 229.38 34.91 229.33 34.61 229.29 34.31 229.23 34 229.15 33.67 229.08 33.34 228.99 32.99 228.88 32.62L231.63 31.84C231.73 32.18 231.81 32.51 231.88 32.83 231.95 33.15 232.01 33.48 232.06 33.83 232.11 34.18 232.16 34.56 232.2 34.97 232.24 35.38 232.28 35.84 232.32 36.36 232.35 36.72 232.4 37.1 232.47 37.5 232.54 37.9 232.66 38.27 232.84 38.61 233.02 38.95 233.26 39.23 233.57 39.46 233.88 39.69 234.28 39.8 234.78 39.8 234.98 39.8 235.16 39.84 235.34 39.91 235.52 39.98 235.67 40.09 235.8 40.22 235.93 40.35 236.04 40.51 236.11 40.68 236.18 40.85 236.23 41.04 236.23 41.24 236.23 41.45 236.19 41.63 236.11 41.8 236.03 41.97 235.93 42.12 235.8 42.26 235.67 42.39 235.52 42.49 235.35 42.57 235.18 42.64 235 42.68 234.8 42.68 234.31 42.68 233.86 42.64 233.46 42.55 233.06 42.46 232.69 42.34 232.36 42.18 232.03 42.02 231.74 41.83 231.48 41.6 231.22 41.37 230.99 41.13 230.78 40.87 230.16 41.48 229.37 41.93 228.38 42.23 227.39 42.53 226.19 42.68 224.77 42.68L224.52 42.68C224.11 42.68 223.77 42.54 223.49 42.27 223.21 42 223.08 41.65 223.08 41.24ZM232.48 25.87 230.09 28.26 227.69 25.86 230.08 23.47 232.48 25.87Z"/><path d="M232.61 41.27C232.61 40.86 232.75 40.52 233.03 40.24 233.31 39.96 233.65 39.83 234.05 39.83L235.68 39.83C236.02 39.83 236.39 39.84 236.79 39.83 237.19 39.83 237.6 39.8 238.01 39.76 238.42 39.72 238.82 39.67 239.22 39.59 239.62 39.52 239.98 39.41 240.31 39.28 240.64 39.15 240.93 38.98 241.19 38.79 241.45 38.6 241.63 38.36 241.76 38.09 241.96 37.67 242.01 37.07 241.93 36.3 241.85 35.52 241.65 34.62 241.34 33.58 241.23 33.27 241.11 32.93 240.97 32.56 240.83 32.19 240.69 31.85 240.55 31.54 240.39 31.17 240.23 30.8 240.07 30.44L242.68 29.15C242.68 29.15 242.73 29.26 242.82 29.45 242.91 29.64 243.03 29.9 243.16 30.22 243.29 30.54 243.45 30.92 243.61 31.34 243.78 31.76 243.93 32.22 244.08 32.69 244.99 35.49 245.1 37.68 244.42 39.25 243.73 40.82 242.5 41.86 240.73 42.36 240.47 42.44 240.13 42.5 239.72 42.54 239.31 42.58 238.89 42.62 238.46 42.64 238.03 42.66 237.62 42.67 237.23 42.68 236.84 42.68 236.54 42.68 236.32 42.68L234.06 42.68C233.66 42.68 233.32 42.54 233.04 42.27 232.76 42 232.62 41.65 232.62 41.24ZM239.67 47.76 237.3 50.13 234.9 47.74 237.27 45.35 239.67 47.75ZM245.68 47.77 243.31 50.16 240.91 47.76 243.28 45.39 245.68 47.78Z"/><path d="M248.75 42.7C248.9 40.48 248.99 38.39 249.02 36.41 249.05 34.43 249.05 32.61 249.02 30.93 248.98 29.25 248.92 27.75 248.84 26.41 248.76 25.07 248.67 23.93 248.58 23 248.49 22.07 248.42 21.34 248.35 20.83 248.28 20.32 248.25 20.06 248.25 20.04L251.12 19.6C251.14 19.66 251.21 20.25 251.34 21.37 251.41 21.93 251.47 22.53 251.52 23.18 251.57 23.83 251.62 24.53 251.67 25.27 251.72 26.01 251.76 26.72 251.79 27.39 251.82 28.06 251.84 28.7 251.86 29.32 251.92 31.12 251.94 33.16 251.93 35.44 251.92 37.72 251.82 40.2 251.64 42.87L248.75 42.71Z"/><path d="M85.33 90.71 85.33 69.24 92.73 69.24C94.4 69.24 95.67 69.34 96.55 69.55 97.79 69.83 98.84 70.35 99.7 71.09 100.84 72.06 101.69 73.28 102.25 74.76 102.81 76.24 103.08 77.94 103.08 79.87 103.08 81.11 102.97 82.23 102.75 83.24 102.53 84.25 102.23 85.14 101.86 85.92 101.49 86.7 101.06 87.37 100.58 87.93 100.1 88.49 99.6 88.94 99.08 89.28 98.38 89.75 97.53 90.11 96.53 90.35 95.53 90.59 94.38 90.72 93.07 90.72L85.32 90.72ZM88.17 88.18 92.75 88.18C94.16 88.18 95.26 88.05 96.08 87.78 96.9 87.51 97.54 87.15 98.01 86.67 98.68 86 99.21 85.09 99.58 83.96 99.95 82.83 100.14 81.45 100.14 79.81 100.14 77.55 99.77 75.83 99.03 74.64 98.3 73.43 97.4 72.62 96.35 72.21 95.59 71.92 94.36 71.77 92.67 71.77L88.16 71.77 88.16 88.18Z"/><path d="M106.11 90.71 106.11 69.24 121.64 69.24 121.64 71.77 108.95 71.77 108.95 78.35 120.83 78.35 120.83 80.87 108.95 80.87 108.95 88.18 122.13 88.18 122.13 90.71 106.1 90.71Z"/><path d="M124.76 90.71 124.76 69.24 127.68 69.24 138.96 86.1 138.96 69.24 141.68 69.24 141.68 90.71 138.76 90.71 127.48 73.83 127.48 90.71 124.76 90.71Z"/><path d="M150.74 90.71 150.74 71.77 143.66 71.77 143.66 69.24 160.68 69.24 160.68 71.77 153.58 71.77 153.58 90.71 150.74 90.71Z"/><path d="M173.25 90.71 173.25 69.24 181.31 69.24C182.95 69.24 184.27 69.46 185.26 69.89 186.25 70.33 187.03 71 187.58 71.9 188.15 72.79 188.43 73.73 188.43 74.73 188.43 75.19 188.37 75.64 188.24 76.08 188.11 76.52 187.93 76.93 187.68 77.33 187.43 77.73 187.12 78.08 186.74 78.42 186.36 78.76 185.93 79.05 185.43 79.29 186.07 79.49 186.65 79.75 187.15 80.07 187.65 80.4 188.08 80.78 188.42 81.23 188.76 81.68 189.03 82.18 189.2 82.72 189.37 83.26 189.46 83.85 189.46 84.48 189.46 85.48 189.25 86.41 188.82 87.29 188.39 88.16 187.87 88.82 187.25 89.28 186.63 89.75 185.84 90.1 184.91 90.34 183.97 90.58 182.82 90.7 181.44 90.7L173.25 90.7ZM176.09 78.26 180.73 78.26C181.98 78.26 182.88 78.18 183.44 78.01 184.9 77.58 185.62 76.6 185.62 75.07 185.62 74.36 185.45 73.73 185.11 73.19 184.77 72.65 184.28 72.28 183.64 72.08 183.01 71.87 181.92 71.77 180.37 71.77L176.08 71.77 176.08 78.26ZM176.09 88.18 181.44 88.18C182.39 88.18 183.03 88.15 183.37 88.08 184.02 87.96 184.57 87.77 185.01 87.5 185.45 87.23 185.81 86.83 186.09 86.31 186.37 85.77 186.51 85.17 186.51 84.49 186.51 83.69 186.3 82.99 185.89 82.4 185.48 81.81 184.91 81.4 184.18 81.16 183.48 80.92 182.43 80.79 181.05 80.79L176.08 80.79 176.08 88.17Z"/><path d="M206.16 69.24 209 69.24 209 81.65C209 83.79 208.76 85.5 208.27 86.79 207.79 88.04 206.91 89.08 205.62 89.9 204.34 90.69 202.67 91.09 200.61 91.09 198.55 91.09 196.93 90.75 195.67 90.06 194.41 89.37 193.49 88.37 192.94 87.05 192.39 85.72 192.12 83.93 192.12 81.66L192.12 69.25 194.96 69.25 194.96 81.64C194.96 83.49 195.13 84.86 195.47 85.77 195.82 86.64 196.42 87.32 197.26 87.81 198.1 88.29 199.14 88.53 200.37 88.53 202.46 88.53 203.95 88.06 204.84 87.11 205.73 86.16 206.17 84.34 206.17 81.65L206.17 69.26Z"/><path d="M213.71 83.58C213.84 84.65 214.13 85.54 214.6 86.22 215.06 86.91 215.78 87.47 216.76 87.9 217.73 88.32 218.83 88.53 220.06 88.53 220.89 88.53 221.64 88.45 222.3 88.26 222.96 88.07 223.53 87.81 224 87.47 224.47 87.13 224.82 86.74 225.06 86.3 225.3 85.86 225.41 85.38 225.39 84.89 225.39 84.22 225.2 83.63 224.81 83.13 224.42 82.63 223.78 82.2 222.87 81.86 222.59 81.75 222.13 81.61 221.49 81.44 220.85 81.27 220.04 81.06 219.04 80.82 218.04 80.58 217.2 80.34 216.52 80.12 215.84 79.9 215.29 79.68 214.89 79.47 213.85 78.93 213.09 78.27 212.59 77.48 212.09 76.69 211.84 75.8 211.84 74.8 211.84 73.72 212.15 72.71 212.76 71.77 213.38 70.81 214.27 70.1 215.46 69.62 216.66 69.13 217.97 68.89 219.4 68.89 220.99 68.89 222.4 69.15 223.61 69.66 224.83 70.17 225.76 70.93 226.42 71.92 227.08 72.91 227.43 74.04 227.47 75.3L224.75 75.51C224.6 74.15 224.11 73.13 223.26 72.43 222.41 71.73 221.17 71.39 219.52 71.39 217.87 71.39 216.56 71.71 215.76 72.34 214.98 72.97 214.59 73.73 214.59 74.61 214.59 75.38 214.87 76.02 215.42 76.51 215.96 77.01 217.38 77.52 219.7 78.05 222 78.56 223.59 79.01 224.46 79.41 225.72 80 226.65 80.73 227.24 81.61 227.83 82.49 228.13 83.5 228.13 84.66 228.13 85.82 227.8 86.89 227.15 87.9 226.5 88.9 225.55 89.68 224.32 90.26 223.1 90.82 221.72 91.09 220.19 91.09 218.24 91.09 216.61 90.81 215.3 90.25 214 89.69 212.96 88.84 212.2 87.69 211.47 86.57 211.08 85.28 211.03 83.82L213.71 83.59Z"/><path d="M236.2 90.71 236.2 71.77 229.12 71.77 229.12 69.24 246.14 69.24 246.14 71.77 239.04 71.77 239.04 90.71 236.2 90.71Z"/><path d="M248.72 90.71 248.72 69.24 264.25 69.24 264.25 71.77 251.56 71.77 251.56 78.35 263.44 78.35 263.44 80.87 251.56 80.87 251.56 88.18 264.74 88.18 264.74 90.71 248.71 90.71Z"/><path d="M267.44 90.71 267.44 69.24 276.96 69.24C278.88 69.24 280.34 69.44 281.33 69.83 282.33 70.21 283.12 70.89 283.72 71.87 284.32 72.85 284.61 73.93 284.61 75.11 284.61 76.63 284.12 77.92 283.13 78.96 282.13 80.01 280.61 80.68 278.56 80.95 279.32 81.32 279.89 81.68 280.27 82.02 280.69 82.4 281.1 82.83 281.49 83.3 281.88 83.77 282.26 84.3 282.63 84.87L286.37 90.71 282.8 90.71 279.96 86.24C279.34 85.25 278.8 84.46 278.35 83.85 277.9 83.24 277.5 82.77 277.14 82.41 276.78 82.05 276.45 81.8 276.14 81.64 275.83 81.48 275.51 81.35 275.17 81.27 274.87 81.2 274.34 81.17 273.59 81.17L270.29 81.17 270.29 90.71 267.45 90.71ZM270.28 78.71 276.39 78.71C277.03 78.71 277.61 78.68 278.11 78.61 278.61 78.55 279.05 78.44 279.44 78.3 279.82 78.16 280.15 77.98 280.41 77.77 280.68 77.56 280.91 77.31 281.11 77.02 281.49 76.42 281.68 75.78 281.68 75.09 281.68 74.07 281.31 73.24 280.57 72.59 279.85 71.94 278.69 71.61 277.08 71.61L270.28 71.61 270.28 78.71Z"/></g></svg>