<svg viewBox="0 0 381.58 125.44" xmlns="http://www.w3.org/2000/svg" xmlns:xlink="http://www.w3.org/1999/xlink" id="Layer_1" overflow="hidden"><defs><linearGradient x1="19.79" y1="-27.85" x2="190.35" y2="100.23" gradientUnits="userSpaceOnUse" id="linear-gradient"><stop offset="0" stop-color="#FFFFFF"/><stop offset="0.09" stop-color="#EAEDD8"/><stop offset="0.38" stop-color="#ADBC67"/><stop offset="0.51" stop-color="#95A93B"/></linearGradient></defs><rect x="0" y="8.97" rx="54.66" ry="54.66" width="377.82" height="116.47" fill="#231F20" opacity="0.56"/><rect x="3.26" y="0.5" rx="54.66" ry="54.66" width="377.82" height="116.47" stroke="#294D24" stroke-miterlimit="10" fill="#95A93B"/><path d="M229.41 4.21C175.76 7.21 81.88 12.85 53.64 42.32 35.51 61.25 32.16 83.6 37.58 109.03 17.82 100.56 11.54 84.08 8.99 76.56 6.02 67.8 1.17 30.98 27.88 13.56 42.37 4.11 52.59 4.74 52.59 4.74 52.59 4.74 184.77 4.21 229.41 4.21Z" fill="url(#linear-gradient)" opacity="0.78"/><g><path d="M100.24 61.62 85.71 61.62 85.71 86.1 100.24 86.1C101.3 86.1 102.16 85.24 102.16 84.18L102.16 63.54C102.16 62.48 101.3 61.62 100.24 61.62Z" fill="#FFFFFF"/><path d="M62.05 63.54 62.05 84.18C62.05 85.24 62.91 86.1 63.97 86.1L78.5 86.1 78.5 61.62 63.97 61.62C62.91 61.62 62.05 62.48 62.05 63.54Z" fill="#FFFFFF"/><path d="M59.42 51.37 59.42 57.39C59.42 58.45 60.28 59.31 61.34 59.31L78.5 59.31 78.5 49.44C78.5 49.44 61.34 49.44 61.34 49.44 60.28 49.44 59.42 50.3 59.42 51.36Z" fill="#FFFFFF"/><path d="M102.87 49.44 85.67 49.44 85.71 59.31 102.87 59.31C103.93 59.31 104.79 58.45 104.79 57.39L104.79 51.37C104.79 50.31 103.93 49.45 102.87 49.45Z" fill="#FFFFFF"/><path d="M67.39 47.28C67.61 47.41 67.97 47.61 68.99 47.61L94.96 47.61C96.09 47.61 96.53 47.39 96.77 47.25 98.49 46.24 99.57 44.11 99.57 41.39 99.57 39.37 98.93 37.36 97.82 35.87 96.45 34.04 94.43 33.03 92.12 33.03 91.93 33.03 91.74 33.03 91.54 33.05 85.48 33.47 83.02 39.22 82.06 42.93 81.1 39.22 78.64 33.47 72.58 33.05 72.38 33.04 72.19 33.03 72 33.03 69.69 33.03 67.67 34.04 66.3 35.87 65.19 37.36 64.55 39.37 64.55 41.39 64.55 44.13 65.65 46.28 67.4 47.28ZM91.77 36.5C91.89 36.5 92 36.49 92.11 36.49 93.33 36.49 94.32 36.98 95.04 37.94 95.72 38.85 96.1 40.11 96.1 41.4 96.1 42.46 95.73 44.46 94.34 44.46L85.24 44.46C85.87 41.68 87.56 36.8 91.77 36.51ZM69.06 37.94C69.78 36.98 70.76 36.49 71.99 36.49 72.1 36.49 72.22 36.49 72.33 36.5 76.54 36.79 78.23 41.67 78.86 44.45L69.76 44.45C68.37 44.45 68 42.45 68 41.39 68 40.1 68.39 38.84 69.06 37.93Z" fill="#FFFFFF"/></g><g><path d="M121.92 79.17 121.38 65.59C121.38 65.53 121.38 65.39 121.38 65.18 121.38 64.97 121.42 64.72 121.49 64.44 121.56 64.16 121.68 63.87 121.84 63.58 122 63.29 122.25 63.02 122.56 62.78 122.69 62.68 122.84 62.59 123.02 62.49 123.2 62.39 123.41 62.33 123.64 62.28 123.87 62.23 124.14 62.22 124.42 62.23 124.7 62.24 125.03 62.29 125.38 62.39 125.49 62.06 125.62 61.71 125.78 61.34 125.94 60.97 126.12 60.58 126.32 60.18 126.62 59.61 126.93 59.11 127.24 58.68 127.55 58.25 127.86 57.87 128.17 57.55 129.17 56.57 130.24 56.1 131.39 56.14 132.18 56.17 132.9 56.34 133.54 56.66 134.18 56.98 134.74 57.44 135.21 58.06 135.57 58.54 135.85 59.09 136.06 59.72 136.27 60.35 136.39 60.99 136.45 61.66 136.51 62.33 136.48 63 136.39 63.66 136.3 64.32 136.13 64.93 135.9 65.49 135.62 66.2 135.25 66.77 134.8 67.2 134.35 67.63 133.84 67.89 133.28 67.99 133.01 68.03 132.7 68.02 132.37 67.98 132.04 67.94 131.66 67.84 131.23 67.71 130.8 67.58 130.31 67.41 129.77 67.2 129.23 66.99 128.6 66.74 127.9 66.46 127.35 66.23 126.81 66 126.27 65.79 125.73 65.58 125.21 65.39 124.72 65.23 124.63 65.2 124.55 65.18 124.48 65.16 124.41 65.14 124.35 65.13 124.3 65.13 124.27 65.28 124.26 65.39 124.26 65.48L124.79 79.18 121.92 79.18ZM129.02 63.77C129.47 63.97 129.91 64.14 130.33 64.3 130.75 64.46 131.15 64.61 131.52 64.75 131.89 64.89 132.23 64.99 132.54 65.07 132.85 65.15 133.04 65.19 133.1 65.2 133.25 64.97 133.37 64.67 133.46 64.32 133.55 63.97 133.62 63.6 133.65 63.22 133.68 62.84 133.69 62.46 133.67 62.08 133.65 61.7 133.6 61.37 133.51 61.09 133.36 60.59 133.19 60.2 132.98 59.92 132.77 59.64 132.56 59.43 132.34 59.3 132.12 59.17 131.92 59.08 131.73 59.05 131.54 59.02 131.39 59.01 131.28 59.01 130.94 59.01 130.56 59.22 130.14 59.65 129.72 60.08 129.31 60.7 128.91 61.5 128.73 61.82 128.58 62.15 128.45 62.47 128.32 62.79 128.2 63.1 128.09 63.37L129.01 63.75Z" fill="#FFFFFF"/><path d="M144.46 68.45C143.99 68.45 143.44 68.39 142.8 68.27 142.16 68.15 141.52 68 140.89 67.82 140.26 67.64 139.67 67.44 139.15 67.21 138.63 66.98 138.24 66.76 137.99 66.54L139.19 63.79C139.55 64.02 139.99 64.25 140.49 64.47 140.99 64.69 141.54 64.88 142.12 65.04 142.7 65.2 143.29 65.32 143.9 65.4 144.51 65.48 145.1 65.49 145.66 65.44 146.22 65.39 146.75 65.27 147.24 65.07 147.73 64.87 148.14 64.58 148.47 64.18 148.73 63.88 148.77 63.31 148.57 62.48 148.46 62 148.29 61.5 148.05 60.98 147.81 60.46 147.52 59.94 147.19 59.41 146.86 58.88 146.48 58.38 146.07 57.88 145.66 57.38 145.23 56.92 144.79 56.5 144.35 56.08 143.89 55.7 143.43 55.37 142.97 55.04 142.52 54.77 142.08 54.58L143.27 51.91C143.85 52.17 144.43 52.52 145.01 52.94 145.59 53.36 146.17 53.83 146.72 54.36 147.27 54.89 147.8 55.46 148.3 56.07 148.8 56.68 149.26 57.31 149.67 57.96 150.08 58.61 150.44 59.26 150.74 59.92 151.04 60.58 151.27 61.21 151.41 61.84 151.53 62.39 151.59 62.88 151.59 63.32 151.59 63.76 151.55 64.15 151.47 64.49 151.39 64.83 151.28 65.13 151.14 65.38 151 65.63 150.86 65.85 150.7 66.04 149.8 67.12 148.55 67.84 146.94 68.19 146.57 68.29 146.18 68.36 145.77 68.4 145.36 68.44 144.93 68.46 144.47 68.46Z" fill="#FFFFFF"/><path d="M157.26 58.94C157.53 59.85 157.79 60.75 158.04 61.64 158.14 62.02 158.24 62.42 158.35 62.83 158.46 63.24 158.56 63.65 158.65 64.06 158.74 64.47 158.82 64.87 158.89 65.25 158.96 65.63 159.01 66 159.05 66.33 159.05 66.44 159.07 66.56 159.08 66.7 159.09 66.84 159.09 66.99 159.09 67.15 159.09 68 158.97 68.82 158.72 69.63 158.47 70.44 158.12 71.2 157.68 71.94 157.24 72.68 156.71 73.38 156.1 74.06 155.49 74.74 154.83 75.37 154.11 75.96 153.39 76.55 152.64 77.1 151.84 77.61 151.04 78.12 150.24 78.57 149.42 78.97L148.15 76.39C149.18 75.88 150.17 75.29 151.14 74.62 152.11 73.95 152.97 73.22 153.73 72.43 154.49 71.64 155.09 70.8 155.55 69.91 156.01 69.02 156.24 68.1 156.24 67.16 156.24 67.11 156.24 67.03 156.23 66.92 156.22 66.81 156.21 66.7 156.2 66.59L156.2 66.59C156.17 66.3 156.12 65.97 156.05 65.62 155.98 65.27 155.9 64.9 155.82 64.52 155.74 64.14 155.64 63.77 155.54 63.39 155.44 63.01 155.34 62.65 155.25 62.3 155.02 61.48 154.77 60.66 154.5 59.84L157.28 58.96ZM157.92 52.99 155.53 55.38 153.13 52.98 155.52 50.59 157.92 52.99Z" fill="#FFFFFF"/><path d="M203.53 54.93C203.58 55.03 203.67 55.2 203.8 55.46 203.93 55.72 204.08 56.03 204.25 56.4 204.42 56.77 204.6 57.19 204.78 57.66 204.96 58.13 205.13 58.62 205.28 59.14 205.43 59.66 205.56 60.19 205.65 60.75 205.74 61.31 205.8 61.85 205.8 62.39 205.8 63.23 205.69 64.02 205.5 64.75 205.31 65.48 205.02 66.12 204.62 66.67 204.22 67.22 203.71 67.65 203.09 67.96 202.47 68.27 201.71 68.43 200.82 68.43 200.55 68.43 200.25 68.39 199.94 68.31 199.63 68.23 199.32 68.1 199 67.94 198.68 67.78 198.39 67.58 198.11 67.33 197.83 67.08 197.58 66.81 197.38 66.5 196.79 67.19 196.13 67.68 195.4 67.96 194.67 68.24 193.89 68.4 193.07 68.44 192.6 68.46 192.19 68.43 191.82 68.34 191.45 68.25 191.15 68.15 190.9 68.03 190.6 67.89 190.34 67.73 190.12 67.55 190.15 68.4 190.1 69.23 189.98 70.05 189.86 70.87 189.65 71.64 189.34 72.38 189.03 73.12 188.63 73.8 188.13 74.44 187.63 75.08 187 75.64 186.26 76.12 185.36 76.74 184.34 77.2 183.21 77.53 182.08 77.86 180.79 78.05 179.38 78.12 179.28 78.12 179.18 78.12 179.09 78.12 179 78.12 178.9 78.12 178.81 78.12 177.52 78.12 176.35 77.94 175.29 77.57 174.23 77.2 173.29 76.65 172.46 75.92 171.72 75.27 171.11 74.48 170.62 73.56 170.13 72.64 169.82 71.64 169.66 70.56 169.56 69.96 169.52 69.37 169.53 68.77 169.54 68.17 169.58 67.59 169.65 67.03 169.72 66.47 169.81 65.95 169.93 65.45 170.05 64.95 170.16 64.52 170.28 64.12 170.58 63.12 170.91 62.27 171.25 61.56 171.59 60.85 171.9 60.33 172.15 59.99L174.48 61.7C174.28 61.95 174.05 62.38 173.78 62.97 173.51 63.56 173.26 64.25 173.03 65.04 172.8 65.83 172.63 66.66 172.52 67.54 172.41 68.42 172.41 69.29 172.52 70.13 172.56 70.38 172.63 70.69 172.72 71.04 172.81 71.39 172.95 71.75 173.14 72.12 173.33 72.49 173.57 72.86 173.87 73.23 174.17 73.6 174.54 73.92 174.99 74.21 175.44 74.5 175.97 74.73 176.59 74.91 177.21 75.09 177.93 75.18 178.76 75.18L179.24 75.18C181.32 75.09 182.99 74.68 184.26 73.95 185.53 73.22 186.38 72.17 186.82 70.82 187.07 70.02 187.21 69.21 187.24 68.4 187.27 67.59 187.22 66.8 187.09 66.03 186.96 65.26 186.79 64.52 186.56 63.82 186.33 63.12 186.09 62.49 185.85 61.92 185.62 61.39 185.41 60.99 185.24 60.7 185.07 60.41 184.98 60.27 184.98 60.25L187.43 58.67C187.49 58.83 187.57 59.01 187.66 59.23 187.74 59.42 187.83 59.64 187.95 59.9 188.07 60.16 188.2 60.46 188.35 60.8 188.61 61.42 188.89 62.01 189.18 62.58 189.47 63.15 189.79 63.66 190.15 64.1 190.51 64.54 190.91 64.89 191.36 65.14 191.81 65.39 192.33 65.51 192.93 65.49 193.44 65.49 193.85 65.38 194.17 65.18 194.49 64.98 194.74 64.73 194.93 64.4 195.12 64.07 195.25 63.7 195.33 63.27 195.41 62.84 195.45 62.38 195.48 61.9 195.51 61.42 195.51 60.92 195.49 60.41 195.47 59.9 195.47 59.4 195.49 58.91L198.46 58.62 198.49 59.06C198.49 59.19 198.5 59.32 198.5 59.47 198.5 59.62 198.5 59.75 198.51 59.88 198.51 60.12 198.54 60.43 198.56 60.81 198.58 61.19 198.63 61.59 198.68 62.01 198.73 62.43 198.82 62.86 198.93 63.29 199.04 63.72 199.18 64.11 199.35 64.45 199.52 64.79 199.73 65.08 199.99 65.29 200.25 65.5 200.55 65.61 200.91 65.61 201.24 65.61 201.54 65.51 201.8 65.32 202.06 65.13 202.28 64.87 202.45 64.55 202.62 64.23 202.75 63.86 202.83 63.44 202.91 63.02 202.94 62.59 202.92 62.14 202.89 61.52 202.8 60.92 202.65 60.35 202.5 59.78 202.32 59.24 202.13 58.73 201.94 58.22 201.73 57.76 201.51 57.34 201.29 56.92 201.11 56.55 200.95 56.24L203.51 54.89Z" fill="#FFFFFF"/><path d="M213.67 68.47C212.53 68.47 211.46 68.23 210.47 67.75 209.48 67.27 208.57 66.61 207.75 65.76L209.41 63.43C210 63.98 210.59 64.41 211.18 64.73 211.77 65.05 212.36 65.28 212.95 65.4 213.54 65.52 214.1 65.56 214.66 65.51 215.22 65.46 215.77 65.33 216.29 65.12 216.79 64.92 217.2 64.71 217.51 64.48 217.82 64.25 218.07 64.05 218.23 63.89L213.6 52.76 216.27 51.65C216.58 52.41 216.96 53.32 217.4 54.39 217.77 55.31 218.23 56.44 218.79 57.78 219.35 59.12 220 60.69 220.75 62.48 220.95 62.95 221.12 63.38 221.27 63.76 221.42 64.14 221.61 64.47 221.85 64.74 222.09 65.01 222.4 65.22 222.79 65.37 223.18 65.52 223.71 65.6 224.37 65.6 224.77 65.6 225.11 65.74 225.4 66.01 225.69 66.28 225.82 66.63 225.82 67.04 225.82 67.45 225.68 67.79 225.4 68.07 225.12 68.35 224.78 68.48 224.37 68.48 223.74 68.48 223.17 68.43 222.68 68.33 222.19 68.23 221.75 68.09 221.38 67.91 221.01 67.73 220.67 67.53 220.39 67.29 220.11 67.05 219.86 66.8 219.66 66.54 219.37 66.75 219.03 66.98 218.66 67.21 218.29 67.44 217.85 67.66 217.36 67.85 216.81 68.06 216.25 68.22 215.66 68.33 215.07 68.44 214.41 68.48 213.67 68.48Z" fill="#FFFFFF"/><path d="M222.9 67.03C222.9 66.62 223.04 66.28 223.32 66 223.6 65.72 223.95 65.59 224.36 65.59L227.26 65.59C228.57 65.59 229.87 65.47 231.16 65.22 232.45 64.97 233.73 64.64 234.99 64.23 236.25 63.82 237.48 63.35 238.68 62.82 239.88 62.29 241.04 61.75 242.15 61.19 241.49 60.96 240.84 60.7 240.22 60.43 239.6 60.16 238.99 59.88 238.4 59.6 237.94 59.39 237.49 59.18 237.06 58.98 236.63 58.78 236.21 58.6 235.81 58.45 235.41 58.3 235.03 58.17 234.66 58.08 234.29 57.99 233.96 57.94 233.66 57.94 233.26 57.94 232.88 58.03 232.52 58.2 232.16 58.37 231.82 58.6 231.52 58.87 231.22 59.14 230.94 59.43 230.69 59.73 230.44 60.03 230.24 60.33 230.07 60.59 229.9 60.85 229.76 61.08 229.67 61.26 229.58 61.44 229.52 61.54 229.52 61.55L226.88 60.36C226.88 60.36 226.93 60.25 227 60.1 227.07 59.95 227.18 59.75 227.31 59.51 227.44 59.27 227.62 59 227.82 58.7 228.02 58.4 228.26 58.1 228.52 57.78 229.27 56.86 230.08 56.17 230.94 55.71 231.8 55.25 232.7 55.02 233.64 55.02 234.11 55.02 234.59 55.07 235.08 55.18 235.57 55.29 236.06 55.43 236.56 55.61 237.06 55.79 237.56 56 238.08 56.23 238.6 56.46 239.11 56.7 239.64 56.95 240.22 57.22 240.8 57.49 241.39 57.76 241.98 58.03 242.57 58.26 243.17 58.47 243.77 58.68 244.36 58.85 244.96 58.98 245.56 59.11 246.16 59.17 246.76 59.17L247.32 61.95C246.64 62.23 245.96 62.54 245.28 62.87 244.6 63.2 243.9 63.54 243.18 63.9 242.11 64.44 240.95 64.97 239.72 65.51 238.49 66.05 237.19 66.53 235.84 66.97 234.49 67.41 233.09 67.76 231.64 68.03 230.19 68.3 228.73 68.44 227.26 68.44L224.36 68.44C224.15 68.44 223.96 68.4 223.79 68.33 223.62 68.26 223.46 68.15 223.33 68.02 223.2 67.89 223.09 67.73 223.01 67.56 222.93 67.39 222.89 67.2 222.89 67Z" fill="#FFFFFF"/><path d="M257.35 68.45C257.5 66.23 257.59 64.14 257.62 62.16 257.65 60.18 257.65 58.36 257.62 56.68 257.59 55 257.52 53.5 257.44 52.16 257.36 50.82 257.27 49.68 257.18 48.75 257.09 47.82 257.02 47.09 256.95 46.58 256.88 46.07 256.85 45.81 256.85 45.79L259.72 45.35C259.74 45.41 259.81 46 259.94 47.12 260.01 47.68 260.07 48.28 260.12 48.93 260.17 49.58 260.22 50.28 260.27 51.02 260.32 51.76 260.36 52.47 260.39 53.14 260.42 53.81 260.44 54.45 260.46 55.07 260.52 56.87 260.54 58.9 260.53 61.19 260.52 63.48 260.42 65.95 260.24 68.62L257.35 68.46Z" fill="#FFFFFF"/><path d="M268.01 58.94C268.28 59.85 268.54 60.75 268.79 61.64 268.89 62.02 268.99 62.42 269.1 62.83 269.21 63.24 269.31 63.65 269.4 64.06 269.49 64.47 269.57 64.87 269.64 65.25 269.71 65.63 269.76 66 269.8 66.33 269.8 66.44 269.82 66.56 269.83 66.7 269.84 66.84 269.84 66.99 269.84 67.15 269.84 68 269.72 68.82 269.47 69.63 269.22 70.44 268.87 71.2 268.43 71.94 267.99 72.68 267.46 73.38 266.85 74.06 266.24 74.74 265.58 75.37 264.86 75.96 264.14 76.55 263.39 77.1 262.59 77.61 261.79 78.12 260.99 78.57 260.17 78.97L258.9 76.39C259.93 75.88 260.92 75.29 261.89 74.62 262.86 73.95 263.72 73.22 264.48 72.43 265.24 71.64 265.84 70.8 266.3 69.91 266.76 69.02 266.99 68.1 266.99 67.16 266.99 67.11 266.99 67.03 266.98 66.92 266.97 66.81 266.96 66.7 266.95 66.59L266.95 66.59C266.92 66.3 266.87 65.97 266.8 65.62 266.73 65.27 266.65 64.9 266.57 64.52 266.49 64.14 266.39 63.77 266.29 63.39 266.19 63.01 266.09 62.65 266 62.3 265.77 61.48 265.52 60.66 265.25 59.84L268.03 58.96Z" fill="#FFFFFF"/><path d="M291.75 80.05C290.36 80.05 289.04 79.85 287.79 79.46 286.54 79.07 285.42 78.51 284.44 77.8 283.46 77.09 282.64 76.24 281.99 75.27 281.34 74.3 280.92 73.23 280.72 72.07 280.52 70.91 280.59 69.69 280.91 68.39 281.23 67.09 281.88 65.76 282.86 64.41 284.03 63.04 285.5 61.95 287.25 61.13 288.45 60.57 289.69 60.14 290.97 59.83 292.25 59.52 293.5 59.29 294.73 59.14L293.15 58.38C292.12 57.86 291.19 57.42 290.34 57.04 289.49 56.66 288.78 56.44 288.22 56.36 286.86 56.17 285.64 56.66 284.54 57.81 284.22 58.16 283.96 58.5 283.76 58.82 283.56 59.14 283.42 59.39 283.33 59.57L283.26 59.75 280.56 58.64C280.56 58.64 280.63 58.49 280.71 58.32 280.79 58.15 280.91 57.93 281.07 57.67 281.23 57.41 281.42 57.13 281.64 56.81 281.86 56.49 282.13 56.18 282.43 55.86 283.29 54.91 284.24 54.24 285.28 53.85 286.32 53.46 287.43 53.34 288.6 53.5 289.42 53.61 290.3 53.87 291.24 54.28 292.18 54.69 293.24 55.2 294.43 55.78 295.49 56.31 296.63 56.85 297.83 57.41 299.03 57.97 300.34 58.48 301.76 58.95L301.2 61.76C301.2 61.76 301.09 61.76 300.93 61.76 300.77 61.76 300.54 61.76 300.26 61.75 299.98 61.74 299.63 61.75 299.23 61.75 298.83 61.75 298.4 61.78 297.92 61.81 297.9 61.92 297.89 62.07 297.88 62.26 297.87 62.45 297.88 62.66 297.92 62.88 297.96 63.1 298.01 63.34 298.1 63.58 298.19 63.82 298.32 64.05 298.5 64.27 298.73 64.55 299 64.78 299.3 64.96 299.6 65.14 299.94 65.27 300.33 65.38 300.72 65.49 301.15 65.55 301.64 65.59 302.13 65.63 302.68 65.64 303.3 65.64 303.5 65.64 303.68 65.68 303.86 65.76 304.04 65.84 304.19 65.94 304.32 66.07 304.45 66.2 304.56 66.36 304.63 66.53 304.7 66.7 304.75 66.9 304.75 67.1 304.75 67.5 304.61 67.83 304.33 68.1 304.05 68.37 303.71 68.5 303.3 68.5 302.4 68.5 301.59 68.45 300.86 68.35 300.13 68.25 299.48 68.09 298.9 67.89 298.32 67.69 297.81 67.43 297.37 67.12 296.93 66.81 296.54 66.45 296.2 66.03 295.85 65.56 295.57 65.04 295.37 64.47 295.17 63.9 295.05 63.29 295.02 62.63 294.99 62.42 294.99 62.24 295.02 62.07 293.93 62.21 292.82 62.41 291.69 62.67 290.56 62.93 289.49 63.3 288.47 63.77 288.24 63.88 287.96 64.02 287.64 64.21 287.32 64.4 286.99 64.62 286.64 64.88 286.29 65.14 285.94 65.44 285.59 65.77 285.24 66.1 284.92 66.49 284.63 66.91 284.34 67.33 284.09 67.8 283.89 68.32 283.69 68.84 283.56 69.4 283.52 70.01 283.44 71.26 283.65 72.36 284.15 73.31 284.65 74.26 285.34 75.04 286.22 75.66 287.1 76.28 288.1 76.73 289.24 77.02 290.38 77.31 291.53 77.41 292.73 77.34 293.93 77.27 295.08 77.02 296.2 76.59 297.32 76.16 298.31 75.53 299.17 74.71L301.06 76.94C300.37 77.56 299.64 78.06 298.88 78.47 298.12 78.88 297.34 79.2 296.54 79.44 295.74 79.68 294.94 79.85 294.14 79.95 293.34 80.05 292.54 80.1 291.76 80.1ZM289.58 48.51 287.19 50.9 284.79 48.5 287.18 46.11 289.58 48.51Z" fill="#FFFFFF"/><path d="M302.05 67.04C302.05 66.85 302.08 66.68 302.15 66.5 302.22 66.32 302.31 66.18 302.44 66.05 302.57 65.92 302.71 65.81 302.87 65.74 303.03 65.67 303.21 65.61 303.4 65.59 303.98 65.59 304.5 65.48 304.96 65.25 305.42 65.02 305.83 64.72 306.19 64.35 306.55 63.98 306.86 63.54 307.13 63.05 307.4 62.56 307.64 62.05 307.83 61.52 308.02 60.99 308.19 60.45 308.32 59.91 308.45 59.37 308.57 58.86 308.66 58.38L311.56 59C311.48 59.23 311.39 59.54 311.27 59.91 311.15 60.28 311.05 60.68 310.94 61.1 310.83 61.52 310.74 61.96 310.66 62.4 310.58 62.84 310.54 63.26 310.54 63.64 310.54 63.9 310.56 64.16 310.61 64.41 310.66 64.66 310.74 64.88 310.86 65.08 310.98 65.28 311.14 65.43 311.34 65.55 311.54 65.67 311.8 65.73 312.12 65.73 312.62 65.73 313.07 65.59 313.46 65.32 313.85 65.05 314.21 64.69 314.51 64.25 314.81 63.81 315.08 63.31 315.31 62.76 315.54 62.21 315.73 61.64 315.89 61.06 316.05 60.48 316.18 59.92 316.29 59.38 316.4 58.84 316.48 58.37 316.54 57.97L319.35 58.48C319.24 59.11 319.15 59.66 319.08 60.11 319.01 60.56 318.94 61.05 318.88 61.56 318.82 62.07 318.79 62.53 318.79 62.93 318.79 63.29 318.82 63.64 318.87 63.96 318.92 64.28 319.01 64.58 319.13 64.82 319.25 65.06 319.41 65.27 319.61 65.44 319.81 65.61 320.06 65.7 320.35 65.73 320.8 65.79 321.17 65.78 321.47 65.72 321.77 65.66 322 65.56 322.18 65.45 322.36 65.34 322.49 65.22 322.57 65.09 322.65 64.96 322.71 64.87 322.74 64.81L322.73 64.81C322.87 64.6 322.96 64.35 323.02 64.08 323.08 63.81 323.1 63.51 323.1 63.2 323.1 62.64 323.02 62.04 322.87 61.4 322.72 60.76 322.54 60.12 322.33 59.5 322.12 58.88 321.9 58.3 321.67 57.77 321.44 57.24 321.25 56.82 321.09 56.5L323.65 55.15C323.7 55.25 323.79 55.44 323.93 55.71 324.07 55.98 324.22 56.33 324.4 56.74 324.58 57.15 324.76 57.6 324.95 58.11 325.14 58.62 325.31 59.15 325.47 59.71 325.63 60.27 325.76 60.85 325.86 61.43 325.96 62.01 326.01 62.59 326.01 63.14 326.01 63.98 325.89 64.74 325.66 65.42 325.43 66.1 325.07 66.68 324.61 67.16 324.15 67.64 323.55 68.01 322.85 68.27 322.15 68.53 321.31 68.65 320.37 68.64 319.99 68.64 319.61 68.58 319.24 68.46 318.87 68.34 318.51 68.18 318.17 67.98 317.83 67.78 317.51 67.55 317.22 67.28 316.93 67.01 316.68 66.72 316.47 66.41 315.88 67.09 315.22 67.64 314.48 68.04 313.74 68.44 312.95 68.64 312.12 68.64 311.76 68.64 311.39 68.59 311 68.5 310.61 68.41 310.25 68.27 309.89 68.08 309.53 67.89 309.22 67.66 308.93 67.39 308.64 67.12 308.42 66.8 308.26 66.44 307.67 67.06 307.01 67.54 306.27 67.9 305.53 68.26 304.64 68.45 303.6 68.47L303.37 68.47C303.18 68.47 303.01 68.42 302.84 68.34 302.67 68.26 302.53 68.16 302.41 68.03 302.29 67.9 302.19 67.75 302.12 67.58 302.05 67.41 302.02 67.23 302.02 67.03Z" fill="#FFFFFF"/><path d="M335.35 68.47C334.28 68.47 333.36 68.34 332.59 68.09 331.82 67.84 331.18 67.45 330.65 66.92 330.33 66.6 330.08 66.25 329.91 65.88 329.74 65.51 329.61 65.14 329.53 64.78 329.45 64.42 329.4 64.07 329.39 63.75 329.38 63.43 329.38 63.14 329.38 62.91L329.38 62.63C329.38 62.63 329.38 62.44 329.39 62.09 329.4 61.74 329.41 61.27 329.41 60.68 329.41 60.09 329.41 59.41 329.41 58.64 329.41 57.87 329.41 57.05 329.4 56.19 329.4 55.35 329.4 54.48 329.37 53.57 329.34 52.66 329.32 51.78 329.28 50.93 329.24 50.08 329.19 49.3 329.12 48.58 329.05 47.86 328.97 47.27 328.89 46.82L331.76 46.29C331.85 46.79 331.93 47.4 331.99 48.12 332.05 48.84 332.11 49.63 332.16 50.48 332.21 51.33 332.24 52.22 332.25 53.14 332.26 54.06 332.28 54.96 332.28 55.84 332.28 56.7 332.29 57.52 332.29 58.32L332.29 60.43C332.29 61.05 332.29 61.55 332.29 61.95 332.29 62.35 332.29 62.59 332.29 62.67L332.29 62.93C332.29 63.36 332.29 63.74 332.33 64.06 332.37 64.38 332.5 64.66 332.73 64.87 333.17 65.33 334 65.56 335.22 65.57L335.35 65.57C335.55 65.57 335.73 65.61 335.91 65.69 336.09 65.77 336.24 65.87 336.37 66 336.5 66.13 336.61 66.29 336.68 66.46 336.75 66.63 336.8 66.82 336.8 67.02 336.8 67.43 336.66 67.77 336.38 68.05 336.1 68.33 335.76 68.46 335.35 68.46Z" fill="#FFFFFF"/><path d="M333.89 67.03C333.89 66.62 334.03 66.28 334.31 66 334.59 65.72 334.93 65.59 335.33 65.59L336.96 65.59C337.3 65.59 337.67 65.6 338.07 65.59 338.47 65.58 338.88 65.56 339.29 65.52 339.7 65.48 340.1 65.42 340.5 65.35 340.9 65.28 341.26 65.17 341.59 65.04 341.92 64.91 342.21 64.75 342.47 64.55 342.73 64.35 342.91 64.12 343.04 63.85 343.24 63.43 343.29 62.83 343.21 62.06 343.13 61.29 342.93 60.38 342.62 59.34 342.51 59.03 342.39 58.69 342.25 58.32 342.11 57.95 341.97 57.61 341.83 57.3 341.67 56.93 341.51 56.56 341.35 56.2L343.96 54.91C343.96 54.91 344.01 55.02 344.1 55.21 344.19 55.4 344.31 55.66 344.44 55.98 344.57 56.3 344.73 56.68 344.89 57.1 345.05 57.52 345.21 57.98 345.36 58.46 346.27 61.26 346.38 63.45 345.7 65.02 345.01 66.59 343.78 67.63 342.01 68.13 341.75 68.21 341.41 68.27 341 68.31 340.59 68.35 340.17 68.39 339.74 68.41 339.31 68.43 338.9 68.44 338.51 68.45 338.12 68.46 337.82 68.45 337.6 68.45L335.34 68.45C334.94 68.45 334.6 68.31 334.32 68.04 334.04 67.77 333.9 67.42 333.9 67.01ZM337.6 71.2 339.97 73.59 337.57 75.99 335.2 73.6 337.6 71.2ZM340.85 75.83 343.02 78 340.84 80.18 338.67 78.01 340.85 75.83ZM344 71.19 346.37 73.56 343.97 75.96 341.6 73.59 344 71.19Z" fill="#FFFFFF"/></g></svg>