<svg viewBox="0 0 617.47 462.77" xmlns="http://www.w3.org/2000/svg" xmlns:xlink="http://www.w3.org/1999/xlink" id="Layer_1" overflow="hidden"><defs></defs><path d="M550.11 442.53C439.16 442.53 328.21 442.53 217.26 442.53 167.29 442.53 117.32 442.53 67.35 442.53 62.86 442.53 39 442.08 19.72 422.8 7.54 410.61 0 393.77 0 375.17L0 67.36C0 30.16 30.16 0 67.36 0L550.12 0C587.32 0 617.48 30.16 617.48 67.36L617.48 375.17C617.48 412.37 587.32 442.53 550.12 442.53Z" fill="#FFFFFF"/><path d="M32.91 378.59C34.68 388.19 47.06 398.8 61.2 398.8L551.94 398.8C551.94 398.8 574.23 399.22 582.57 381.31 585.05 375.99 586.94 368.63 586.62 361.16 585.53 335.4 585.1 330.55 585.41 330.72L32.16 344.46C32.16 344.46 31.14 368.99 32.9 378.59Z" fill="#92C73E"/><path d="M32.52 371.26C34.29 380.86 46.67 391.47 60.81 391.47L551.55 391.47C551.55 391.47 573.84 391.89 582.18 373.98 589.65 357.94 585.02 323.39 585.02 323.39L31.78 337.13C31.78 337.13 30.76 361.66 32.52 371.26Z" fill="#E4EDB9"/><path d="M550.11 442.7 67.36 442.7C30.16 442.7 0 412.54 0 375.34L0 385.44C0 422.64 30.16 452.8 67.36 452.8L550.12 452.8C587.32 452.8 617.48 422.64 617.48 385.44L617.48 375.34C617.48 412.54 587.32 442.7 550.12 442.7Z" fill="#BBBBBB"/><path d="M550.11 452.67 67.36 452.67C30.16 452.67 0 422.51 0 385.31L0 395.41C0 432.62 30.16 462.77 67.36 462.77L550.12 462.77C587.32 462.77 617.48 432.61 617.48 395.41L617.48 385.31C617.48 422.51 587.32 452.67 550.12 452.67Z" fill="#231F20" opacity="0.47"/><path d="M167.84-69.31 449.62-69.31C469.59-69.31 485.8-53.1 485.8-33.13L485.8 449.62C485.8 469.59 469.59 485.8 449.62 485.8L167.84 485.8C147.87 485.8 131.66 469.59 131.66 449.62L131.66-33.13C131.66-53.1 147.87-69.3 167.83-69.3Z" fill="#C2DA6D" transform="matrix(6.12323e-17 1 -1 6.12323e-17 516.98 -100.49)"/><path d="M571.2 95.21C571.2 137.5 453.69 230.53 308.73 230.53 163.77 230.53 46.27 137.5 46.27 95.21 46.27 74.07 51.31 51.77 83.14 51.77 133.72 51.77 231.92 51.77 304.4 51.77 376.88 51.77 489.95 51.71 539.21 54.06 568.32 55.45 571.2 74.77 571.2 95.21Z" fill="#FFFFFF" opacity="0.3"/><g><path d="M74.32 141.2C72.73 141.8 70.32 142.68 67.1 143.84 64.07 144.89 61.64 145.41 59.83 145.41L59.78 145.41C57.57 145.41 55.75 144.72 54.31 143.35 52.86 141.98 52.12 140.2 52.1 138.02L52.1 137.85C52.1 136.34 52.38 134.76 52.94 133.1 53.27 132.06 53.79 130.49 54.5 128.37L58.68 129.41C58.41 130.28 57.99 131.6 57.43 133.36 56.97 134.85 56.74 136.23 56.74 137.47 56.74 138.53 57.12 139.41 57.89 140.11 58.56 140.71 59.46 141.01 60.6 141.01 61.89 141.01 63.4 140.72 65.12 140.14 66.11 139.76 67.58 139.23 69.54 138.55L67.12 128.58 71.23 127.78 74.34 141.19ZM64.57 131.33 60.72 131.33 60.72 127.43 64.57 127.43 64.57 131.33Z"/><path d="M89.15 138.09 88.6 138.09C87.45 138.09 86.72 137.77 86.39 137.12 86.47 137.48 86.51 137.84 86.51 138.21 86.51 140.21 85.34 142.01 83 143.63 82.38 144.09 80.36 145.17 76.95 146.87L75.03 143.16C77.9 141.78 79.43 141.02 79.65 140.9 81.53 139.67 82.48 138.4 82.48 137.09 82.48 136.48 82.3 135.61 81.94 134.48 81.84 134.21 81.68 133.81 81.45 133.28 81.22 132.75 81.04 132.34 80.92 132.05L84.93 130.61C85.55 132.1 86 132.98 86.27 133.25 86.68 133.58 87.65 133.75 89.16 133.75L89.16 138.08ZM82.74 127.04 78.88 127.04 78.88 123.14 82.74 123.14 82.74 127.04Z"/><path d="M89.57 133.76C91.11 133.76 91.88 133.2 91.88 132.07L91.88 131.9C91.88 131.55 91.7 130.66 91.33 129.21L95.33 128.37C96.01 130.53 96.35 132.23 96.35 133.45 96.35 134.98 95.77 136.16 94.61 137 93.57 137.72 92.25 138.09 90.65 138.09L87.79 138.09 87.79 133.76 89.58 133.76ZM94.9 145.9 90.7 145.9 90.7 141.77 94.9 141.77 94.9 145.9Z"/><path d="M140.64 133.45C140.64 135.07 140.02 136.28 138.78 137.08 137.74 137.75 136.37 138.08 134.67 138.08 132.64 138.08 131.38 137.63 130.87 136.74 129.81 137.61 128.79 138.04 127.79 138.04 126.91 138.04 126.35 137.86 126.1 137.49L127.55 143.06C125.96 143.64 123.53 144.51 120.28 145.67 117.2 146.73 114.74 147.26 112.9 147.26 110.67 147.26 108.86 146.57 107.48 145.19 106.1 143.81 105.38 142.01 105.36 139.78 105.36 138.09 106.05 134.86 107.42 130.1L111.84 131.22 110.64 135.27C110.24 136.61 110.03 137.99 110 139.42L110 139.47C110 140.44 110.37 141.25 111.1 141.91 111.76 142.51 112.64 142.81 113.74 142.81 115.4 142.81 118.39 141.98 122.7 140.32L120.24 130.52 124.5 129.3C124.71 130.17 124.94 131.09 125.19 132.08 125.62 133.17 126.27 133.72 127.11 133.72 128.07 133.72 128.68 132.39 128.95 129.74L133.38 130.46C133.15 131.45 133.03 132.21 133.03 132.73 133.03 133.41 133.51 133.75 134.47 133.75 135.56 133.75 136.12 133.37 136.14 132.6L136.14 132.5C136.14 131.81 135.92 130.94 135.49 129.89L139.5 128.62C140.25 130.96 140.62 132.57 140.62 133.45Z"/><path d="M157.95 138.09 157.7 138.09C156.62 138.09 155.9 138.02 155.54 137.87 154.94 137.64 154.36 137.21 153.8 136.6 152.55 137.59 150.89 138.09 148.82 138.09L143 138.09 143 133.76C145.74 133.9 147.16 133.98 147.26 133.98 149.59 133.98 150.76 133.65 150.76 132.99 150.76 132.51 150.2 131.39 149.07 129.63 148.57 128.86 147.82 127.7 146.83 126.13L150.51 123.79 154.99 131.83C155.53 132.82 155.89 133.38 156.08 133.5 156.41 133.67 157.04 133.75 157.95 133.75L157.95 138.08Z"/><path d="M173.39 132.92C171.9 133.48 170.31 134.3 168.64 135.38 166.67 136.66 164.73 137.48 162.84 137.84 162.01 138.01 159.93 138.09 156.59 138.09L156.59 133.76C161.05 133.76 164.8 133.04 167.83 131.59L162.38 130.34 162.11 131.24 158.08 130.15 159.42 125.48 173.4 128.87 173.4 132.92Z"/><path d="M195.28 137.9C195.28 139.87 194.08 141.65 191.67 143.22 190.84 143.77 188.8 144.8 185.55 146.31L183.68 142.63C184.57 142.23 185.88 141.63 187.61 140.82 189.25 140.01 190.42 139.2 191.12 138.4 188.54 138.02 186.92 137.69 186.24 137.4 184.58 136.7 183.75 135.43 183.75 133.6 183.75 132.3 184.35 131.06 185.56 129.89 186.49 129 187.56 128.08 188.79 127.13 189.54 126.55 190.33 126.24 191.16 126.19L191.31 126.19C192.47 126.19 193.43 126.72 194.2 127.78 194.92 128.75 195.29 129.88 195.29 131.17L195.29 137.89ZM191.48 134.62 191.48 131.51C191.48 130.91 191.32 130.61 191.01 130.61 190.7 130.61 190.09 131.01 189.19 131.81 188.29 132.61 187.75 133.2 187.57 133.57 187.9 133.95 189.21 134.3 191.48 134.62Z"/><path d="M209.27 137.32 209.27 137.42C209.27 139.08 208.72 140.55 207.61 141.84 206.7 142.92 205.44 143.89 203.85 144.73 203.56 144.87 202.09 145.59 199.45 146.87L197.53 143.11C199.05 142.39 200.57 141.66 202.11 140.94 204.08 139.79 205.07 138.58 205.07 137.29 205.07 136.31 204.53 134.55 203.45 132.02L207.5 130.63C208.66 133.65 209.25 135.88 209.27 137.32Z"/><path d="M238.94 139.32C236.72 140.57 234.76 141.59 233.05 142.38 230.6 143.46 228.5 144 226.76 144 224.28 144 222.27 143.31 220.72 141.93 219.17 140.55 218.38 138.61 218.38 136.13 218.38 134.28 219.18 131.48 220.77 127.72L224.85 128.91C224.5 129.76 224.02 131.05 223.4 132.79 223.04 133.87 222.86 134.91 222.86 135.92 222.86 136.98 223.24 137.88 224 138.63 224.76 139.38 225.68 139.75 226.76 139.75 227.73 139.75 229.09 139.4 230.84 138.71 232.46 138.07 233.76 137.44 234.75 136.82 233.22 136.82 231.9 136.33 230.79 135.36 229.68 134.39 229.11 133.17 229.08 131.71L229.08 131.69C229.08 128.71 231.81 126.65 237.27 125.49L238.39 129.1C237.38 129.27 236.38 129.56 235.4 129.97 234.02 130.55 233.33 131.17 233.33 131.84 233.33 132.9 234.79 133.57 237.71 133.86L238.93 139.33Z"/><path d="M251.55 137.32 251.55 137.42C251.55 139.08 251 140.55 249.89 141.84 248.98 142.92 247.72 143.89 246.13 144.73 245.84 144.87 244.37 145.59 241.73 146.87L239.81 143.11 244.39 140.9C246.36 139.77 247.35 138.57 247.35 137.29 247.35 136.46 246.81 134.71 245.73 132.02L249.78 130.63C250.94 133.57 251.53 135.8 251.55 137.32ZM247.07 126.85 243.27 126.85 243.27 122.97 247.07 122.97 247.07 126.85Z"/><path d="M261.28 138.09 260.14 138.09C259.39 138.09 257.48 137.89 254.4 137.5L254.4 120.16 258.7 120.16 258.7 133.67C259.07 133.73 259.93 133.75 261.28 133.75L261.28 138.08Z"/><path d="M261.7 133.76C263.24 133.76 264.01 133.2 264.01 132.07L264.01 131.9C264.01 131.55 263.83 130.66 263.46 129.21L267.46 128.37C268.14 130.53 268.48 132.23 268.48 133.45 268.48 134.98 267.9 136.16 266.74 137 265.7 137.72 264.38 138.09 262.78 138.09L259.92 138.09 259.92 133.76 261.71 133.76ZM267.03 145.9 262.83 145.9 262.83 141.77 267.03 141.77 267.03 145.9Z"/><path d="M296.59 134.04C296.59 135.22 296.2 136.19 295.42 136.95 294.64 137.71 293.67 138.09 292.51 138.09L287.39 138.09C286.17 138.09 285.18 137.71 284.41 136.94 283.64 136.17 283.26 135.18 283.26 133.98L283.26 133.93C283.26 132.78 283.91 131.51 285.22 130.1 285.65 129.7 286.83 128.69 288.75 127.07L287.75 125.63 290.68 123.71 295.75 131.3C296.32 132.14 296.6 133.05 296.6 134.04ZM292.48 133.35C292.48 133.14 291.84 132.13 290.57 130.32 288.54 132.24 287.53 133.36 287.53 133.68 287.53 134.06 287.87 134.25 288.55 134.25L291.51 134.25C292.16 134.25 292.48 133.95 292.48 133.35Z"/><path d="M307.29 137.32 307.29 137.42C307.29 139.08 306.74 140.55 305.63 141.84 304.72 142.92 303.46 143.89 301.87 144.73 301.58 144.87 300.11 145.59 297.47 146.87L295.55 143.11C297.07 142.39 298.59 141.66 300.13 140.94 302.1 139.79 303.09 138.58 303.09 137.29 303.09 136.31 302.55 134.55 301.47 132.02L305.52 130.63C306.68 133.65 307.27 135.88 307.29 137.32Z"/><path d="M317.02 138.09 315.88 138.09C315.13 138.09 313.22 137.89 310.14 137.5L310.14 120.16 314.44 120.16 314.44 133.67C314.81 133.73 315.67 133.75 317.02 133.75L317.02 138.08Z"/><path d="M338.3 133.39C338.3 134.86 337.6 136.04 336.21 136.94 335.01 137.71 333.63 138.09 332.1 138.09 330.23 138.09 329.01 137.6 328.45 136.62 327.62 137.6 326.57 138.09 325.27 138.09 323.87 138.09 322.66 137.49 321.66 136.28 321.31 137.03 320.55 137.57 319.37 137.9 318.68 138.02 317.69 138.08 316.41 138.08L315.66 138.08 315.66 133.75 316.41 133.75C318.15 133.75 319.02 133.28 319.02 132.35 319.02 131.94 318.89 131.33 318.62 130.53L322.78 129.74C322.87 130.28 323.05 131.08 323.33 132.15 323.61 133.22 324.08 133.76 324.75 133.76 325.47 133.76 325.99 133.24 326.31 132.2 326.37 131.83 326.5 130.99 326.71 129.67L330.79 130.42 330.39 133.03C330.51 133.51 331.04 133.75 331.98 133.75 332.49 133.75 332.92 133.68 333.25 133.53 333.73 133.31 333.99 132.98 334.02 132.54L333.15 129.2 337.26 128.28C337.95 130.99 338.3 132.69 338.3 133.38ZM326.58 125.58 322.73 125.58 322.73 121.75 326.58 121.75 326.58 125.58ZM329.24 120.4 325.38 120.4 325.38 116.6 329.24 116.6 329.24 120.4ZM331.98 125.58 328.08 125.58 328.08 121.75 331.98 121.75 331.98 125.58Z"/><path d="M346.36 138.09 342.1 138.09 342.1 120.18 346.36 120.18 346.36 138.09Z"/><path d="M368.15 133.45C368.15 134.94 367.53 136.15 366.29 137.06 365.1 137.74 363.75 138.08 362.24 138.08L356.04 138.08 356.04 133.75 362.68 133.75C363.4 133.75 363.77 133.48 363.77 132.95 363.77 132.68 362.45 130.41 359.81 126.13L363.56 123.82C364.2 124.85 365.16 126.4 366.45 128.47 367.59 130.4 368.16 132.06 368.16 133.45Z"/><path d="M378.92 137.32 378.92 137.42C378.92 139.08 378.37 140.55 377.26 141.84 376.35 142.92 375.09 143.89 373.5 144.73 373.21 144.87 371.74 145.59 369.1 146.87L367.18 143.11C368.7 142.39 370.22 141.66 371.76 140.94 373.73 139.79 374.72 138.58 374.72 137.29 374.72 136.31 374.18 134.55 373.1 132.02L377.15 130.63C378.31 133.65 378.9 135.88 378.92 137.32Z"/><path d="M395.07 138.09 392.54 138.09C392.08 140.23 390.18 142.14 386.82 143.83L383.11 145.57 381.15 141.89C382.04 141.5 383.38 140.89 385.16 140.05 386.82 139.18 387.98 138.37 388.62 137.63 386.09 137.26 384.46 136.92 383.74 136.61 382.03 135.87 381.18 134.56 381.18 132.68 381.18 131.41 381.8 130.17 383.05 128.97 385.56 126.55 387.41 125.34 388.62 125.34L388.69 125.34C390.54 125.34 391.77 126.35 392.39 128.38 392.7 129.42 392.86 131.21 392.86 133.76L395.07 133.76 395.07 138.09ZM389 133.89 389 130.76C389 130.08 388.84 129.74 388.53 129.74 388.33 129.74 387.74 130.17 386.77 131.02 385.8 131.87 385.3 132.4 385.3 132.6 385.3 133 385.83 133.34 386.89 133.6 386.85 133.6 387.55 133.69 389 133.88Z"/><path d="M407.97 135.09C407.97 136.22 407.55 137.18 406.71 137.97 405.87 138.76 404.86 139.19 403.71 139.23L403.58 139.23C402.8 139.23 401.9 138.88 400.87 138.18 400.31 137.78 399.45 137.18 398.29 136.37 397.62 137.22 396.87 137.74 396.05 137.93 395.62 138.03 394.83 138.08 393.71 138.08L393.71 133.75 394.33 133.75C394.74 133.75 395.03 133.73 395.18 133.68 395.76 133.58 396.46 132.87 397.29 131.54 398.44 129.73 399.26 128.58 399.75 128.08 400.88 126.9 402.08 126.31 403.36 126.31 405.04 126.31 406.14 127.19 406.64 128.94 407.51 132.11 407.96 134.16 407.98 135.09ZM404.32 134.76 404.32 134.66C404.32 134.23 404.19 133.45 403.92 132.34 403.63 131.14 403.28 130.5 402.88 130.43 402.45 130.6 401.63 131.58 400.42 133.39 402.37 134.69 403.46 135.35 403.7 135.35 404.09 135.35 404.3 135.15 404.32 134.76Z"/><path d="M445.56 138.09C443.85 138.09 442.86 137.86 442.57 137.4 442.82 139.95 443.07 141.87 443.32 143.14 437.3 145.48 433.19 146.65 430.98 146.65 428.77 146.65 427.03 145.96 425.57 144.58 424.11 143.2 423.38 141.4 423.38 139.18 423.38 137.27 423.97 134.54 425.15 130.97L429.33 132.24C429.12 132.94 428.82 134.02 428.43 135.48 428.1 136.7 427.93 137.79 427.93 138.77 427.93 139.75 428.29 140.6 429 141.21 429.71 141.82 430.59 142.14 431.63 142.16L431.75 142.16C432.6 142.16 433.75 141.92 435.21 141.44 436 141.17 437.21 140.76 438.82 140.2L437.01 121.1 441.09 120.7 442.28 132.47C442.35 133.13 442.76 133.54 443.53 133.71 443.81 133.75 444.16 133.78 444.58 133.78 444.87 133.78 445.19 133.77 445.55 133.75L445.55 138.08Z"/><path d="M456.15 138.09 454.81 138.09C453.15 138.09 451.8 137.66 450.76 136.79 449.58 137.66 447.93 138.09 445.81 138.09L444.19 138.09 444.19 133.76 444.91 133.76C446.92 133.76 447.93 133.39 447.95 132.64 447.95 132.35 447.88 131.9 447.73 131.3 447.61 130.79 447.51 130.33 447.45 129.93L451.56 128.94C451.73 129.93 451.91 130.91 452.1 131.88 452.24 132.64 452.57 133.14 453.06 133.39 453.55 133.64 454.58 133.76 456.14 133.76L456.14 138.09ZM448.36 125.76 444.66 125.76 444.66 122.05 448.36 122.05 448.36 125.76ZM450.84 120.93 447.16 120.93 447.16 117.2 450.84 117.2 450.84 120.93ZM453.33 125.76 449.62 125.76 449.62 122.05 453.33 122.05 453.33 125.76Z"/><path d="M471.67 138.09C471.05 138.08 470.59 138.04 470.32 137.97 469.78 137.8 469.31 137.43 468.88 136.85 468.56 137.65 468.02 138.25 467.27 138.63 466.52 139.01 465.71 139.22 464.83 139.24L464.71 139.24C464.01 139.24 463.14 138.88 462.1 138.15 461.77 137.92 460.96 137.33 459.69 136.39 459.13 137.04 458.4 137.53 457.48 137.86 456.9 138 456 138.08 454.77 138.08L454.77 133.75C456.34 133.75 457.62 133.12 458.6 131.86 459.01 131.29 459.81 130.09 460.99 128.25 461.99 126.98 463.19 126.34 464.57 126.34 465.75 126.34 466.65 126.77 467.28 127.63 467.44 127.84 467.6 128.23 467.76 128.81 467.92 129.39 468.24 130.55 468.72 132.3 468.99 133.29 469.78 133.79 471.09 133.79L471.79 133.79C473.89 133.77 474.93 133.14 474.93 131.92 474.93 129.43 474.33 125.72 473.14 120.78L477.59 120.09C478.84 125.64 479.5 130.22 479.56 133.82 479.56 135.35 478.75 136.48 477.14 137.21 475.89 137.79 474.4 138.08 472.66 138.08L471.66 138.08ZM465.73 134.76 465.73 134.66C465.73 134.23 465.6 133.45 465.33 132.34 465.04 131.14 464.69 130.5 464.29 130.43 463.86 130.6 463.04 131.58 461.83 133.39 463.78 134.69 464.87 135.35 465.11 135.35 465.5 135.35 465.71 135.15 465.73 134.76Z"/><path d="M487.62 138.09 483.36 138.09 483.36 120.18 487.62 120.18 487.62 138.09Z"/><path d="M522.46 133.69 522.46 133.79C522.46 136.66 520.43 138.09 516.36 138.09L502.58 138.09C498.49 138.09 496.43 136.68 496.41 133.86 496.41 133.34 496.67 131.83 497.2 129.34L501.55 130.11C501.38 130.97 501.25 131.76 501.15 132.48 501.15 133.33 501.93 133.75 503.49 133.75L514.16 133.75C515.24 133.75 515.98 133.72 516.37 133.67 517.35 133.5 517.84 133.06 517.84 132.35 517.84 132.06 517.7 131.31 517.41 130.11L521.74 129.34C522.23 131.7 522.48 133.15 522.48 133.69ZM511.82 145.81 507.99 145.81 507.99 141.95 511.82 141.95 511.82 145.81Z"/><path d="M535.69 138.09 534.97 138.09C533.93 138.09 533.25 137.77 532.93 137.12 533.01 137.48 533.05 137.86 533.05 138.27 533.05 140.2 531.88 141.98 529.54 143.62 528.94 144.07 526.92 145.15 523.49 146.86L521.57 143.15 526.19 140.89C528.05 139.66 528.99 138.39 529.02 137.08 529.02 136.48 528.84 135.61 528.48 134.47 528.38 134.2 528.22 133.8 527.99 133.27 527.76 132.74 527.58 132.33 527.46 132.04L531.47 130.6C532.09 132.12 532.54 133 532.81 133.24 533.19 133.57 534.15 133.74 535.7 133.74L535.78 133.74C537.15 133.74 537.84 133.27 537.84 132.32 537.84 131.96 537.59 130.84 537.09 128.94L541.49 127.92C541.61 128.79 541.9 130.26 542.36 132.32 544.17 130.69 546.08 129.28 548.11 128.07 550.76 126.5 552.95 125.71 554.68 125.71 556.11 125.71 557.27 126.14 558.18 127.01 559.09 127.88 559.55 129.03 559.57 130.47L559.57 130.67C559.57 134.38 558.32 136.71 555.81 137.66 555.06 137.93 552.23 138.06 547.31 138.06L545.69 138.06C545.02 138.06 544.13 137.82 543.01 137.34 541.69 136.78 541.02 136.26 540.99 135.78 540.32 136.82 539.48 137.49 538.46 137.8 538 137.94 537.08 138.03 535.7 138.05ZM555.17 131.37C555.17 130.62 554.76 130.25 553.95 130.25 553.23 130.25 550.83 131.42 546.76 133.76L552.51 133.76C554.28 133.76 555.17 132.96 555.17 131.37ZM553.41 123.53 549.56 123.53 549.56 119.67 553.41 119.67 553.41 123.53Z"/><path d="M212.95 189.46 212.23 189.46C211.19 189.46 210.51 189.14 210.19 188.49 210.27 188.85 210.31 189.23 210.31 189.64 210.31 191.57 209.14 193.35 206.8 194.99 206.2 195.44 204.18 196.52 200.75 198.23L198.83 194.52 203.45 192.26C205.31 191.03 206.25 189.76 206.28 188.45 206.28 187.85 206.1 186.98 205.74 185.84 205.64 185.57 205.47 185.17 205.24 184.64 205.01 184.11 204.84 183.7 204.72 183.41L208.73 181.97C209.35 183.49 209.8 184.37 210.07 184.61 210.45 184.94 211.41 185.11 212.96 185.11L212.96 189.44Z"/><path d="M223.53 189.46 222.19 189.46C220.53 189.46 219.18 189.03 218.14 188.16 216.96 189.03 215.31 189.46 213.19 189.46L211.57 189.46 211.57 185.13 212.29 185.13C214.3 185.13 215.31 184.76 215.33 184.01 215.33 183.72 215.26 183.27 215.11 182.67 214.99 182.16 214.89 181.7 214.83 181.3L218.94 180.31C219.11 181.3 219.29 182.28 219.48 183.25 219.62 184.01 219.94 184.51 220.44 184.76 220.94 185.01 221.97 185.13 223.53 185.13L223.53 189.46ZM216.37 197.22 212.69 197.22 212.69 193.47 216.37 193.47 216.37 197.22ZM221.35 197.22 217.6 197.22 217.6 193.47 221.35 193.47 221.35 197.22Z"/><path d="M230.69 169.13 222.63 176.02 221.54 174.7 229.63 167.86 230.68 169.13ZM225.82 185.13C227.11 185.13 227.78 184.85 227.83 184.29 227.83 183.75 227.2 182.54 225.94 180.64 225.37 179.83 224.51 178.61 223.35 176.99L231.38 170.08 233.87 172.69 228.42 177.24 232.75 183.41C233.16 184.01 233.62 184.48 234.12 184.81 234.53 185.01 235.17 185.11 236.03 185.11L236.03 189.44C233.82 189.44 232.04 188.9 230.7 187.82 229.79 188.59 228.76 189.08 227.62 189.29 227.15 189.37 226.48 189.42 225.6 189.44L222.17 189.44 222.17 185.11 225.83 185.11Z"/><path d="M236.44 185.13C237.98 185.13 238.75 184.57 238.75 183.44L238.75 183.27C238.75 182.92 238.57 182.03 238.2 180.58L242.2 179.74C242.88 181.9 243.22 183.6 243.22 184.82 243.22 186.35 242.64 187.53 241.48 188.37 240.44 189.09 239.12 189.46 237.52 189.46L234.66 189.46 234.66 185.13 236.45 185.13ZM241.77 197.27 237.57 197.27 237.57 193.14 241.77 193.14 241.77 197.27Z"/><path d="M264.64 185.41C264.64 186.59 264.25 187.56 263.47 188.32 262.69 189.08 261.72 189.46 260.56 189.46L255.44 189.46C254.22 189.46 253.23 189.08 252.46 188.31 251.69 187.54 251.31 186.55 251.31 185.35L251.31 185.3C251.31 184.15 251.96 182.88 253.27 181.47 253.7 181.07 254.88 180.06 256.8 178.44L255.8 177 258.73 175.08 263.8 182.67C264.37 183.51 264.65 184.42 264.65 185.41ZM260.53 184.72C260.53 184.51 259.89 183.5 258.62 181.69 256.59 183.61 255.58 184.73 255.58 185.05 255.58 185.43 255.92 185.62 256.6 185.62L259.56 185.62C260.21 185.62 260.53 185.32 260.53 184.72Z"/><path d="M278.37 189.46 277.82 189.46C276.67 189.46 275.94 189.14 275.61 188.49 275.69 188.85 275.73 189.21 275.73 189.58 275.73 191.58 274.56 193.38 272.22 195 271.6 195.46 269.58 196.54 266.17 198.24L264.25 194.53C267.12 193.15 268.65 192.39 268.87 192.27 270.75 191.04 271.7 189.77 271.7 188.46 271.7 187.85 271.52 186.98 271.16 185.85 271.06 185.58 270.89 185.18 270.66 184.65 270.43 184.12 270.26 183.71 270.14 183.42L274.15 181.98C274.77 183.47 275.22 184.35 275.49 184.62 275.9 184.95 276.87 185.12 278.38 185.12L278.38 189.45ZM271.96 178.41 268.1 178.41 268.1 174.51 271.96 174.51 271.96 178.41Z"/><path d="M280.13 185.13C281.67 185.13 282.44 184.57 282.44 183.44L282.44 183.27C282.44 182.92 282.26 182.03 281.89 180.58L285.89 179.74C286.57 181.9 286.91 183.6 286.91 184.82 286.91 186.35 286.33 187.53 285.17 188.37 284.13 189.09 282.81 189.46 281.21 189.46L277.01 189.46 277.01 185.13 280.14 185.13ZM281.84 193.48 281.81 197.23 278.06 197.23 278.16 193.48 281.84 193.48ZM286.84 193.48 286.79 197.23 283.08 197.23 283.11 193.48 286.84 193.48Z"/><path d="M296.67 189.46 295.53 189.46C294.78 189.46 292.87 189.26 289.79 188.87L289.79 171.53 294.09 171.53 294.09 185.04C294.46 185.1 295.32 185.12 296.67 185.12L296.67 189.45Z"/><path d="M312.1 184.29C310.61 184.85 309.02 185.67 307.35 186.75 305.38 188.03 303.44 188.85 301.55 189.21 300.72 189.38 298.64 189.46 295.3 189.46L295.3 185.13C299.76 185.13 303.51 184.41 306.54 182.96L301.09 181.71 300.82 182.61 296.79 181.52 298.13 176.85 312.11 180.24 312.11 184.29ZM306 197.18 302.17 197.18 302.17 193.32 306 193.32 306 197.18Z"/><path d="M332.62 188.69 332.62 188.79C332.62 190.45 332.07 191.92 330.96 193.21 330.05 194.29 328.79 195.26 327.2 196.1 326.91 196.24 325.44 196.96 322.8 198.24L320.88 194.48C322.4 193.76 323.92 193.03 325.46 192.31 327.43 191.16 328.42 189.95 328.42 188.66 328.42 187.68 327.88 185.92 326.8 183.39L330.85 182C332.01 185.02 332.6 187.25 332.62 188.69Z"/><path d="M348.68 185.38C348.68 188.08 346.36 189.43 341.71 189.43 340.22 189.43 338.13 189.25 335.46 188.89L335.46 172.23 339.69 172.23 339.69 185.16C341.21 185.28 342.11 185.34 342.4 185.34 343.63 185.34 344.26 184.65 344.31 183.28L344.31 183.16C344.31 181.7 344.12 179.88 343.74 177.71L342.65 172.14 346.88 171.45C347.38 174.25 347.79 176.56 348.1 178.39 348.49 180.88 348.69 183.2 348.69 185.36Z"/><path d="M362.86 184.83C362.86 186.32 362.24 187.53 361 188.44 359.81 189.12 358.46 189.46 356.95 189.46L350.75 189.46 350.75 185.13 357.39 185.13C358.11 185.13 358.48 184.86 358.48 184.33 358.48 184.06 357.16 181.79 354.52 177.51L358.27 175.2C358.91 176.23 359.87 177.78 361.16 179.85 362.3 181.78 362.87 183.44 362.87 184.83Z"/><path d="M386.44 175.33C386.44 177.31 385.48 178.61 383.55 179.21 382.68 179.49 380.91 179.63 378.25 179.63L378.25 189.46 374.05 189.46 374.02 171.4 378.25 171.4 378.25 175.63 380.56 175.63C381.62 175.63 382.15 175.21 382.15 174.36 382.15 173.93 381.99 173.06 381.68 171.77L385.61 170.78C386.17 173.02 386.45 174.54 386.45 175.33Z"/><path d="M397.26 183.32 391.88 183.32 391.88 177.9 397.26 177.9 397.26 183.32Z"/><path d="M409.87 183.32 404.49 183.32 404.49 177.9 409.87 177.9 409.87 183.32Z"/><path d="M138.27 240.84C137.23 240.84 136.55 240.52 136.23 239.87 136.31 240.23 136.35 240.61 136.35 241.02 136.35 242.95 135.18 244.73 132.84 246.37 132.24 246.82 130.22 247.9 126.79 249.61L124.87 245.9 129.49 243.64C131.35 242.41 132.29 241.14 132.32 239.83 132.32 239.23 132.14 238.36 131.78 237.22 131.68 236.95 131.52 236.55 131.29 236.02 131.06 235.49 130.88 235.08 130.76 234.79L134.77 233.35C135.39 234.87 135.84 235.75 136.11 235.99 136.49 236.32 137.02 236.5 137.71 236.52 138.4 236.54 139.03 236.55 139.61 236.55 140.95 236.55 141.63 236.08 141.67 235.13 141.67 235.11 141.56 234.48 141.34 233.24L145.57 232.52C145.74 233.6 145.92 234.41 146.11 234.94 146.44 235.98 146.94 236.5 147.6 236.5 148.8 236.5 149.42 235.14 149.44 232.42L153.55 233.11C153.28 234.57 153.15 235.42 153.15 235.67 153.15 236.23 153.74 236.51 154.92 236.51 155.96 236.51 156.48 236.13 156.48 235.36 156.48 235.07 156.27 234.14 155.84 232.57L159.9 231.38C160.22 233.23 160.49 234.34 160.7 234.71 161.21 235.91 162.08 236.52 163.31 236.52L163.31 240.85C161.67 240.85 160.33 240.38 159.3 239.45 157.93 240.39 156.41 240.85 154.75 240.85 152.92 240.85 151.73 240.36 151.17 239.38 150.2 240.36 149.1 240.85 147.88 240.85 147.23 240.85 146.6 240.66 145.97 240.28 145.43 240.06 144.92 239.68 144.41 239.14 143.93 239.84 143.13 240.35 142.02 240.66 141.3 240.78 140.3 240.84 139.03 240.84L138.29 240.84Z"/><path d="M163.7 236.51C165.24 236.51 166.01 235.95 166.01 234.82L166.01 234.65C166.01 234.3 165.83 233.41 165.46 231.96L169.46 231.12C170.14 233.28 170.48 234.98 170.48 236.2 170.48 237.73 169.9 238.91 168.74 239.75 167.7 240.47 166.38 240.84 164.78 240.84L161.92 240.84 161.92 236.51 163.71 236.51ZM169.1 227.76 165.3 227.76 165.3 223.86 169.1 223.86 169.1 227.76Z"/><path d="M180.24 240.84 179.1 240.84C178.35 240.84 176.44 240.64 173.36 240.25L173.36 222.91 177.66 222.91 177.66 236.42C178.03 236.48 178.89 236.5 180.24 236.5L180.24 240.83Z"/><path d="M190.83 240.84 189.49 240.84C187.83 240.84 186.48 240.41 185.44 239.54 184.26 240.41 182.61 240.84 180.49 240.84L178.87 240.84 178.87 236.51 179.59 236.51C181.6 236.51 182.61 236.14 182.63 235.39 182.63 235.1 182.56 234.65 182.41 234.05 182.29 233.54 182.19 233.08 182.13 232.68L186.24 231.69C186.41 232.68 186.59 233.66 186.78 234.63 186.92 235.39 187.25 235.89 187.74 236.14 188.23 236.39 189.26 236.51 190.82 236.51L190.82 240.84ZM183.67 248.6 179.99 248.6 179.99 244.85 183.67 244.85 183.67 248.6ZM186.25 253.45 182.55 253.45 182.55 249.69 186.25 249.69 186.25 253.45ZM188.66 248.6 184.91 248.6 184.91 244.85 188.66 244.85 188.66 248.6Z"/><path d="M212.1 236.14C212.1 237.57 211.4 238.73 210.01 239.62 208.78 240.43 207.41 240.84 205.9 240.84 204.03 240.84 202.81 240.35 202.25 239.37 201.46 240.35 200.4 240.84 199.07 240.84 197.67 240.84 196.46 240.24 195.46 239.03 194.84 240.23 193.2 240.84 190.54 240.84L189.45 240.84 189.45 236.51 190.2 236.51C191.94 236.51 192.81 236.04 192.81 235.11 192.81 234.68 192.68 234.07 192.41 233.29L196.57 232.5C196.76 233.75 196.92 234.56 197.04 234.92 197.4 235.98 197.9 236.51 198.55 236.51 199.25 236.51 199.77 235.99 200.11 234.95 200.14 234.62 200.28 233.77 200.51 232.42L204.59 233.17 204.19 235.78C204.31 236.26 204.84 236.5 205.78 236.5 207.13 236.5 207.8 236.08 207.8 235.23 207.8 235 207.52 233.9 206.95 231.95L211.06 231.03C211.75 233.74 212.1 235.44 212.1 236.13Z"/><path d="M220.16 240.84 215.9 240.84 215.9 222.93 220.16 222.93 220.16 240.84Z"/><path d="M257.69 240.84C255.59 240.84 254.26 240.39 253.68 239.5 252.79 240.39 251.25 240.84 249.06 240.84L235.11 240.84C233.54 240.84 232.17 240.46 231 239.69 229.7 238.82 229.04 237.62 229.04 236.08 229.04 235.42 229.12 234.76 229.29 234.09 229.54 233.11 229.67 232.45 229.69 232.1L234.11 232.85C233.93 233.74 233.79 234.46 233.68 234.99 233.68 236 234.79 236.51 237.02 236.51L247.17 236.51C249.32 236.51 250.4 235.97 250.4 234.89 250.4 234.54 250.26 233.86 249.97 232.85L254.33 232.06C254.39 232.58 254.48 233.38 254.61 234.45 254.69 235.16 254.94 235.68 255.36 236.01 255.78 236.34 256.56 236.5 257.68 236.5L257.68 240.83ZM241 228.55 237.14 228.55 237.14 224.74 241 224.74 241 228.55ZM246.35 228.55 242.52 228.55 242.52 224.74 246.35 224.74 246.35 228.55Z"/><path d="M261.99 235.52C261.99 234.95 260.37 232.44 257.12 227.98L265.28 221.01 268.06 224.12 262.68 228.57C263.76 229.99 264.58 231.13 265.14 232 265.99 233.35 266.41 234.63 266.41 235.83 266.41 237.47 265.67 238.73 264.2 239.63 262.9 240.44 261.41 240.85 259.75 240.85L256.32 240.85 256.32 236.52 259.75 236.52C261.19 236.5 261.94 236.17 261.99 235.53Z"/><path d="M277.19 240.84C276.2 240.82 275.55 240.49 275.23 239.87 275.31 240.23 275.35 240.61 275.35 241.02 275.35 242.95 274.18 244.73 271.84 246.37 271.24 246.82 269.22 247.9 265.79 249.61L263.87 245.9 268.49 243.64C270.35 242.41 271.29 241.14 271.32 239.83 271.32 239.23 271.14 238.36 270.78 237.22 270.68 236.95 270.52 236.55 270.29 236.02 270.06 235.49 269.88 235.08 269.76 234.79L273.77 233.35C274.39 234.87 274.84 235.75 275.11 235.99 275.42 236.27 276.12 236.43 277.2 236.47L277.2 236.49 277.95 236.49C279.69 236.49 280.56 236.02 280.56 235.09 280.56 234.68 280.43 234.07 280.16 233.27L284.32 232.48C284.41 233.02 284.59 233.82 284.87 234.89 285.15 235.96 285.62 236.5 286.29 236.5 287.01 236.5 287.53 235.98 287.85 234.94 287.91 234.57 288.04 233.73 288.25 232.41L292.33 233.16 291.93 235.77C292.05 236.25 292.58 236.49 293.52 236.49 294.03 236.49 294.46 236.42 294.79 236.27 295.27 236.05 295.53 235.72 295.56 235.28L294.69 231.94 298.8 231.02C299.49 233.73 299.84 235.43 299.84 236.12 299.84 237.59 299.14 238.77 297.75 239.67 296.55 240.44 295.17 240.82 293.64 240.82 291.77 240.82 290.55 240.33 289.99 239.35 289.16 240.33 288.11 240.82 286.81 240.82 285.41 240.82 284.2 240.22 283.2 239.01 282.85 239.76 282.09 240.3 280.91 240.63 280.22 240.75 279.23 240.81 277.95 240.81L277.2 240.81ZM288.11 228.33 284.26 228.33 284.26 224.5 288.11 224.5 288.11 228.33ZM290.77 223.15 286.91 223.15 286.91 219.35 290.77 219.35 290.77 223.15ZM293.51 228.33 289.61 228.33 289.61 224.5 293.51 224.5 293.51 228.33Z"/><path d="M325.32 237.84C325.32 239.01 324.92 239.97 324.11 240.72 323.3 241.47 322.29 241.85 321.09 241.85 320.25 241.85 319.11 241.37 317.64 240.42 316.17 239.47 315.06 238.99 314.3 238.99L314.25 238.99C313.12 238.99 312.56 239.64 312.56 240.95 312.56 242.82 312.74 245 313.11 247.47 313.3 248.9 313.62 251.03 314.08 253.88L309.97 254.47C309.31 250.24 308.93 247.82 308.82 247.2 308.47 244.44 308.29 241.99 308.27 239.88L308.27 239.8C308.27 238.57 308.75 237.45 309.72 236.44 310.66 235.46 311.78 234.97 313.08 234.97 313.44 234.97 313.72 234.99 313.93 235.04L316.64 231.03C317.9 229.57 319.24 228.83 320.65 228.81L320.68 228.81C322.3 228.81 323.37 229.71 323.91 231.52 324.85 234.62 325.31 236.74 325.31 237.87ZM321.62 237.22C321.62 236.7 321.48 235.92 321.19 234.88 320.88 233.66 320.54 233.02 320.19 232.96 319.73 233.08 318.91 234.07 317.73 235.92 319.7 237.2 320.8 237.85 321.02 237.88 321.42 237.88 321.62 237.66 321.62 237.23Z"/><path d="M335.67 240.84 334.53 240.84C333.78 240.84 331.87 240.64 328.79 240.25L328.79 222.91 333.09 222.91 333.09 236.42C333.46 236.48 334.32 236.5 335.67 236.5L335.67 240.83Z"/><path d="M336.09 236.51C337.63 236.51 338.4 235.95 338.4 234.82L338.4 234.65C338.4 234.3 338.22 233.41 337.85 231.96L341.85 231.12C342.53 233.28 342.87 234.98 342.87 236.2 342.87 237.73 342.29 238.91 341.13 239.75 340.09 240.47 338.77 240.84 337.17 240.84L334.31 240.84 334.31 236.51 336.1 236.51ZM341.49 227.76 337.69 227.76 337.69 223.86 341.49 223.86 341.49 227.76Z"/><path d="M365.22 240.84 363.82 240.84C361.81 240.84 360.45 240.13 359.74 238.72 356.8 238.31 355.04 237.99 354.46 237.77 352.49 237.05 351.5 235.75 351.5 233.87 351.5 232.42 352.04 231.17 353.12 230.11 355.57 227.68 357.45 226.45 358.76 226.43L358.84 226.43C360.65 226.43 361.85 227.22 362.45 228.79 362.85 229.79 363.05 231.32 363.05 233.37 363.05 235.13 363.17 236.11 363.42 236.3 363.75 236.46 364.21 236.53 364.79 236.53 364.92 236.53 365.07 236.53 365.22 236.51L365.22 240.84ZM359.22 234.8 359.22 231.56C359.22 230.94 359.09 230.62 358.82 230.62 358.51 230.62 357.89 231.03 356.96 231.84 356.03 232.65 355.57 233.19 355.57 233.46 355.57 233.85 356.09 234.18 357.13 234.45 357.88 234.54 358.57 234.66 359.22 234.8Z"/><path d="M365.64 236.51C367.18 236.51 367.95 235.95 367.95 234.82L367.95 234.65C367.95 234.3 367.77 233.41 367.4 231.96L371.4 231.12C372.08 233.28 372.42 234.98 372.42 236.2 372.42 237.73 371.84 238.91 370.68 239.75 369.64 240.47 368.32 240.84 366.72 240.84L363.86 240.84 363.86 236.51 365.65 236.51ZM370.97 248.65 366.77 248.65 366.77 244.52 370.97 244.52 370.97 248.65Z"/><path d="M382.2 225.52 386.36 225.52 386.36 229.68 382.2 229.68 382.2 225.52ZM382.2 236.67 386.36 236.67 386.36 240.83 382.2 240.83 382.2 236.67Z"/><path d="M408.77 240.84 408.03 240.84C407.07 240.84 406.39 240.52 405.97 239.87 405.16 241.19 403.93 241.84 402.29 241.84 401.45 241.84 400.32 241.4 398.9 240.51 397.48 239.62 396.45 239.17 395.82 239.15L395.79 239.15C394.44 239.15 393.77 239.85 393.77 241.24 393.77 243.05 393.95 245.16 394.32 247.59 394.51 248.98 394.83 251.08 395.29 253.88L391.18 254.47C390.52 250.24 390.14 247.82 390.03 247.2 389.68 244.44 389.5 241.99 389.48 239.88L389.48 239.8C389.48 238.57 389.96 237.45 390.93 236.44 391.87 235.46 392.99 234.97 394.29 234.97 394.65 234.97 394.93 234.99 395.14 235.04L397.85 231.03C399.11 229.57 400.45 228.83 401.86 228.81L401.89 228.81C403.25 228.81 404.24 229.41 404.87 230.62 405.1 231.1 405.4 232.28 405.76 234.15 406.01 235.5 406.33 236.25 406.75 236.39 407.05 236.5 407.52 236.56 408.15 236.56 408.34 236.56 408.55 236.56 408.77 236.54L408.77 240.87ZM402.83 237.23C402.83 236.71 402.69 235.93 402.4 234.89 402.09 233.67 401.75 233.03 401.4 232.97 400.94 233.09 400.12 234.08 398.94 235.93 400.91 237.21 402.01 237.86 402.23 237.89 402.63 237.89 402.83 237.67 402.83 237.24Z"/><path d="M419.26 240.84 417.92 240.84C416.26 240.84 414.91 240.41 413.87 239.54 412.69 240.41 411.04 240.84 408.92 240.84L407.3 240.84 407.3 236.51 408.02 236.51C410.03 236.51 411.04 236.14 411.06 235.39 411.06 235.1 410.99 234.65 410.84 234.05 410.72 233.54 410.62 233.08 410.56 232.68L414.67 231.69C414.84 232.68 415.02 233.66 415.21 234.63 415.35 235.39 415.68 235.89 416.17 236.14 416.66 236.39 417.69 236.51 419.25 236.51L419.25 240.84ZM412.1 248.6 408.42 248.6 408.42 244.85 412.1 244.85 412.1 248.6ZM417.08 248.6 413.33 248.6 413.33 244.85 417.08 244.85 417.08 248.6Z"/><path d="M426.7 220.6 418.69 227.39 417.64 225.92 425.58 219.3 426.7 220.6ZM423.91 235.67C423.91 235.13 422.42 232.69 419.43 228.33L427.56 221.41 430.02 224.12 424.65 228.55C425.2 229.3 426 230.43 427.06 231.94 427.89 233.27 428.3 234.54 428.3 235.77 428.3 237.32 427.77 238.55 426.71 239.47 425.65 240.39 424.35 240.84 422.84 240.84L417.91 240.84 417.91 236.51 422.09 236.51C423.32 236.49 423.93 236.21 423.93 235.67Z"/><path d="M456.92 240.84 456.18 240.84C455.22 240.84 454.54 240.52 454.12 239.87 453.31 241.19 452.08 241.84 450.44 241.84 449.6 241.84 448.47 241.4 447.05 240.51 445.63 239.62 444.6 239.17 443.97 239.15L443.94 239.15C442.59 239.15 441.92 239.85 441.92 241.24 441.92 243.05 442.1 245.16 442.47 247.59 442.66 248.98 442.98 251.08 443.44 253.88L439.33 254.47C438.67 250.24 438.29 247.82 438.18 247.2 437.83 244.44 437.65 241.99 437.63 239.88L437.63 239.8C437.63 238.57 438.11 237.45 439.08 236.44 440.02 235.46 441.14 234.97 442.44 234.97 442.8 234.97 443.08 234.99 443.29 235.04L446 231.03C447.26 229.57 448.6 228.83 450.01 228.81L450.04 228.81C451.4 228.81 452.39 229.41 453.02 230.62 453.25 231.1 453.55 232.28 453.91 234.15 454.16 235.5 454.48 236.25 454.9 236.39 455.2 236.5 455.67 236.56 456.3 236.56 456.49 236.56 456.7 236.56 456.92 236.54L456.92 240.87ZM450.98 237.23C450.98 236.71 450.84 235.93 450.55 234.89 450.24 233.67 449.9 233.03 449.55 232.97 449.09 233.09 448.27 234.08 447.09 235.93 449.06 237.21 450.16 237.86 450.38 237.89 450.78 237.89 450.98 237.67 450.98 237.24Z"/><path d="M478.09 236.14C478.09 237.57 477.39 238.73 476 239.62 474.77 240.43 473.4 240.84 471.89 240.84 470.02 240.84 468.8 240.35 468.24 239.37 467.45 240.35 466.39 240.84 465.06 240.84 463.66 240.84 462.45 240.24 461.45 239.03 460.83 240.23 459.19 240.84 456.53 240.84L455.44 240.84 455.44 236.51 456.19 236.51C457.93 236.51 458.8 236.04 458.8 235.11 458.8 234.68 458.67 234.07 458.4 233.29L462.56 232.5C462.75 233.75 462.91 234.56 463.03 234.92 463.39 235.98 463.89 236.51 464.54 236.51 465.24 236.51 465.76 235.99 466.1 234.95 466.13 234.62 466.27 233.77 466.5 232.42L470.58 233.17 470.18 235.78C470.3 236.26 470.83 236.5 471.77 236.5 473.12 236.5 473.79 236.08 473.79 235.23 473.79 235 473.51 233.9 472.94 231.95L477.05 231.03C477.74 233.74 478.09 235.44 478.09 236.13Z"/><path d="M486.15 240.84 481.89 240.84 481.89 222.93 486.15 222.93 486.15 240.84Z"/><path d="M257.87 292.21C256.98 292.15 256.38 291.83 256.08 291.24 256.16 291.6 256.2 291.98 256.2 292.39 256.2 294.32 255.03 296.1 252.69 297.74 252.09 298.19 250.07 299.27 246.64 300.98L244.72 297.27 249.34 295.01C251.2 293.78 252.14 292.51 252.17 291.2 252.17 290.6 251.99 289.73 251.63 288.59 251.53 288.32 251.37 287.92 251.14 287.39 250.91 286.86 250.73 286.45 250.61 286.16L254.62 284.72C255.24 286.24 255.69 287.12 255.96 287.36 256.33 287.68 257.25 287.85 258.72 287.86 260.65 287.85 261.62 287.48 261.65 286.74 261.65 286.45 261.58 286 261.43 285.4 261.31 284.89 261.21 284.43 261.15 284.03L265.26 283.04C265.43 284.03 265.61 285.01 265.8 285.98 265.94 286.74 266.27 287.24 266.76 287.49 267.25 287.74 268.28 287.86 269.84 287.86L269.84 292.19 268.5 292.19C266.84 292.19 265.49 291.76 264.45 290.89 263.27 291.76 261.62 292.19 259.5 292.19L257.88 292.19ZM262.03 279.88 258.33 279.88 258.33 276.17 262.03 276.17 262.03 279.88ZM267 279.88 263.29 279.88 263.29 276.17 267 276.17 267 279.88Z"/><path d="M291.1 287.51C291.1 288.94 290.4 290.1 289.01 290.99 287.78 291.8 286.41 292.21 284.9 292.21 283.03 292.21 281.81 291.72 281.25 290.74 280.46 291.72 279.4 292.21 278.07 292.21 276.67 292.21 275.46 291.61 274.46 290.4 273.84 291.6 272.2 292.21 269.54 292.21L268.45 292.21 268.45 287.88 269.2 287.88C270.94 287.88 271.81 287.41 271.81 286.48 271.81 286.05 271.68 285.44 271.41 284.66L275.57 283.87C275.76 285.12 275.92 285.93 276.04 286.29 276.4 287.35 276.9 287.88 277.55 287.88 278.25 287.88 278.77 287.36 279.11 286.32 279.14 285.99 279.28 285.14 279.51 283.79L283.59 284.54 283.19 287.15C283.31 287.63 283.84 287.87 284.78 287.87 286.13 287.87 286.8 287.45 286.8 286.6 286.8 286.37 286.52 285.27 285.95 283.32L290.06 282.4C290.75 285.11 291.1 286.81 291.1 287.5Z"/><path d="M300.89 292.21 299.75 292.21C299 292.21 297.09 292.01 294.01 291.62L294.01 274.28 298.31 274.28 298.31 287.79C298.68 287.85 299.54 287.87 300.89 287.87L300.89 292.2Z"/><path d="M301.3 287.88C302.84 287.88 303.61 287.32 303.61 286.19L303.61 286.02C303.61 285.67 303.43 284.78 303.06 283.33L307.06 282.49C307.74 284.65 308.08 286.35 308.08 287.57 308.08 289.1 307.5 290.28 306.34 291.12 305.3 291.84 303.98 292.21 302.38 292.21L299.52 292.21 299.52 287.88 301.31 287.88ZM306.63 300.02 302.43 300.02 302.43 295.89 306.63 295.89 306.63 300.02Z"/><path d="M345.04 292.21C342.94 292.21 341.61 291.76 341.03 290.87 340.14 291.76 338.6 292.21 336.41 292.21L322.46 292.21C320.89 292.21 319.52 291.83 318.35 291.06 317.05 290.19 316.39 288.99 316.39 287.45 316.39 286.79 316.47 286.13 316.64 285.46 316.89 284.48 317.02 283.82 317.04 283.47L321.46 284.22C321.28 285.11 321.14 285.83 321.03 286.36 321.03 287.37 322.14 287.88 324.37 287.88L334.52 287.88C336.67 287.88 337.75 287.34 337.75 286.26 337.75 285.91 337.61 285.23 337.32 284.22L341.68 283.43C341.74 283.95 341.83 284.75 341.96 285.82 342.04 286.53 342.29 287.05 342.71 287.38 343.13 287.71 343.91 287.87 345.03 287.87L345.03 292.2ZM328.35 279.92 324.49 279.92 324.49 276.11 328.35 276.11 328.35 279.92ZM333.7 279.92 329.87 279.92 329.87 276.11 333.7 276.11 333.7 279.92Z"/><path d="M345.45 287.88C346.99 287.88 347.76 287.32 347.76 286.19L347.76 286.02C347.76 285.67 347.58 284.78 347.21 283.33L351.21 282.49C351.89 284.65 352.23 286.35 352.23 287.57 352.23 289.1 351.65 290.28 350.49 291.12 349.45 291.84 348.13 292.21 346.53 292.21L343.67 292.21 343.67 287.88 345.46 287.88ZM350.85 279.13 347.05 279.13 347.05 275.23 350.85 275.23 350.85 279.13Z"/><path d="M366.76 287.58C366.76 289.07 366.14 290.28 364.9 291.19 363.71 291.87 362.36 292.21 360.85 292.21L354.65 292.21 354.65 287.88 361.29 287.88C362.01 287.88 362.38 287.61 362.38 287.08 362.38 286.81 361.06 284.54 358.42 280.26L362.17 277.95C362.81 278.98 363.77 280.53 365.06 282.6 366.2 284.53 366.77 286.19 366.77 287.58Z"/><path d="M211.83 322.05 218.94 322.05C222.33 322.05 225.06 323.02 227.13 324.96 229.2 326.91 230.24 329.49 230.24 332.69 230.24 335.89 229.09 338.49 226.79 340.6 224.6 342.6 222.02 343.59 219.05 343.59L211.64 343.59 211.82 322.05ZM218.25 340.16C220.62 340.16 222.51 339.51 223.9 338.2 225.34 336.86 226.06 335.02 226.06 332.66 226.06 330.59 225.42 328.87 224.15 327.53 222.83 326.15 221.13 325.46 219.05 325.46L215.79 325.46 215.66 340.16 218.25 340.16Z"/><path d="M234.04 322.05 245.56 322.05 245.56 325.46 238.02 325.46 237.97 331.01 245.43 331.01 245.43 334.24 237.94 334.24 237.91 340.16 245.57 340.16 245.57 343.59 233.83 343.59 234.05 322.05Z"/><path d="M249.56 322.73 253.27 321.61 263.32 338.1 263.39 338.1 263.14 322.05 267.12 322.05 266.94 342.9 262.93 344.02 253.11 327.61 253.06 327.68 253.36 343.58 249.38 343.58 249.56 322.73Z"/><path d="M276.19 325.46 270.15 325.46 270.18 322.05 286.15 322.05 286.12 325.46 280.18 325.46 280.01 343.59 276.03 343.59 276.18 325.46Z"/><path d="M296.07 322.05 303.41 322.05C305.45 322.05 307.09 322.57 308.33 323.61 309.55 324.62 310.15 325.95 310.15 327.59 310.15 329.02 309.78 330.19 309.05 331.12 308.36 332 307.47 332.51 306.37 332.64L306.37 332.69C307.66 332.89 308.68 333.46 309.43 334.4 310.15 335.3 310.52 336.42 310.52 337.74 310.52 339.52 309.9 340.95 308.65 342 307.4 343.05 305.75 343.59 303.7 343.59L295.86 343.59 296.08 322.05ZM302.61 340.55C305.23 340.57 306.54 339.57 306.54 337.56 306.54 335.35 305.1 334.25 302.21 334.25L300 334.25 299.9 340.55 302.61 340.55ZM302.36 331.2C303.5 331.2 304.42 330.95 305.14 330.46 305.94 329.9 306.34 329.11 306.34 328.09 306.34 326.09 305.09 325.1 302.58 325.1L300.05 325.1 300.02 331.2 302.36 331.2Z"/><path d="M332.08 335.81C332.05 338.4 331.2 340.43 329.55 341.9 327.96 343.32 325.84 344.02 323.2 344.02 320.56 344.02 318.48 343.31 316.95 341.9 315.33 340.41 314.53 338.3 314.53 335.6 314.53 333.87 314.55 331.61 314.58 328.83 314.62 325.32 314.65 323.06 314.65 322.06L318.65 322.06C318.64 323.06 318.61 325.35 318.57 328.93 318.54 331.77 318.52 334.07 318.52 335.82 318.52 337.28 318.98 338.46 319.91 339.35 320.8 340.19 321.93 340.6 323.29 340.6 324.82 340.6 326.01 340.13 326.87 339.2 327.68 338.31 328.1 337.11 328.12 335.6L328.24 322.05 332.24 322.05 332.11 335.81Z"/><path d="M337.29 339.32C338.71 340.29 339.97 340.77 341.09 340.77 342.21 340.77 343.01 340.47 343.65 339.87 344.25 339.29 344.55 338.55 344.55 337.66 344.54 336.73 344.07 335.97 343.15 335.35 342.9 335.19 341.9 334.71 340.12 333.9 337.18 332.57 335.7 330.56 335.7 327.86 335.7 326.07 336.36 324.58 337.67 323.41 339.02 322.21 340.76 321.6 342.89 321.6 344.85 321.6 346.88 322.2 348.96 323.41L347.29 326.27C345.54 325.31 344.18 324.83 343.21 324.83 342.24 324.83 341.43 325.07 340.77 325.55 340.05 326.09 339.68 326.81 339.68 327.72 339.68 328.63 340.15 329.43 341.1 330.08 341.4 330.28 342.43 330.79 344.19 331.62 347.2 333.02 348.71 334.99 348.71 337.51 348.71 339.36 348.05 340.9 346.72 342.14 345.36 343.39 343.65 344.01 341.59 344.01 339.53 344.01 337.61 343.46 335.74 342.35L337.3 339.31Z"/><path d="M356.56 325.46 350.52 325.46 350.55 322.05 366.52 322.05 366.49 325.46 360.55 325.46 360.38 343.59 356.4 343.59 356.55 325.46Z"/><path d="M369.75 322.05 381.27 322.05 381.27 325.46 373.73 325.46 373.68 331.01 381.14 331.01 381.14 334.24 373.65 334.24 373.62 340.16 381.28 340.16 381.28 343.59 369.54 343.59 369.76 322.05Z"/><path d="M385.31 322.05 392.13 322.05C394.59 322.05 396.46 322.66 397.73 323.87 398.87 324.96 399.44 326.43 399.44 328.27 399.44 331.01 398.05 332.88 395.28 333.87L401.42 341.9 397.86 344.02 391.89 335.71C391.53 335.21 391.05 334.96 390.45 334.96L389.21 334.96 389.18 343.59 385.1 343.59 385.32 322.05ZM391.73 331.73C392.58 331.73 393.31 331.52 393.94 331.11 394.83 330.53 395.28 329.62 395.28 328.38 395.28 327.4 394.92 326.62 394.21 326.06 393.55 325.54 392.69 325.27 391.63 325.27L389.32 325.27 389.25 331.73 391.73 331.73Z"/></g></svg>