<svg viewBox="0 0 325.6 325" xmlns="http://www.w3.org/2000/svg" xmlns:xlink="http://www.w3.org/1999/xlink" id="Layer_1" xml:space="preserve" overflow="hidden"><g><g><path d="M153.6 145.6C153.6 145.6 172.3 153.3 194.7 137 217.1 120.7 298.6 123.8 304.8 113.3 311 102.8 304.1 21.6 291.9 19 279.7 16.4 147.7 32.7 145.3 46.8 142.9 60.9 155.7 124.4 160.1 128.5 164.5 132.6 178.9 129.5 178.2 134.8 177.6 140.2 169.2 144.4 153.6 145.6Z" fill="#36C7D1"/><g><g><path d="M153.2 146.5C154.8 146.5 156.3 146.4 157.9 146.3 159.4 146.3 160.9 146.2 162.5 146.2 165.5 146.2 168.6 146.1 171.5 145.9 175.7 145.6 179.8 144.5 183.7 142.8 187.6 141.2 191.2 138.9 194.6 136.5 198.3 133.8 202.5 132.1 206.8 130.6 211.1 129.2 215.5 128.1 219.9 127.2 228.7 125.4 237.6 124.1 246.5 123.1 255.4 122 264.3 121.2 273.2 120.2 277.6 119.7 282.1 119.2 286.5 118.5 290.9 117.8 295.3 117.1 299.5 115.7 300.5 115.4 301.5 115 302.4 114.5 302.8 114.3 303.3 114 303.6 113.7 303.9 113.4 304.2 113.1 304.4 112.7 304.8 111.8 305.1 110.8 305.3 109.8 305.5 108.8 305.7 107.7 305.8 106.6 306.3 102.3 306.5 97.9 306.6 93.5 306.7 84.7 306.2 75.9 305.4 67.1 304.7 59.8 303.7 52.5 302.4 45.2 301.7 41.6 301 38 300 34.4 299 30.9 297.9 27.3 296.3 24.1 295.9 23.3 295.4 22.5 294.9 21.8 294.4 21.1 293.8 20.4 293.1 20 292.9 19.9 292.7 19.8 292.6 19.7 292.4 19.6 292.2 19.6 292 19.5 291.6 19.4 291.1 19.4 290.7 19.3 289.8 19.2 288.9 19.2 288 19.2 284.3 19.2 280.7 19.4 277 19.7 269.7 20.2 262.3 21 255 21.8 235.6 24.1 216.3 27.1 197.1 30.8 189.4 32.3 181.6 33.9 174 35.8 170.2 36.8 166.4 37.8 162.6 38.9 158.9 40.1 155.1 41.3 151.7 43 150.8 43.4 150 43.9 149.3 44.4 148.5 44.9 147.8 45.5 147.3 46.1L147.1 46.3 147 46.5 146.9 46.7 146.8 46.9C146.8 47 146.8 47 146.7 47.1L146.7 47.4 146.6 48.1C146.5 49 146.5 50 146.5 50.9 146.5 54.7 146.8 58.7 147.3 62.6 148.2 70.4 149.4 78.2 150.8 85.9 151.9 91.9 153.1 97.9 154.3 103.9 155.6 109.9 157 115.9 158.7 121.7 159.1 123.1 159.6 124.6 160.2 125.9 160.3 126.2 160.5 126.6 160.6 126.8L160.8 127.2C160.9 127.3 160.9 127.4 161 127.5 161.4 127.9 161.9 128.2 162.6 128.5 163.8 129 165.3 129.3 166.8 129.5 168.3 129.7 169.8 129.8 171.3 130 172.8 130.2 174.4 130.3 176 130.8 176.8 131.1 177.7 131.3 178.4 132.1 178.8 132.5 179.1 133 179.2 133.6 179.3 134.1 179.3 134.7 179.2 135.2 178.9 137 177.8 138.5 176.6 139.6 175.4 140.7 174 141.6 172.5 142.2 169.3 143.7 165.9 144.8 162.5 145.6 161.5 145.8 160.4 146 159.3 146.2 158.2 146.4 157.2 146.5 156.3 146.5 155 146.5 153.6 145.9 153.7 145.5 153.8 145.1 155.8 144.6 157.2 144.2 157.7 144.1 158.4 144 159 143.9 159.7 143.8 160.4 143.8 161 143.7 163.8 143.3 166.5 142.7 169.1 141.8 171.7 140.9 174.3 139.7 176.1 137.7 177 136.8 177.6 135.5 177.7 134.3 177.8 133.3 176.5 132.6 175.2 132.3 172.6 131.6 169.7 131.6 166.8 131.2 165.4 131 163.9 130.8 162.5 130.3 161.8 130.1 161.1 129.8 160.5 129.3 159.9 128.9 159.3 128.2 159 127.5 158.3 126.2 157.9 124.8 157.4 123.5 157 122.1 156.6 120.8 156.2 119.4 154.7 113.9 153.4 108.4 152.2 102.8 150.7 95.6 149.3 88.4 148 81.1 146.8 73.8 145.6 66.6 144.9 59.2 144.6 55.5 144.4 51.7 144.7 47.9 144.8 47.4 144.8 47 144.9 46.5 145 46 145.3 45.5 145.6 45.1 146.2 44.3 147 43.7 147.8 43.2 149.4 42.1 151.1 41.3 152.8 40.6 157 38.8 161.3 37.4 165.6 36.2 170 35 174.3 33.8 178.7 32.8 187.5 30.7 196.4 29 205.3 27.4 208.7 26.8 212.2 26.5 215.6 25.9 227.1 24 238.6 22.3 250.2 20.8 256 20.1 261.8 19.4 267.6 18.8 273.4 18.2 279.2 17.7 285.1 17.5 286.3 17.5 287.5 17.4 288.8 17.5 289.4 17.5 290 17.5 290.7 17.6 291 17.6 291.3 17.6 291.7 17.7L292.2 17.8C292.4 17.8 292.6 17.9 292.8 18 294.3 18.6 295.3 19.7 296 20.7 296.8 21.8 297.4 22.9 297.9 24 299 26.3 299.8 28.6 300.5 30.9 301.2 33.2 301.8 35.6 302.3 38 304.4 47.5 305.7 57.1 306.6 66.7 307.5 76.6 308.1 86.5 308 96.5 307.9 99 307.9 101.5 307.6 104 307.4 106.5 307.1 109 306.4 111.5 306.2 112.1 306 112.8 305.7 113.4 305.6 113.7 305.3 114 305.1 114.3 304.8 114.6 304.6 114.8 304.3 115 303.2 115.9 302 116.4 300.8 116.9 298.4 117.8 296 118.4 293.5 118.9 289 119.8 284.4 120.4 279.9 121 275.3 121.6 270.8 122 266.2 122.5 257.1 123.4 248 124.3 238.9 125.5 230.2 126.7 221.6 128.3 213.2 130.5 210.1 131.3 207 132.3 204 133.4 201 134.6 198.1 135.9 195.6 137.7L191.5 140.5C190.1 141.4 188.6 142.2 187.2 143 185.7 143.7 184.2 144.4 182.6 145.1L180.2 146C179.8 146.1 179.4 146.3 179 146.4L177.8 146.7 175.8 147.3C175.1 147.5 174.5 147.6 173.8 147.7 173.1 147.8 172.5 148 171.8 148.1L169.8 148.4 168.8 148.5 167.8 148.6 165.7 148.7C164.3 148.7 163 148.7 161.6 148.5 160.4 148.4 159.2 148.2 157.8 147.9 156.5 147.7 155 147.3 153.2 146.5Z" fill="#084670"/></g></g></g><g><path d="M155.9 67.7 154.2 57.6 151.2 58.1 150.7 55.3 160.5 53.6 160.6 56.4 157.8 56.9 159.5 67 155.9 67.7Z" fill="#FFFFFF"/><path d="M171.7 64.7C171.6 64.8 171.4 64.9 171.2 65 171 65.1 170.8 65.2 170.6 65.2 170.4 65.3 170.1 65.3 169.9 65.4 169.7 65.5 169.4 65.5 169.2 65.5 168.9 65.6 168.6 65.6 168.4 65.5 168.2 65.5 168 65.4 167.8 65.4 167.6 65.3 167.5 65.3 167.4 65.2 167.3 65.1 167.2 65 167.1 64.9 166.9 65.2 166.7 65.5 166.3 65.7 165.9 65.9 165.4 66.1 164.8 66.2 164.3 66.3 163.8 66.3 163.4 66.2 163 66.1 162.7 66 162.4 65.8 162.1 65.6 161.9 65.4 161.7 65.1 161.5 64.8 161.4 64.5 161.4 64.1 161.3 63.5 161.3 62.9 161.5 62.5 161.7 62 162 61.6 162.3 61.3 162.7 61 163.1 60.7 163.6 60.5 164.1 60.3 164.7 60.1 165.3 60 165.4 60 165.6 60 165.7 59.9 165.8 59.9 166 59.9 166 59.9L166 59.6C166 59.4 165.9 59.3 165.9 59.2 165.9 59.1 165.7 59 165.6 58.9 165.5 58.8 165.3 58.8 165.1 58.8 164.9 58.8 164.6 58.8 164.2 58.9 163.7 59 163.2 59.1 162.7 59.3 162.2 59.5 161.7 59.7 161.3 60L161.4 57.5C161.8 57.3 162.2 57.1 162.7 56.9 163.2 56.7 163.8 56.6 164.3 56.5 165 56.4 165.6 56.3 166.2 56.3 166.8 56.3 167.3 56.4 167.7 56.5 168.1 56.7 168.5 57 168.8 57.4 169.1 57.8 169.3 58.4 169.4 59.1L170 62.5C170 62.7 170.1 62.8 170.2 62.8 170.3 62.9 170.4 62.9 170.6 62.8 170.7 62.8 170.7 62.8 170.8 62.7 170.9 62.7 171 62.6 171.1 62.6L171.7 64.7ZM166.5 61.7C166.4 61.7 166.4 61.7 166.2 61.7 166 61.7 166 61.7 165.8 61.8 165.3 61.9 164.9 62 164.7 62.2 164.5 62.4 164.4 62.7 164.5 63 164.5 63.2 164.6 63.4 164.7 63.5 164.8 63.6 164.9 63.7 165 63.8 165.1 63.9 165.2 63.9 165.3 63.9 165.4 63.9 165.6 63.9 165.7 63.9 166.1 63.8 166.4 63.7 166.5 63.5 166.6 63.3 166.7 62.9 166.6 62.4L166.5 61.7Z" fill="#FFFFFF"/><path d="M173.5 68.4 171.3 55.6 174.5 55 174.7 55.9C174.8 55.7 174.9 55.6 175 55.4 175.1 55.2 175.3 55.1 175.5 55 175.7 54.9 175.9 54.7 176.2 54.6 176.5 54.5 176.9 54.4 177.3 54.3 177.8 54.2 178.2 54.2 178.7 54.3 179.2 54.4 179.6 54.6 180 54.9 180.4 55.2 180.7 55.7 181 56.2 181.3 56.8 181.5 57.5 181.7 58.3 182 59.8 181.8 61 181.2 62 180.6 63 179.5 63.6 178 63.8 177.8 63.8 177.7 63.8 177.5 63.9 177.3 63.9 177.1 63.9 177 63.9 176.8 63.9 176.7 63.9 176.5 63.9 176.4 63.9 176.3 63.9 176.2 63.9L176.8 67.6 173.5 68.4ZM175.7 61.9C175.8 61.9 176 62 176.3 62 176.6 62 176.8 62 177.1 62 177.4 61.9 177.6 61.9 177.8 61.8 178 61.7 178.1 61.5 178.2 61.3 178.3 61.1 178.3 60.8 178.3 60.5 178.3 60.2 178.3 59.7 178.2 59.2 178 58.3 177.8 57.7 177.6 57.3 177.4 56.9 177 56.8 176.5 56.9 176.3 56.9 176.1 57 175.9 57.1 175.7 57.2 175.5 57.3 175.4 57.5 175.3 57.7 175.2 57.9 175.1 58.2 175 58.5 175 58.8 175.1 59.3L175.7 61.9Z" fill="#FFFFFF"/><path d="M196.5 56C196.7 57 196.7 57.8 196.5 58.5 196.3 59.2 196 59.7 195.6 60.1 195.2 60.5 194.7 60.8 194.1 61.1 193.5 61.3 193 61.5 192.4 61.6 191.8 61.7 191.2 61.7 190.6 61.7 190 61.7 189.4 61.5 188.9 61.3 188.4 61 187.9 60.6 187.5 60.1 187.1 59.5 186.8 58.8 186.6 57.8 186.4 56.8 186.4 56 186.6 55.3 186.8 54.6 187.1 54.1 187.5 53.7 187.9 53.3 188.4 53 189 52.7 189.6 52.5 190.1 52.3 190.7 52.2 191.3 52.1 191.9 52.1 192.5 52.1 193.1 52.1 193.7 52.3 194.2 52.5 194.7 52.8 195.2 53.2 195.6 53.7 196.1 54.3 196.3 55.1 196.5 56ZM192.1 59.5C192.3 59.5 192.6 59.4 192.7 59.3 192.9 59.2 193 59 193.1 58.8 193.2 58.6 193.3 58.3 193.3 58 193.3 57.7 193.3 57.2 193.2 56.7 193.1 56.2 193 55.8 192.9 55.5 192.8 55.2 192.6 54.9 192.4 54.8 192.2 54.6 192 54.5 191.8 54.5 191.6 54.5 191.4 54.5 191.1 54.5 190.8 54.5 190.6 54.6 190.4 54.7 190.2 54.8 190.1 55 190 55.2 189.9 55.4 189.8 55.7 189.8 56 189.8 56.3 189.8 56.8 189.9 57.3 190 57.8 190.1 58.2 190.2 58.6 190.3 58.9 190.5 59.2 190.7 59.3 190.9 59.5 191.1 59.6 191.3 59.6 191.6 59.5 191.8 59.5 192.1 59.5Z" fill="#FFFFFF"/><path d="M209.4 58.3C209.3 58.4 209.1 58.4 209 58.5 208.8 58.6 208.6 58.7 208.4 58.7 208.2 58.8 207.9 58.9 207.7 58.9 207.4 59 207.1 59 206.9 59.1 206.7 59.1 206.5 59.2 206.2 59.1 206 59.1 205.7 59 205.5 58.9 205.3 58.8 205.1 58.6 205 58.4 204.8 58.2 204.7 57.9 204.7 57.5L204 53.6C204 53.4 203.9 53.3 203.9 53.2 203.9 53.1 203.8 53 203.8 52.9 203.7 52.8 203.6 52.8 203.5 52.8 203.4 52.8 203.2 52.8 203 52.8 202.8 52.8 202.6 52.9 202.5 53 202.3 53.1 202.2 53.2 202 53.3 201.9 53.4 201.7 53.5 201.6 53.6 201.5 53.7 201.4 53.8 201.4 53.8L202.4 59.6 199.1 60.2 197.5 51 200.8 50.4 201 51.3C201.1 51.2 201.3 51 201.4 50.9 201.6 50.7 201.8 50.6 202 50.4 202.2 50.3 202.5 50.1 202.7 50 203 49.9 203.3 49.8 203.7 49.7 204.2 49.6 204.6 49.6 204.9 49.6 205.3 49.6 205.6 49.7 205.9 49.8 206.2 50 206.4 50.2 206.6 50.6 206.8 51 206.9 51.4 207 52.1L207.7 56.1C207.7 56.3 207.8 56.4 207.9 56.4 208 56.5 208.1 56.5 208.3 56.5 208.4 56.5 208.5 56.5 208.5 56.4 208.6 56.4 208.7 56.3 208.8 56.3L209.4 58.3Z" fill="#FFFFFF"/><path d="M229.6 54.9C229.5 55 229.3 55 229.2 55.1 229 55.2 228.8 55.3 228.6 55.3 228.4 55.4 228.1 55.5 227.9 55.5 227.6 55.6 227.4 55.6 227.1 55.7 226.9 55.7 226.7 55.8 226.4 55.7 226.2 55.7 225.9 55.6 225.7 55.5 225.5 55.4 225.3 55.2 225.2 55 225 54.8 224.9 54.5 224.9 54.1L224.2 50.1C224.1 49.8 224.1 49.6 224 49.5 223.9 49.4 223.7 49.4 223.3 49.4 223.2 49.4 223.1 49.5 223 49.5 222.9 49.5 222.8 49.6 222.6 49.7 222.5 49.8 222.4 49.9 222.3 50 222.2 50.1 222.1 50.2 222 50.3L223 56.1 219.7 56.7 218.7 51C218.7 50.7 218.6 50.5 218.5 50.4 218.4 50.3 218.2 50.2 217.8 50.3 217.7 50.3 217.5 50.4 217.4 50.5 217.3 50.6 217.1 50.7 217 50.8 216.9 50.9 216.8 51 216.7 51.1 216.6 51.2 216.5 51.3 216.5 51.4L217.5 57.2 214.2 57.8 212.6 48.6 215.9 48 216.1 48.9C216.2 48.7 216.4 48.6 216.5 48.4 216.7 48.2 216.8 48.1 217 48 217.2 47.9 217.4 47.7 217.7 47.6 218 47.5 218.2 47.4 218.6 47.3 219.2 47.2 219.8 47.2 220.3 47.3 220.8 47.4 221.1 47.7 221.4 48.1 221.8 47.7 222.2 47.3 222.7 47 223.2 46.7 223.7 46.5 224.4 46.4 224.9 46.3 225.3 46.3 225.6 46.3 225.9 46.3 226.2 46.4 226.5 46.6 226.7 46.8 227 47 227.1 47.4 227.3 47.8 227.4 48.2 227.5 48.8L228.2 52.8C228.3 53.1 228.4 53.2 228.7 53.2 228.8 53.2 228.9 53.2 228.9 53.1 229 53.1 229.1 53 229.2 53L229.6 54.9Z" fill="#FFFFFF"/><path d="M238.8 53.3C238.6 53.4 238.4 53.5 238.1 53.6 237.8 53.7 237.5 53.8 237.2 53.9 236.9 54 236.6 54.1 236.3 54.1 236 54.2 235.7 54.2 235.4 54.3 234.4 54.5 233.6 54.5 232.9 54.4 232.2 54.3 231.7 54.1 231.2 53.7 230.8 53.4 230.4 52.9 230.2 52.4 230 51.9 229.8 51.3 229.7 50.7 229.6 50.1 229.6 49.5 229.6 48.8 229.7 48.2 229.8 47.6 230.1 47.1 230.4 46.6 230.8 46.1 231.3 45.7 231.8 45.3 232.5 45 233.4 44.9 234.2 44.8 234.9 44.8 235.5 44.9 236.1 45 236.6 45.2 237 45.6 237.4 45.9 237.7 46.3 238 46.8 238.2 47.3 238.4 47.8 238.5 48.3 238.5 48.5 238.6 48.7 238.6 49 238.6 49.3 238.7 49.5 238.7 49.8L233 50.8C233.1 51.3 233.3 51.7 233.7 51.9 234.1 52.1 234.7 52.1 235.6 52 236.2 51.9 236.8 51.7 237.4 51.5 238 51.3 238.5 51.1 238.9 50.8L238.8 53.3ZM235.5 48.6C235.4 47.9 235.3 47.4 235 47.2 234.7 47 234.3 46.9 233.9 47 233.6 47 233.4 47.1 233.3 47.2 233.1 47.3 233 47.5 233 47.6 232.9 47.8 232.9 48 232.9 48.2 232.9 48.4 232.9 48.7 233 49L235.5 48.6Z" fill="#FFFFFF"/><path d="M250.8 51.2C250.6 51.3 250.4 51.4 250.2 51.5 250 51.6 249.8 51.7 249.6 51.7 249.4 51.8 249.2 51.8 248.9 51.9 248.7 52 248.4 52 248.1 52.1 247.8 52.1 247.5 52.2 247.2 52.2 246.9 52.2 246.6 52.1 246.3 52 246 51.9 245.8 51.7 245.5 51.4 245.3 51.1 245.1 50.7 245 50.2L244.2 45.6 242.9 45.8 243 43.5 243.9 43.4 243.5 41.1 246.6 39.5 247.2 42.9 249 42.6 249.4 44.9 247.6 45.2 248.2 48.8C248.3 49.2 248.4 49.4 248.5 49.6 248.6 49.7 248.9 49.8 249.1 49.7 249.4 49.6 249.7 49.5 250 49.3L250.8 51.2Z" fill="#FFFFFF"/><path d="M260.8 45C261 46 261 46.8 260.8 47.5 260.6 48.2 260.3 48.7 259.9 49.1 259.5 49.5 259 49.8 258.4 50.1 257.8 50.3 257.3 50.5 256.7 50.6 256.1 50.7 255.5 50.7 254.9 50.7 254.3 50.7 253.7 50.5 253.2 50.3 252.7 50 252.2 49.6 251.8 49.1 251.4 48.5 251.1 47.8 250.9 46.8 250.7 45.8 250.7 45 250.9 44.3 251.1 43.6 251.4 43.1 251.8 42.7 252.2 42.3 252.7 42 253.3 41.7 253.9 41.5 254.4 41.3 255 41.2 255.6 41.1 256.2 41.1 256.8 41.1 257.4 41.1 258 41.3 258.5 41.5 259 41.8 259.5 42.2 259.9 42.7 260.4 43.3 260.7 44 260.8 45ZM256.4 48.5C256.6 48.5 256.9 48.4 257 48.3 257.2 48.2 257.3 48 257.4 47.8 257.5 47.6 257.6 47.3 257.6 47 257.6 46.7 257.6 46.2 257.5 45.7 257.4 45.2 257.3 44.8 257.2 44.5 257.1 44.2 256.9 43.9 256.7 43.8 256.5 43.6 256.3 43.5 256.1 43.5 255.9 43.5 255.7 43.5 255.4 43.5 255.1 43.5 254.9 43.6 254.7 43.7 254.5 43.8 254.4 44 254.3 44.2 254.2 44.4 254.1 44.7 254.1 45 254.1 45.3 254.1 45.8 254.2 46.3 254.3 46.8 254.4 47.2 254.5 47.6 254.6 47.9 254.8 48.2 255 48.3 255.2 48.5 255.4 48.6 255.6 48.6 255.9 48.5 256.1 48.5 256.4 48.5Z" fill="#FFFFFF"/><path d="M266.7 46C266.8 46.1 267 46.1 267.3 46.1 267.5 46.1 267.8 46.2 268 46.2 268.2 46.2 268.5 46.2 268.8 46.2 269.1 46.2 269.3 46.2 269.5 46.1 269.9 46 270.2 45.9 270.4 45.8 270.5 45.7 270.6 45.5 270.6 45.3 270.6 45.1 270.4 45 270.2 44.9 270 44.8 269.7 44.7 269.4 44.7 269.1 44.6 268.7 44.6 268.4 44.5 268 44.4 267.7 44.3 267.3 44.1 267 43.9 266.7 43.7 266.4 43.4 266.1 43.1 266 42.7 265.9 42.1 265.8 41.6 265.8 41.2 266 40.8 266.1 40.4 266.4 40.1 266.7 39.8 267 39.5 267.4 39.3 267.9 39.1 268.4 38.9 268.9 38.8 269.4 38.7 269.9 38.6 270.4 38.6 271 38.5 271.5 38.5 272.1 38.5 272.6 38.6L272.5 41C272.1 40.9 271.7 40.8 271.3 40.8 270.9 40.7 270.5 40.8 270 40.8 269.7 40.9 269.4 40.9 269.3 41.1 269.2 41.2 269.1 41.4 269.2 41.5 269.2 41.7 269.3 41.8 269.6 41.9 269.8 42 270.1 42 270.4 42.1 270.7 42.2 271 42.2 271.4 42.3 271.8 42.4 272.1 42.5 272.4 42.7 272.7 42.9 273 43.2 273.3 43.5 273.6 43.8 273.7 44.3 273.8 44.8 273.9 45.2 273.8 45.7 273.7 46 273.6 46.4 273.3 46.7 273 47 272.7 47.3 272.3 47.5 271.8 47.7 271.3 47.9 270.8 48 270.3 48.1 269.5 48.2 268.8 48.3 268.2 48.3 267.6 48.3 267.1 48.3 266.7 48.3L266.7 46Z" fill="#FFFFFF"/><path d="M283.9 45.6C283.7 45.7 283.5 45.8 283.2 45.9 282.9 46 282.6 46.1 282.3 46.2 282 46.3 281.7 46.4 281.4 46.4 281.1 46.5 280.8 46.5 280.5 46.6 279.5 46.8 278.7 46.8 278 46.7 277.3 46.6 276.8 46.4 276.3 46 275.9 45.7 275.5 45.2 275.3 44.7 275.1 44.2 274.9 43.6 274.8 43 274.7 42.4 274.7 41.8 274.7 41.1 274.8 40.5 274.9 39.9 275.2 39.4 275.5 38.9 275.9 38.4 276.4 38 276.9 37.6 277.6 37.3 278.5 37.2 279.3 37.1 280 37.1 280.6 37.2 281.2 37.3 281.7 37.5 282.1 37.9 282.5 38.2 282.8 38.6 283.1 39.1 283.3 39.6 283.5 40.1 283.6 40.6 283.6 40.8 283.7 41 283.7 41.3 283.7 41.6 283.8 41.8 283.8 42.1L278.1 43.1C278.2 43.6 278.4 44 278.8 44.2 279.2 44.4 279.8 44.4 280.7 44.3 281.3 44.2 281.9 44 282.5 43.8 283.1 43.6 283.6 43.4 284 43.1L283.9 45.6ZM280.5 40.8C280.4 40.1 280.3 39.6 280 39.4 279.7 39.2 279.3 39.1 278.9 39.2 278.6 39.2 278.4 39.3 278.3 39.4 278.1 39.5 278 39.7 278 39.8 277.9 40 277.9 40.2 277.9 40.4 277.9 40.6 277.9 40.9 278 41.2L280.5 40.8Z" fill="#FFFFFF"/><path d="M294.5 43.7C294.3 43.8 294.1 43.9 293.8 44 293.5 44.1 293.2 44.2 292.9 44.3 292.6 44.4 292.3 44.5 292 44.5 291.7 44.6 291.4 44.6 291.1 44.7 290.1 44.9 289.3 44.9 288.6 44.8 287.9 44.7 287.4 44.5 286.9 44.1 286.5 43.8 286.1 43.3 285.9 42.8 285.7 42.3 285.5 41.7 285.4 41.1 285.3 40.5 285.3 39.9 285.3 39.2 285.4 38.6 285.5 38 285.8 37.5 286.1 37 286.5 36.5 287 36.1 287.5 35.7 288.2 35.4 289.1 35.3 289.9 35.2 290.6 35.2 291.2 35.3 291.8 35.4 292.3 35.6 292.7 36 293.1 36.3 293.4 36.7 293.7 37.2 293.9 37.7 294.1 38.2 294.2 38.7 294.2 38.9 294.3 39.1 294.3 39.4 294.3 39.7 294.4 39.9 294.4 40.2L288.7 41.2C288.8 41.7 289 42.1 289.4 42.3 289.8 42.5 290.4 42.5 291.3 42.4 291.9 42.3 292.5 42.1 293.1 41.9 293.7 41.7 294.2 41.5 294.6 41.2L294.5 43.7ZM291.2 39C291.1 38.3 291 37.8 290.7 37.6 290.4 37.4 290 37.3 289.6 37.4 289.3 37.4 289.1 37.5 289 37.6 288.8 37.7 288.7 37.9 288.7 38 288.6 38.2 288.6 38.4 288.6 38.6 288.6 38.8 288.6 39.1 288.7 39.4L291.2 39Z" fill="#FFFFFF"/></g><g><path d="M195.8 86.4C195.6 86.5 195.4 86.6 195.2 86.7 195 86.8 194.8 86.9 194.6 86.9 194.4 87 194.2 87 193.9 87.1 193.7 87.2 193.4 87.2 193.1 87.3 192.8 87.3 192.5 87.4 192.2 87.4 191.9 87.4 191.6 87.3 191.3 87.2 191 87.1 190.8 86.9 190.5 86.6 190.3 86.3 190.1 85.9 190 85.4L189.2 80.8 187.9 81 188 78.7 188.9 78.6 188.5 76.3 191.6 74.7 192.2 78.1 194 77.8 194.4 80.1 192.6 80.4 193.2 84C193.3 84.4 193.4 84.6 193.5 84.8 193.6 84.9 193.9 85 194.1 84.9 194.4 84.8 194.7 84.7 195 84.5L195.8 86.4Z" fill="#FFFFFF"/><path d="M207.6 84.4C207.5 84.5 207.3 84.5 207.2 84.6 207 84.7 206.8 84.8 206.6 84.8 206.4 84.9 206.1 85 205.9 85 205.6 85.1 205.3 85.1 205.1 85.2 204.9 85.2 204.7 85.3 204.4 85.2 204.2 85.2 203.9 85.1 203.7 85 203.5 84.9 203.3 84.7 203.2 84.5 203 84.3 202.9 84 202.9 83.6L202.2 79.7C202.2 79.5 202.1 79.4 202.1 79.3 202.1 79.2 202 79.1 202 79 201.9 78.9 201.8 78.9 201.7 78.9 201.6 78.9 201.4 78.9 201.2 78.9 201 78.9 200.8 79 200.7 79.1 200.5 79.2 200.4 79.3 200.2 79.4 200.1 79.5 199.9 79.6 199.8 79.7 199.7 79.8 199.6 79.9 199.6 79.9L200.6 85.7 197.3 86.3 195.1 73.4 198.4 72.8 199.2 77.5C199.3 77.4 199.5 77.2 199.6 77.1 199.8 76.9 200 76.8 200.2 76.6 200.4 76.5 200.7 76.3 200.9 76.2 201.2 76.1 201.5 76 201.9 75.9 202.4 75.8 202.8 75.8 203.1 75.8 203.5 75.8 203.8 75.9 204.1 76 204.4 76.2 204.6 76.4 204.8 76.8 205 77.2 205.1 77.6 205.2 78.3L205.9 82.3C205.9 82.5 206 82.6 206.1 82.6 206.2 82.7 206.3 82.7 206.5 82.7 206.6 82.7 206.7 82.7 206.7 82.6 206.8 82.6 206.9 82.5 207 82.5L207.6 84.4Z" fill="#FFFFFF"/><path d="M216.8 82.8C216.6 82.9 216.4 83 216.1 83.1 215.8 83.2 215.5 83.3 215.2 83.4 214.9 83.5 214.6 83.6 214.3 83.6 214 83.7 213.7 83.7 213.4 83.8 212.4 84 211.6 84 210.9 83.9 210.2 83.8 209.7 83.6 209.2 83.2 208.8 82.9 208.4 82.4 208.2 81.9 208 81.4 207.8 80.8 207.7 80.2 207.6 79.6 207.6 79 207.6 78.3 207.7 77.7 207.8 77.1 208.1 76.6 208.4 76.1 208.8 75.6 209.3 75.2 209.8 74.8 210.5 74.5 211.4 74.4 212.2 74.3 212.9 74.3 213.5 74.4 214.1 74.5 214.6 74.7 215 75.1 215.4 75.4 215.7 75.8 216 76.3 216.2 76.8 216.4 77.3 216.5 77.8 216.5 78 216.6 78.2 216.6 78.5 216.6 78.8 216.7 79 216.7 79.3L211 80.3C211.1 80.8 211.3 81.2 211.7 81.4 212.1 81.6 212.7 81.6 213.6 81.5 214.2 81.4 214.8 81.2 215.4 81 216 80.8 216.5 80.6 216.9 80.3L216.8 82.8ZM213.4 78.1C213.3 77.4 213.2 76.9 212.9 76.7 212.6 76.5 212.2 76.4 211.8 76.5 211.5 76.5 211.3 76.6 211.2 76.7 211 76.8 210.9 77 210.9 77.1 210.9 77.2 210.8 77.5 210.8 77.7 210.8 77.9 210.8 78.2 210.9 78.5L213.4 78.1Z" fill="#FFFFFF"/><path d="M222.9 82 221.3 72.8 224.6 72.2 224.8 73.2C225 72.7 225.2 72.4 225.5 72.2 225.7 72 226 71.9 226.4 71.8 226.7 71.7 227 71.7 227.3 71.8 227.6 71.8 227.8 71.9 228 71.9L227.9 74.5C227.7 74.4 227.5 74.4 227.3 74.4 227.1 74.4 226.8 74.4 226.5 74.4 226.3 74.4 226.1 74.5 226 74.6 225.9 74.7 225.7 74.8 225.6 74.9 225.5 75 225.4 75.1 225.3 75.3 225.2 75.4 225.2 75.5 225.2 75.6L226.2 81.3 222.9 82Z" fill="#FFFFFF"/><path d="M241.1 78.6C241 78.7 240.8 78.8 240.6 78.9 240.4 79 240.2 79.1 240 79.1 239.8 79.1 239.5 79.2 239.3 79.3 239.1 79.4 238.8 79.4 238.6 79.4 238.3 79.5 238 79.5 237.7 79.4 237.5 79.4 237.3 79.3 237.1 79.2 236.9 79.1 236.8 79 236.7 78.9 236.6 78.8 236.5 78.7 236.5 78.6 236.1 79.1 235.7 79.4 235.2 79.7 234.7 80 234.2 80.1 233.7 80.2 233.2 80.3 232.8 80.3 232.5 80.3 232.1 80.3 231.8 80.2 231.5 80 231.2 79.8 231 79.6 230.8 79.2 230.6 78.9 230.5 78.4 230.4 77.8L229.3 71.4 232.6 70.8 233.5 76.3C233.6 76.7 233.7 76.9 233.8 77.1 233.9 77.2 234.1 77.3 234.5 77.2 234.7 77.2 234.9 77.1 235 77 235.2 76.9 235.3 76.8 235.4 76.7 235.5 76.6 235.7 76.5 235.8 76.4 235.9 76.3 236 76.2 236 76.1L235 70.4 238.2 69.8 239.3 76.4C239.4 76.7 239.5 76.8 239.9 76.8 240 76.8 240.1 76.8 240.1 76.7 240.2 76.7 240.3 76.6 240.4 76.6L241.1 78.6Z" fill="#FFFFFF"/><path d="M246.8 77.7C246.7 77.8 246.5 77.8 246.4 77.9 246.2 78 246 78.1 245.8 78.1 245.6 78.2 245.3 78.3 245.1 78.3 244.8 78.4 244.5 78.4 244.3 78.5 244.1 78.5 243.9 78.6 243.6 78.5 243.4 78.5 243.1 78.4 242.9 78.3 242.7 78.2 242.5 78 242.4 77.8 242.2 77.6 242.1 77.3 242.1 76.9L240.2 65.7 243.5 65.1 245.3 75.5C245.4 75.8 245.5 75.9 245.8 75.9 245.9 75.9 246 75.9 246 75.8 246.1 75.8 246.2 75.7 246.3 75.7L246.8 77.7Z" fill="#FFFFFF"/><path d="M256.1 76.1C255.9 76.2 255.7 76.3 255.4 76.4 255.1 76.5 254.8 76.6 254.5 76.7 254.2 76.8 253.9 76.9 253.6 76.9 253.3 77 253 77 252.7 77.1 251.7 77.3 250.9 77.3 250.2 77.2 249.5 77.1 249 76.9 248.5 76.5 248.1 76.2 247.7 75.7 247.5 75.2 247.3 74.7 247.1 74.1 247 73.5 246.9 72.9 246.9 72.3 246.9 71.6 247 71 247.1 70.4 247.4 69.9 247.7 69.4 248.1 68.9 248.6 68.5 249.1 68.1 249.8 67.8 250.7 67.7 251.5 67.6 252.2 67.6 252.8 67.7 253.4 67.8 253.9 68 254.3 68.4 254.7 68.7 255 69.1 255.3 69.6 255.5 70.1 255.7 70.6 255.8 71.1 255.8 71.3 255.9 71.5 255.9 71.8 255.9 72.1 256 72.3 256 72.6L250.3 73.6C250.4 74.1 250.6 74.5 251 74.7 251.4 74.9 252 74.9 252.9 74.8 253.5 74.7 254.1 74.5 254.7 74.3 255.3 74.1 255.8 73.9 256.2 73.6L256.1 76.1ZM252.7 71.3C252.6 70.6 252.5 70.1 252.2 69.9 251.9 69.7 251.5 69.6 251.1 69.7 250.8 69.7 250.6 69.8 250.5 69.9 250.3 70 250.2 70.2 250.2 70.3 250.1 70.5 250.1 70.7 250.1 70.9 250.1 71.1 250.1 71.4 250.2 71.7L252.7 71.3Z" fill="#FFFFFF"/><path d="M258.1 73.3C258.2 73.4 258.4 73.4 258.7 73.4 258.9 73.4 259.2 73.5 259.4 73.5 259.6 73.5 259.9 73.5 260.2 73.5 260.5 73.5 260.7 73.5 260.9 73.4 261.3 73.3 261.6 73.2 261.8 73.1 261.9 73 262 72.8 262 72.6 262 72.4 261.8 72.3 261.6 72.2 261.4 72.1 261.1 72 260.8 72 260.5 71.9 260.1 71.9 259.8 71.8 259.4 71.7 259.1 71.6 258.7 71.4 258.4 71.2 258.1 71 257.8 70.7 257.5 70.4 257.4 70 257.3 69.4 257.2 68.9 257.2 68.5 257.4 68.1 257.5 67.7 257.8 67.4 258.1 67.1 258.4 66.8 258.8 66.6 259.3 66.4 259.8 66.2 260.3 66.1 260.8 66 261.3 65.9 261.8 65.9 262.4 65.8 262.9 65.8 263.5 65.8 264 65.9L263.9 68.3C263.5 68.2 263.1 68.1 262.7 68.1 262.3 68 261.9 68.1 261.4 68.1 261.1 68.2 260.8 68.2 260.7 68.4 260.6 68.5 260.5 68.7 260.6 68.8 260.6 69 260.7 69.1 261 69.2 261.2 69.3 261.5 69.3 261.8 69.4 262.1 69.5 262.4 69.5 262.8 69.6 263.2 69.7 263.5 69.8 263.8 70 264.1 70.2 264.4 70.5 264.7 70.8 265 71.1 265.1 71.6 265.2 72.1 265.3 72.5 265.2 73 265.1 73.3 265 73.7 264.7 74 264.4 74.3 264.1 74.6 263.7 74.8 263.2 75 262.7 75.2 262.2 75.3 261.7 75.4 260.9 75.5 260.2 75.6 259.6 75.6 259 75.6 258.5 75.6 258.1 75.6L258.1 73.3Z" fill="#FFFFFF"/></g><g><path d="M188.6 106.9C188.8 107.9 188.8 108.7 188.6 109.4 188.4 110.1 188.1 110.6 187.7 111 187.3 111.4 186.8 111.7 186.2 112 185.6 112.2 185.1 112.4 184.5 112.5 183.9 112.6 183.3 112.6 182.7 112.6 182.1 112.6 181.5 112.4 181 112.2 180.5 111.9 180 111.5 179.6 111 179.2 110.4 178.9 109.7 178.7 108.7 178.5 107.7 178.5 106.9 178.7 106.2 178.9 105.5 179.2 105 179.6 104.6 180 104.2 180.5 103.9 181.1 103.6 181.7 103.4 182.2 103.2 182.8 103.1 183.4 103 184 103 184.6 103 185.2 103 185.8 103.2 186.3 103.4 186.8 103.7 187.3 104.1 187.7 104.6 188.2 105.1 188.5 105.9 188.6 106.9ZM184.2 110.3C184.4 110.3 184.7 110.2 184.8 110.1 185 110 185.1 109.8 185.2 109.6 185.3 109.4 185.4 109.1 185.4 108.8 185.4 108.5 185.4 108 185.3 107.5 185.2 107 185.1 106.6 185 106.3 184.9 106 184.7 105.7 184.5 105.6 184.3 105.4 184.1 105.3 183.9 105.3 183.7 105.3 183.5 105.3 183.2 105.3 182.9 105.3 182.7 105.4 182.5 105.5 182.3 105.6 182.2 105.8 182.1 106 182 106.2 181.9 106.5 181.9 106.8 181.9 107.1 181.9 107.6 182 108.1 182.1 108.6 182.2 109 182.3 109.4 182.4 109.7 182.6 110 182.8 110.1 183 110.3 183.2 110.4 183.4 110.4 183.7 110.4 184 110.4 184.2 110.3Z" fill="#FFFFFF"/><path d="M192 111 190.8 104.1 189.2 104.4 189.3 102.1 190.4 101.9 190.3 101.1C190.2 100.5 190.2 100 190.2 99.6 190.3 99.2 190.4 98.8 190.7 98.5 191 98.2 191.3 97.9 191.8 97.7 192.3 97.5 192.8 97.3 193.5 97.2 193.9 97.1 194.3 97.1 194.6 97.1 195 97.1 195.5 97.1 196 97.1L195.9 99.5C195.8 99.5 195.7 99.5 195.6 99.5 195.5 99.5 195.4 99.5 195.2 99.5 195.1 99.5 195 99.5 194.8 99.5 194.7 99.5 194.6 99.5 194.5 99.5 194.3 99.5 194.1 99.6 194 99.6 193.9 99.7 193.8 99.7 193.7 99.8 193.6 99.9 193.6 100 193.6 100.2 193.6 100.4 193.6 100.5 193.6 100.8L193.7 101.4 195.8 101 196.2 103.3 194.1 103.7 195.3 110.6 192 111Z" fill="#FFFFFF"/><path d="M208.6 108C208.4 108.1 208.2 108.2 208 108.3 207.8 108.4 207.6 108.5 207.4 108.5 207.2 108.6 207 108.6 206.7 108.7 206.5 108.8 206.2 108.8 205.9 108.9 205.6 108.9 205.3 109 205 109 204.7 109 204.4 108.9 204.1 108.8 203.8 108.7 203.6 108.5 203.3 108.2 203.1 107.9 202.9 107.5 202.8 107L202 102.4 200.7 102.6 200.8 100.3 201.7 100.2 201.3 97.9 204.4 96.3 205 99.7 206.8 99.4 207.2 101.7 205.4 102 206 105.6C206.1 106 206.2 106.2 206.3 106.4 206.4 106.5 206.7 106.6 206.9 106.5 207.2 106.4 207.5 106.3 207.8 106.1L208.6 108Z" fill="#FFFFFF"/><path d="M220.4 106C220.3 106.1 220.1 106.1 220 106.2 219.8 106.3 219.6 106.4 219.4 106.4 219.2 106.5 218.9 106.6 218.7 106.6 218.4 106.7 218.1 106.7 217.9 106.8 217.7 106.8 217.5 106.9 217.2 106.8 217 106.8 216.7 106.7 216.5 106.6 216.3 106.5 216.1 106.3 216 106.1 215.8 105.9 215.7 105.6 215.7 105.2L215 101.3C215 101.1 214.9 101 214.9 100.9 214.9 100.8 214.8 100.7 214.8 100.6 214.7 100.5 214.6 100.5 214.5 100.5 214.4 100.5 214.2 100.5 214 100.5 213.8 100.5 213.6 100.6 213.5 100.7 213.3 100.8 213.2 100.9 213 101 212.9 101.1 212.7 101.2 212.6 101.3 212.5 101.4 212.4 101.5 212.4 101.5L213.4 107.3 210.1 107.9 207.9 95 211.2 94.4 212 99.1C212.1 99 212.3 98.8 212.4 98.7 212.6 98.5 212.8 98.4 213 98.2 213.2 98.1 213.5 97.9 213.7 97.8 214 97.7 214.3 97.6 214.7 97.5 215.2 97.4 215.6 97.4 215.9 97.4 216.3 97.4 216.6 97.5 216.9 97.6 217.2 97.8 217.4 98 217.6 98.4 217.8 98.8 217.9 99.2 218 99.9L218.7 103.9C218.7 104.1 218.8 104.2 218.9 104.2 219 104.3 219.1 104.3 219.3 104.3 219.4 104.3 219.5 104.3 219.5 104.2 219.6 104.2 219.7 104.1 219.8 104.1L220.4 106Z" fill="#FFFFFF"/><path d="M229.6 104.3C229.4 104.4 229.2 104.5 228.9 104.6 228.6 104.7 228.3 104.8 228 104.9 227.7 105 227.4 105.1 227.1 105.1 226.8 105.2 226.5 105.2 226.2 105.3 225.2 105.5 224.4 105.5 223.7 105.4 223 105.3 222.5 105.1 222 104.7 221.6 104.4 221.2 103.9 221 103.4 220.8 102.9 220.6 102.3 220.5 101.7 220.4 101.1 220.4 100.5 220.4 99.8 220.5 99.2 220.6 98.6 220.9 98.1 221.2 97.6 221.6 97.1 222.1 96.7 222.6 96.3 223.3 96 224.2 95.9 225 95.8 225.7 95.8 226.3 95.9 226.9 96 227.4 96.2 227.8 96.6 228.2 96.9 228.5 97.3 228.8 97.8 229 98.3 229.2 98.8 229.3 99.3 229.3 99.5 229.4 99.7 229.4 100 229.4 100.3 229.5 100.5 229.5 100.8L223.8 101.8C223.9 102.3 224.1 102.7 224.5 102.9 224.9 103.1 225.5 103.1 226.4 103 227 102.9 227.6 102.7 228.2 102.5 228.8 102.3 229.3 102.1 229.7 101.8L229.6 104.3ZM226.3 99.6C226.2 98.9 226.1 98.4 225.8 98.2 225.5 98 225.1 97.9 224.7 98 224.4 98 224.2 98.1 224.1 98.2 223.9 98.3 223.8 98.5 223.8 98.6 223.7 98.8 223.7 99 223.7 99.2 223.7 99.4 223.7 99.7 223.8 100L226.3 99.6Z" fill="#FFFFFF"/><path d="M241.6 101.7C241.5 101.8 241.3 102 241.2 102.1 241 102.2 240.9 102.3 240.7 102.4 240.5 102.5 240.3 102.6 240 102.7 239.7 102.8 239.4 102.8 239.1 102.9 238.6 103 238.2 103 237.7 102.9 237.2 102.8 236.8 102.6 236.4 102.3 236 102 235.7 101.6 235.4 101 235.1 100.4 234.9 99.7 234.7 98.9 234.5 97.5 234.7 96.3 235.3 95.4 236 94.5 237 93.9 238.5 93.7 239.5 93.5 240.4 93.4 241.3 93.4 242.2 93.3 243 93.3 243.6 93.3L244.9 100.8C245 101.6 245.1 102.4 245 103 245 103.6 244.8 104.1 244.6 104.5 244.4 104.9 244.1 105.3 243.8 105.5 243.5 105.8 243.1 106 242.7 106.2 242.3 106.4 241.9 106.5 241.4 106.6 240.9 106.7 240.5 106.8 240 106.9 239.3 107 238.6 107.1 237.9 107.1 237.2 107.1 236.6 107 236 106.9L236.1 104.4C236.5 104.5 237 104.6 237.6 104.6 238.2 104.7 238.8 104.6 239.5 104.5 239.9 104.4 240.3 104.3 240.6 104.2 240.9 104.1 241.1 104 241.3 103.8 241.5 103.6 241.6 103.5 241.7 103.2 241.8 103 241.8 102.7 241.7 102.4L241.6 101.7ZM240.5 95.6C240.3 95.6 240 95.6 239.8 95.6 239.6 95.6 239.3 95.6 239.1 95.7 238.8 95.7 238.6 95.8 238.4 95.9 238.2 96 238.1 96.1 238 96.3 237.9 96.5 237.8 96.7 237.8 97 237.8 97.3 237.8 97.7 237.9 98.2 238.1 99.1 238.3 99.7 238.5 100.1 238.8 100.4 239.1 100.6 239.6 100.5 239.8 100.5 240 100.4 240.2 100.3 240.4 100.2 240.6 100.1 240.7 99.9 240.8 99.7 240.9 99.5 241 99.2 241.1 98.9 241.1 98.6 241 98.1L240.5 95.6Z" fill="#FFFFFF"/><path d="M256.5 99.7C256.4 99.8 256.2 99.9 256 100 255.8 100.1 255.6 100.2 255.4 100.2 255.2 100.2 254.9 100.3 254.7 100.4 254.5 100.5 254.2 100.5 254 100.5 253.7 100.6 253.4 100.6 253.2 100.5 253 100.5 252.8 100.4 252.6 100.4 252.4 100.3 252.3 100.3 252.2 100.2 252.1 100.1 252 100 251.9 99.9 251.7 100.2 251.5 100.5 251.1 100.7 250.7 100.9 250.2 101.1 249.6 101.2 249.1 101.3 248.6 101.3 248.2 101.2 247.8 101.1 247.5 101 247.2 100.8 246.9 100.6 246.7 100.4 246.5 100.1 246.3 99.8 246.2 99.5 246.2 99.1 246.1 98.5 246.1 97.9 246.3 97.5 246.5 97 246.8 96.6 247.1 96.3 247.5 96 247.9 95.7 248.4 95.5 248.9 95.3 249.5 95.1 250.1 95 250.2 95 250.4 95 250.5 94.9 250.6 94.9 250.8 94.9 250.8 94.9L250.8 94.6C250.8 94.4 250.7 94.3 250.7 94.2 250.6 94.1 250.5 94 250.4 93.9 250.3 93.8 250.1 93.8 249.9 93.8 249.7 93.8 249.4 93.8 249 93.9 248.5 94 248 94.1 247.5 94.3 247 94.5 246.5 94.7 246.1 95L246.2 92.5C246.6 92.3 247 92.1 247.5 91.9 248 91.7 248.6 91.6 249.1 91.5 249.8 91.4 250.4 91.3 251 91.3 251.6 91.3 252.1 91.4 252.5 91.5 252.9 91.7 253.3 92 253.6 92.4 253.9 92.8 254.1 93.4 254.2 94.1L254.8 97.5C254.8 97.7 254.9 97.8 255 97.8 255.1 97.9 255.2 97.9 255.4 97.8 255.5 97.8 255.5 97.8 255.6 97.7 255.7 97.7 255.8 97.6 255.9 97.6L256.5 99.7ZM251.3 96.7C251.2 96.7 251.2 96.7 251 96.7 250.9 96.7 250.8 96.7 250.6 96.8 250.1 96.9 249.7 97 249.5 97.2 249.3 97.4 249.2 97.7 249.3 98 249.3 98.2 249.4 98.4 249.5 98.5 249.6 98.6 249.7 98.7 249.8 98.8 249.9 98.9 250 98.9 250.1 98.9 250.2 98.9 250.4 98.9 250.5 98.9 250.9 98.8 251.2 98.7 251.3 98.5 251.4 98.3 251.5 97.9 251.4 97.4L251.3 96.7Z" fill="#FFFFFF"/><path d="M273.2 96.9C273.1 97 272.9 97 272.8 97.1 272.6 97.2 272.4 97.3 272.2 97.3 272 97.4 271.7 97.5 271.5 97.5 271.2 97.6 271 97.6 270.7 97.7 270.5 97.7 270.3 97.8 270 97.7 269.8 97.7 269.5 97.6 269.3 97.5 269.1 97.4 268.9 97.2 268.8 97 268.6 96.8 268.5 96.5 268.5 96.1L267.8 92.1C267.7 91.8 267.7 91.6 267.6 91.5 267.5 91.4 267.3 91.4 266.9 91.4 266.8 91.4 266.7 91.5 266.6 91.5 266.5 91.6 266.4 91.6 266.2 91.7 266.1 91.8 266 91.9 265.9 92 265.8 92.1 265.7 92.2 265.6 92.3L266.6 98.1 263.3 98.7 262.3 93C262.3 92.7 262.2 92.5 262.1 92.4 262 92.3 261.8 92.2 261.4 92.3 261.3 92.3 261.1 92.4 261 92.5 260.9 92.6 260.7 92.7 260.6 92.8 260.5 92.9 260.4 93 260.3 93.1 260.2 93.2 260.1 93.3 260.1 93.4L261.1 99.2 257.8 99.8 256.2 90.6 259.5 90 259.7 90.9C259.8 90.7 260 90.6 260.1 90.4 260.3 90.2 260.4 90.1 260.6 90 260.8 89.9 261 89.7 261.3 89.6 261.6 89.5 261.8 89.4 262.2 89.3 262.8 89.2 263.4 89.2 263.9 89.3 264.4 89.4 264.7 89.7 265 90.1 265.4 89.7 265.8 89.3 266.3 89 266.8 88.7 267.3 88.5 268 88.4 268.5 88.3 268.9 88.3 269.2 88.3 269.5 88.3 269.8 88.4 270.1 88.6 270.3 88.8 270.6 89 270.7 89.4 270.9 89.8 271 90.2 271.1 90.8L271.8 94.8C271.9 95.1 272 95.2 272.3 95.2 272.4 95.2 272.5 95.2 272.5 95.1 272.5 95 272.7 95 272.8 95L273.2 96.9Z" fill="#FFFFFF"/><path d="M282.5 95.3C282.3 95.4 282.1 95.5 281.8 95.6 281.5 95.7 281.2 95.8 280.9 95.9 280.6 96 280.3 96.1 280 96.1 279.7 96.2 279.4 96.2 279.1 96.3 278.1 96.5 277.3 96.5 276.6 96.4 275.9 96.3 275.4 96.1 274.9 95.7 274.5 95.4 274.1 94.9 273.9 94.4 273.7 93.9 273.5 93.3 273.4 92.7 273.3 92.1 273.3 91.5 273.3 90.8 273.4 90.2 273.5 89.6 273.8 89.1 274.1 88.6 274.5 88.1 275 87.7 275.5 87.3 276.2 87 277.1 86.9 277.9 86.8 278.6 86.8 279.2 86.9 279.8 87 280.3 87.2 280.7 87.6 281.1 87.9 281.4 88.3 281.7 88.8 281.9 89.3 282.1 89.8 282.2 90.3 282.2 90.5 282.3 90.7 282.3 91 282.3 91.3 282.4 91.5 282.4 91.8L276.7 92.8C276.8 93.3 277 93.7 277.4 93.9 277.8 94.1 278.4 94.1 279.3 94 279.9 93.9 280.5 93.7 281.1 93.5 281.7 93.3 282.2 93.1 282.6 92.8L282.5 95.3ZM279.1 90.6C279 89.9 278.9 89.4 278.6 89.2 278.3 89 277.9 88.9 277.5 89 277.2 89 277 89.1 276.9 89.2 276.7 89.3 276.6 89.5 276.6 89.6 276.6 89.7 276.5 90 276.5 90.2 276.5 90.4 276.5 90.7 276.6 91L279.1 90.6Z" fill="#FFFFFF"/></g></g><path d="M144.7 306.6C144.7 309.4 126.3 311.7 103.6 311.7 80.9 311.7 62.5 309.4 62.5 306.6 62.5 303.8 80.9 301.5 103.6 301.5 126.3 301.5 144.7 303.8 144.7 306.6Z" opacity="0.41"/><g><g><linearGradient x1="96.5673" y1="46.234" x2="99.0308" y2="89.5225" gradientUnits="userSpaceOnUse" id="SVGID_1_"><stop offset="0" stop-color="#00243B"/><stop offset="1" stop-color="#00121E"/></linearGradient><linearGradient x1="104.537" y1="74.4343" x2="104.537" y2="191.552" gradientUnits="userSpaceOnUse" id="SVGID_00000095312594912865829540000010197598902463992213_"><stop offset="0" stop-color="#00395C"/><stop offset="1" stop-color="#00273F"/></linearGradient><path d="M91 56.9C71.9 60.7 58.1 69.3 60 77.1 61.9 84.9 81.3 85.7 101.1 80.8 120.9 76 138 70.4 135.8 61 133.5 51.8 114.2 52.2 91 56.9Z" fill="url(#SVGID_1_)"/><g><linearGradient x1="104.438" y1="211.719" x2="104.438" y2="291.836" gradientUnits="userSpaceOnUse" id="SVGID_00000076582889325091471210000013199346620049112486_"><stop offset="0" stop-color="#00243B"/><stop offset="1" stop-color="#00121E"/></linearGradient><path d="M124.4 202.7C124.4 202.7 138.9 196.6 138.9 194.9 138.9 194.5 138.4 193.7 137.5 192.5L134.7 193.3 124.4 202.7Z" fill="none"/><path d="M71.9 191.7C70.7 193.2 69.9 194.4 69.9 194.9 69.9 196.6 84.4 202.7 84.4 202.7L74.7 192.7 71.9 191.7Z" fill="none"/><path d="M124.4 202.7 134.7 193.3 137.5 192.5C134.4 188.3 127.1 180.4 127.1 180.4L124.4 202.7Z" fill="none"/><path d="M71.9 191.7 74.7 192.7 84.4 202.7 81.7 180.4C81.7 180.4 75.3 187.4 71.9 191.7Z" fill="none"/><path d="M81.7 180.4 84.4 202.7 84.5 207.9 124.3 208.1 124.4 202.7 127.1 180.4C127.1 180.4 134.4 188.3 137.5 192.5L151.2 188.4C146.5 176.9 138.1 162.4 134.7 159.4 129.5 154.9 113.2 154.1 108.4 158.9L100.5 158.9C95.7 154.1 79.4 154.8 74.2 159.4 70.9 162.2 63.1 175.7 58.3 186.9L72 191.7C75.3 187.4 81.7 180.4 81.7 180.4Z" fill="#FFFFFF"/><path d="M74.2 307.4C75.6 308.7 96.7 305.4 96.7 305.4L98.5 300.1 99.5 305.4 103.7 305.1 103.5 299.5 87.7 299.5C87.7 299.5 72.8 306.1 74.2 307.4Z" fill="#36C7D1"/><path d="M105.2 305.1 109.4 305.4 110.4 300.1 112.2 305.4C112.2 305.4 133.3 308.7 134.7 307.4 136.1 306.1 121.2 299.5 121.2 299.5L105.4 299.5 105.2 305.1Z" fill="#36C7D1"/><path d="M124.4 208.1 84.5 207.9 84.6 212.7 87.7 299.5 103.5 299.5 101.3 218.6 103.8 218.6 105 218.6 107.6 218.6 105.4 299.5 121.2 299.5 124.3 212.7Z" fill="url(#SVGID_00000076582889325091471210000013199346620049112486_)"/><path d="M84.5 207.9 84.4 202.7C84.4 202.7 69.9 196.6 69.9 194.9 69.9 194.4 70.7 193.3 71.9 191.7L58.2 186.9C55.3 193.7 53.5 199.6 54.5 202.1 56.5 207.1 72.9 210.6 80.6 212 83 212.4 84.5 212.6 84.5 212.6L84.5 207.9Z" fill="#DCA975"/><path d="M151.2 188.4 137.5 192.5C138.3 193.6 138.9 194.5 138.9 194.9 138.9 196.6 124.4 202.7 124.4 202.7L124.3 208.1 124.2 212.6C124.2 212.6 125.2 212.5 126.8 212.2 133.7 211 152.1 207.4 154.3 202.1 155.2 199.8 153.8 194.5 151.2 188.4Z" fill="#DCA975"/><g><path d="M124.4 202.7 124.3 208.1 124.2 212.6C124.2 212.6 125.2 212.5 126.8 212.2 128.3 211.9 130.5 211.5 132.9 211 130.9 207.9 129.3 204.5 128.1 201 126 202 124.4 202.7 124.4 202.7Z" fill="#CCCCCC"/></g><g><linearGradient x1="66.4886" y1="177.475" x2="65.087" y2="199.724" gradientUnits="userSpaceOnUse" id="SVGID_00000168096447290388538840000000145033009682688955_"><stop offset="0" stop-color="#00395C"/><stop offset="1" stop-color="#00273F"/></linearGradient><linearGradient x1="143.918" y1="182.352" x2="142.517" y2="204.602" gradientUnits="userSpaceOnUse" id="SVGID_00000041987683276287166630000012530770394741338017_"><stop offset="0" stop-color="#00395C"/><stop offset="1" stop-color="#00273F"/></linearGradient><path d="M134.7 159.4C129.5 154.9 113.2 154.1 108.4 158.9L100.5 158.9C95.7 154.1 79.4 154.8 74.2 159.4 71.2 162 64.4 173.5 59.6 184 64.1 186.1 68.8 188.1 73.4 189.9 76.9 185.7 81.8 180.4 81.8 180.4L84.5 202.7 84.6 207.9 124.4 208.1 124.5 202.7 127.2 180.4C127.2 180.4 132.3 185.9 135.8 190.1 140.6 188.5 145.4 187.1 150.3 185.8 145.3 174.8 137.9 162.1 134.7 159.4Z" fill="#FFFFFF"/><g><path d="M85.6 163.9C88.7 169 90.5 174.8 93.9 179.7 97.3 184.6 103.3 188.5 109 187 111.6 186.3 113.8 184.7 115.6 182.8 122 176.2 124.3 166.9 126.5 157.9" fill="#CCCCCC"/></g><path d="M58.3 186.9 72 191.7C72.4 191.1 72.9 190.5 73.4 189.9 68.7 188.1 64.1 186.1 59.6 184 59.1 185 58.7 186 58.3 186.9Z" fill="url(#SVGID_00000168096447290388538840000000145033009682688955_)"/><path d="M135.7 190.2C136.4 191 137 191.8 137.5 192.5L151.2 188.4C150.9 187.6 150.5 186.8 150.2 185.9 145.3 187.1 140.5 188.5 135.7 190.2Z" fill="url(#SVGID_00000041987683276287166630000012530770394741338017_)"/></g></g><path d="M146.5 129.6C141.6 124.7 137.9 134.3 137.9 134.3L128.5 110.9 104.3 110.9 104 110.9 79.9 110.9 70.5 134.3C70.5 134.3 66.8 124.7 61.9 129.6 57 134.5 61.7 149.6 70.5 147.3 70.5 147.3 70.5 176.5 104.1 176.6L104.1 176.6C104.1 176.6 104.2 176.6 104.2 176.6 104.2 176.6 104.3 176.6 104.3 176.6L104.3 176.6C137.8 176.4 137.9 147.3 137.9 147.3 146.7 149.6 151.4 134.5 146.5 129.6Z" fill="#DCA975"/><g><g><path d="M83 144.2C83.5 147.3 86.7 149.9 89.8 149.6 93.1 149.3 95.8 146.4 95.8 143.1 95.8 141.5 93.3 141.5 93.3 143.1 93.3 144.1 92.9 145 92.3 145.8 91.9 146.2 91.6 146.5 91.1 146.8 90.7 147 90.1 147.2 89.7 147.2 88.7 147.3 87.7 146.9 87 146.3 86.1 145.6 85.6 144.7 85.5 143.6 85.4 142.9 84.6 142.6 84 142.7 83.2 142.9 82.9 143.5 83 144.2L83 144.2Z" fill="#00273F"/></g></g><g><g><path d="M111.9 144.2C112.4 147.3 115.6 149.9 118.7 149.6 122 149.3 124.7 146.4 124.7 143.1 124.7 141.5 122.2 141.5 122.2 143.1 122.2 144.1 121.8 145 121.2 145.8 120.8 146.2 120.5 146.5 120 146.8 119.6 147 119 147.2 118.6 147.2 117.6 147.3 116.6 146.9 115.9 146.3 115 145.6 114.5 144.7 114.4 143.6 114.3 142.9 113.5 142.6 112.9 142.7 112.1 142.9 111.8 143.5 111.9 144.2L111.9 144.2Z" fill="#00273F"/></g></g><g><g><path d="M146.4 133.7C144 133.1 142.2 135.3 141 137.1 139.8 138.8 139 140.7 138.6 142.7 138.5 143.3 138.8 144.1 139.5 144.2 140.1 144.3 140.9 144 141 143.3 141.4 141.6 141.9 140.2 142.9 138.7 143.4 138 143.7 137.5 144.3 136.9 144.5 136.7 144.6 136.6 144.8 136.4 145 136.3 144.6 136.5 144.9 136.3 145 136.3 145.1 136.2 145.1 136.2 145.1 136.2 145.4 136.1 145.3 136.1 145.2 136.1 145.5 136 145.5 136 145.4 136 145.5 136 145.5 136 145.8 136 145.4 135.9 145.7 136 146.3 136.2 147.1 135.8 147.2 135.1 147.4 134.6 147.1 133.9 146.4 133.7L146.4 133.7Z" fill="#00273F"/></g></g><g><g><path d="M63.1 136.3C65.6 138.2 67.6 141.1 68.6 144.2 68.8 144.8 69.5 145.3 70.1 145.1 70.7 144.9 71.2 144.2 71 143.6 69.9 139.8 67.5 136.6 64.4 134.2 63.9 133.8 63 134.1 62.7 134.6 62.2 135.2 62.5 135.9 63.1 136.3L63.1 136.3Z" fill="#00273F"/></g></g><g><g><path d="M65.9 138.2C65.6 138.4 65.3 138.7 65.1 139 64.8 139.4 64.5 139.8 64.3 140.2 64.2 140.3 64.2 140.5 64.2 140.7 64.2 140.9 64.2 141 64.2 141.2 64.3 141.5 64.5 141.8 64.8 141.9 65.1 142.1 65.4 142.1 65.8 142 66.1 141.9 66.4 141.7 66.5 141.4 66.7 141.1 66.8 140.8 67 140.5 66.9 140.6 66.9 140.7 66.8 140.8 67.1 140.5 67.4 140.2 67.7 139.9 67.8 139.8 67.9 139.7 68 139.5 68.1 139.4 68.1 139.2 68.1 139 68.1 138.7 68 138.3 67.7 138.1 67.5 137.9 67.1 137.7 66.8 137.7 66.7 137.7 66.6 137.7 66.5 137.7 66.3 138 66.1 138.1 65.9 138.2L65.9 138.2Z" fill="#00273F"/></g></g><path d="M70.5 134.3C70.5 134.3 70.7 140.7 72.1 140.9 73.5 141 75.2 142.7 76.8 140 78.4 137.4 79.9 120.3 79.9 120.3 79.9 120.3 84 121.9 89.7 121.9 95.4 121.9 104.1 114.8 104.1 114.8 104.1 114.8 106.2 121.5 113.1 123.6 120 125.6 123.5 121.6 123.5 121.6 123.5 121.6 127.4 127.9 130.6 129.1 133.9 130.3 134.5 126 134.5 126 134.5 126 132.8 140.7 133.4 141.1 134 141.5 135 141.9 136.3 141.1 137.5 140.3 137.9 134.4 137.9 134.4 137.9 134.4 141.1 127.9 143.2 128.4 145.3 128.9 152.2 117.3 143.2 112 143.2 112 145.8 101.8 137.1 96.1 128.3 90.4 123.5 95.5 123.5 95.5 123.5 95.5 122.8 84.3 111.9 83.3 101 82.3 99.8 90.8 99.8 90.8 99.8 90.8 93 85.5 84.2 89 75.4 92.5 77.6 101 77.6 101 77.6 101 69.6 100 64.8 106.7 60.1 113.4 64.8 118.7 64.8 118.7 64.8 118.7 59.5 125 61.9 129.7 62 129.6 67.6 127.4 70.5 134.3Z" fill="url(#SVGID_00000095312594912865829540000010197598902463992213_)"/><g><path d="M84.2 93.1C93 89.6 99.8 94.9 99.8 94.9 99.8 94.9 101 86.3 111.9 87.4 122.7 88.4 123.5 99.6 123.5 99.6 123.5 99.6 128.4 94.5 137.1 100.2 141.5 103.1 143.1 107.1 143.5 110.4 143.9 107.4 143.9 100.3 137.1 95.9 128.3 90.2 123.5 95.3 123.5 95.3 123.5 95.3 122.8 84.1 111.9 83.1 101 82.1 99.8 90.6 99.8 90.6 99.8 90.6 93 85.3 84.2 88.8 76.3 91.9 77.3 99.1 77.6 100.5 78.1 98 79.7 94.9 84.2 93.1Z" fill="#00273F"/><path d="M143.2 116.1C145.7 117.6 147 119.6 147.5 121.7 148.1 118.4 147.5 114.6 143.6 112.1 143.7 114.5 143.2 116.1 143.2 116.1Z" fill="#00273F"/><path d="M133.9 131.9C133.5 136 133.1 140.8 133.5 141 133.5 141 133.5 141 133.5 141 133.8 136.5 134.6 130.1 134.6 130.1 134.6 130.1 134.4 131.1 133.9 131.9Z" fill="#00273F"/><path d="M64.9 110.8C69.6 104.1 77.7 105.1 77.7 105.1 77.7 105.1 77.2 103.2 77.6 100.9 76.6 100.8 69.3 100.3 64.9 106.6 62.6 109.8 62.5 112.7 63 114.8 63.3 113.6 63.9 112.2 64.9 110.8Z" fill="#00273F"/><path d="M64.9 122.8C64.9 122.8 64.1 121.9 63.5 120.5 62.2 122.6 60.6 125.9 61.6 128.8 62.5 125.6 64.9 122.8 64.9 122.8Z" fill="#00273F"/></g><g><path d="M97.2 128.2C94.7 125.7 90.7 124.8 87.4 126.1 84.2 127.3 81.9 130.3 81.5 133.7 85.1 131.5 89.2 130 93.4 129.5 94.5 129.4 95.7 129.3 96.8 129 97.1 128.9 97.4 128.8 97.4 128.5 97.3 128.3 97.2 128.2 97.2 128.2Z" fill="#00273F"/></g><g><path d="M110.6 133.3C112.3 136.4 115.9 138.3 119.4 138 122.8 137.7 125.8 135.4 127.1 132.3 123 133.5 118.7 133.8 114.5 133.2 113.4 133 112.3 132.8 111.1 132.7 110.8 132.7 110.4 132.8 110.4 133 110.5 133.2 110.5 133.2 110.6 133.3Z" fill="#00273F"/></g><g><defs><path d="M104.1 160.7C103.6 155.6 98.1 153.4 92.7 156.2 87.2 158.9 60.9 171.8 50.2 155.2 42.3 142.8 29.8 106.9 64.3 83.3 68.2 80.8 78.4 79.2 77.2 76.3 76.1 73.3 71.9 75.6 71.9 75.6 71.9 75.6 76.7 73.1 75.7 71.6 74.7 70 69.1 72.5 69.1 72.5 69.1 72.5 74.2 70.3 72.7 69 71.2 67.7 56 70.4 40.1 92.7 31 105.5 14.6 135.6 36.7 165.7 58.9 195.6 105.2 172.8 104.1 160.7Z" id="SVGID_00000041296410793708795700000001343496278211155859_"/></defs><clipPath id="SVGID_00000154402622496751645450000016025595963670067627_"><use width="100%" height="100%" xlink:href="#SVGID_00000041296410793708795700000001343496278211155859_" overflow="visible"></use></clipPath><linearGradient x1="64.8737" y1="74.4343" x2="64.8737" y2="191.552" gradientUnits="userSpaceOnUse" id="SVGID_00000034775984824671332520000003119016260915443875_"><stop offset="0" stop-color="#00395C"/><stop offset="1" stop-color="#00273F"/></linearGradient><path d="M104.1 160.7C103.6 155.6 98.1 153.4 92.7 156.2 87.2 158.9 60.9 171.8 50.2 155.2 42.3 142.8 29.8 106.9 64.3 83.3 68.2 80.8 78.4 79.2 77.2 76.3 76.1 73.3 71.9 75.6 71.9 75.6 71.9 75.6 76.7 73.1 75.7 71.6 74.7 70 69.1 72.5 69.1 72.5 69.1 72.5 74.2 70.3 72.7 69 71.2 67.7 56 70.4 40.1 92.7 31 105.5 14.6 135.6 36.7 165.7 58.9 195.6 105.2 172.8 104.1 160.7Z" fill="url(#SVGID_00000034775984824671332520000003119016260915443875_)" clip-path="url(#SVGID_00000154402622496751645450000016025595963670067627_)"/><path d="M80.6 71.9C78.2 71.9 42.3 80.1 38.7 121.7 35.1 163.3 57.8 175.5 78.1 166.7 98.4 157.9 108.3 150.3 108.3 150.3" stroke="#00273F" stroke-width="0.75" stroke-miterlimit="10" fill="none" clip-path="url(#SVGID_00000154402622496751645450000016025595963670067627_)"/><path d="M67.7 62C67.7 62 47.8 60.9 33.2 101.7 18.6 142.5 43 184 55.8 185.9 84.8 190.2 98.6 168.4 104.9 155.6" stroke="#00273F" stroke-miterlimit="10" fill="none" clip-path="url(#SVGID_00000154402622496751645450000016025595963670067627_)"/><path d="M101.9 155.6C101.9 155.6 94.6 169 67.6 172.9 40.6 176.8 33.1 148.7 33.1 128.8 33.1 108.9 50.7 71.4 75.2 68.5" stroke="#00273F" stroke-miterlimit="10" fill="none" clip-path="url(#SVGID_00000154402622496751645450000016025595963670067627_)"/></g><g><defs><path d="M103.7 158.1C102.3 163 106.3 167.2 112.4 166.8 118.5 166.5 163.5 164 164.7 181.6 165.5 194.6 148.9 199.5 121 195.5 121 195.5 109.5 191.3 109.4 194.5 109.3 197.7 113.9 197.3 113.9 197.3 113.9 197.3 108.5 197.6 108.9 199.5 109.2 201.3 115.3 201.3 115.3 201.3 115.3 201.3 109.8 201.3 110.6 203.1 111.5 204.9 125.8 211.3 153 207.8 182.2 204.1 186.3 192.3 180 173.3 168.3 141.9 106.2 149.3 103.7 158.1Z" id="SVGID_00000127013788245320187690000006019121106614354056_"/></defs><clipPath id="SVGID_00000159444912922196075050000013695829696343681966_"><use width="100%" height="100%" xlink:href="#SVGID_00000127013788245320187690000006019121106614354056_" overflow="visible"></use></clipPath><linearGradient x1="142.914" y1="74.4342" x2="142.914" y2="191.552" gradientUnits="userSpaceOnUse" id="SVGID_00000047044530771145099960000006074203864199006103_"><stop offset="0" stop-color="#00395C"/><stop offset="1" stop-color="#00273F"/></linearGradient><path d="M103.7 158.1C102.3 163 106.3 167.2 112.4 166.8 118.5 166.5 163.5 164 164.7 181.6 165.5 194.6 148.9 199.5 121 195.5 121 195.5 109.5 191.3 109.4 194.5 109.3 197.7 113.9 197.3 113.9 197.3 113.9 197.3 108.5 197.6 108.9 199.5 109.2 201.3 115.3 201.3 115.3 201.3 115.3 201.3 109.8 201.3 110.6 203.1 111.5 204.9 125.8 211.3 153 207.8 182.2 204.1 186.3 192.3 180 173.3 168.3 141.9 106.2 149.3 103.7 158.1Z" fill="url(#SVGID_00000047044530771145099960000006074203864199006103_)" clip-path="url(#SVGID_00000159444912922196075050000013695829696343681966_)"/><path d="M104.9 156.5C104.9 156.5 104.4 161.6 110.5 162.5 116.6 163.4 162.3 158.3 165.3 175.4 168.4 192.4 162.9 202.1 127.1 197.6 91.2 193.1 89.4 191.7 89.4 191.7L98.3 196.4C98.3 196.4 165.8 214.6 180.9 197.6 196 180.6 179.2 158.6 153.1 155.6 133.1 153.3 107.5 159.1 101.7 150.2" stroke="#00273F" stroke-width="0.75" stroke-miterlimit="10" fill="none" clip-path="url(#SVGID_00000159444912922196075050000013695829696343681966_)"/><path d="M104.1 153.2C104.1 153.2 107.3 160.5 118.8 160 130.4 159.6 173.2 156.3 174.3 178.4 175.4 200.5 159.7 207.4 109 197.2" stroke="#00273F" stroke-width="0.75" stroke-miterlimit="10" fill="none" clip-path="url(#SVGID_00000159444912922196075050000013695829696343681966_)"/></g><path d="M104.3 142C102.2 142 97.3 157.5 98.5 158 99.7 158.5 108.9 159.1 109.7 158 110.6 156.9 106.6 142 104.3 142Z" fill="#D14747"/><g><path d="M84.6 212.7 84.5 208 84.4 202.8C84.4 202.8 83.1 202.2 81.2 201.4 81.1 201.7 81 202 80.9 202.3 79.8 205.5 78.3 208.5 76.3 211.3 77.9 211.6 79.3 211.9 80.6 212.1 83 212.4 84.6 212.7 84.6 212.7Z" fill="#CCCCCC"/></g><g><linearGradient x1="93.5169" y1="23.0019" x2="96.6958" y2="78.8606" gradientUnits="userSpaceOnUse" id="SVGID_00000014595900249988912600000013620055718328236983_"><stop offset="0" stop-color="#00243B"/><stop offset="1" stop-color="#00121E"/></linearGradient><path d="M96.6 58.8C103.3 57.4 109.8 55 115.6 51.6 111 44.3 104.6 34.5 102.6 33.6 99.3 32.2 91.7 42.3 91.7 42.3 91.7 42.3 81.6 39.2 78.2 41.1 76.1 42.3 75.4 52.3 75.1 60 82.3 60.5 89.6 60.2 96.6 58.8Z" fill="url(#SVGID_00000014595900249988912600000013620055718328236983_)"/><path d="M96.6 58.8C89.6 60.2 82.3 60.5 75.1 59.9 75 64.8 75 68.6 75 68.6 103.8 76 120.5 59.5 120.5 59.5 120.5 59.5 118.4 56 115.7 51.6 109.8 55 103.3 57.4 96.6 58.8Z" fill="#36C7D1"/></g><g><path d="M80.4 40.5C79.5 40.6 78.8 40.8 78.2 41.1 76.1 42.3 75.4 52.3 75.1 60 75 64.8 75 68.6 75 68.6 78.9 69.6 82.5 70.1 85.9 70.4 84.6 66.9 83.7 63.2 83.1 59.4 82 53.1 81.6 46.7 80.4 40.5Z" fill="#CCCCCC"/></g></g><g><g><path d="M141.4 140.7C142.2 141.2 143 141.7 143.8 142.1 144.1 142.3 144.5 142.3 144.8 142.2 145.1 142.1 145.4 141.9 145.5 141.6 145.7 141.3 145.7 141 145.6 140.6 145.5 140.3 145.3 140 145 139.9 144.2 139.4 143.4 138.9 142.6 138.5 142.3 138.3 142 138.3 141.6 138.4 141.3 138.5 141 138.7 140.9 139 140.7 139.3 140.7 139.6 140.8 140 140.9 140.2 141.1 140.5 141.4 140.7L141.4 140.7Z" fill="#00273F"/></g></g></g></svg>